<svg xmlns="http://www.w3.org/2000/svg" xmlns:xlink="http://www.w3.org/1999/xlink" viewBox="0 0 745.66 449.37"><defs><style>.cls-1,.cls-6{fill:none;}.cls-2{isolation:isolate;}.cls-3{clip-path:url(#clip-path);}.cls-4{fill:#bfe6fd;}.cls-5{fill:#c8e9fd;}.cls-6{stroke:#060606;stroke-miterlimit:10;stroke-width:1.49px;}.cls-7{fill:#4747d6;}.cls-8{fill:#6764f1;}.cls-9{fill:#e382b1;}.cls-10{fill:#060606;}.cls-11{fill:#5f96c7;}.cls-12{fill:#6664f3;}.cls-13{fill:#5050d4;}.cls-14{fill:#4545c2;}.cls-15{fill:#71add6;}.cls-16{clip-path:url(#clip-path-2);}.cls-17{fill:#35596f;}.cls-18,.cls-19,.cls-22{fill:#fff;}.cls-18,.cls-22{mix-blend-mode:overlay;}.cls-20{fill:#f3d463;}.cls-21{fill:#df7e54;}.cls-22{opacity:0.32;}.cls-23{fill:#bf6342;opacity:0.48;}.cls-24{fill:#efc35e;}</style><clipPath id="clip-path" transform="translate(-228.4 -98.23)"><rect class="cls-1" width="888.89" height="500"/></clipPath><clipPath id="clip-path-2" transform="translate(-228.4 -98.23)"><path class="cls-1" d="M729.57,304.66c-.61,2.34,14,8.15,32.7,13s34.28,6.87,34.89,4.54-14-8.16-32.7-13S730.17,302.33,729.57,304.66Z"/></clipPath></defs><title>8652908</title><g class="cls-2"><g id="OBJECTS"><g id="Group"><g class="cls-3"><path class="cls-4" d="M230.4,545.24a182.89,182.89,0,0,1,154.83-185c54.86-8.5,113.33,7.89,165.25-11.76,42.32-16,72.59-53.26,98.26-90.53s49.83-77.19,86.6-103.57a165.38,165.38,0,0,1,236.4,46.32V530.17Z" transform="translate(-228.4 -98.23)"/><path class="cls-5" d="M232.83,547.17c-3,0-1.93.36-2.38.43C235.49,547.42,232.7,547.09,232.83,547.17Z" transform="translate(-228.4 -98.23)"/><polygon class="cls-5" points="54.17 447.16 53.29 447.32 60.62 446.82 54.17 447.16"/><path class="cls-5" d="M329.09,544.45c-4.41-.49-16.86.44-25.15.4l-1.37-.11-3.73.55C308.91,545,322,544.43,329.09,544.45Z" transform="translate(-228.4 -98.23)"/><path class="cls-5" d="M353.92,545.2c-1.53-.19,5.37-.3-5.78,0l1.05,0Z" transform="translate(-228.4 -98.23)"/><path class="cls-5" d="M349.19,545.29c-4.9.11,3.21.12,0,0Z" transform="translate(-228.4 -98.23)"/><path class="cls-5" d="M371.81,544.7l-6.45.33c1.35.11,7.1,0,5,.16C376.94,545,375.58,544.84,371.81,544.7Z" transform="translate(-228.4 -98.23)"/><path class="cls-5" d="M377.92,544.15l-3.34.15A17.79,17.79,0,0,0,377.92,544.15Z" transform="translate(-228.4 -98.23)"/><path class="cls-5" d="M367.49,544.63l7.09-.33a8,8,0,0,0-3.26.13C371.9,544.25,370.5,544.44,367.49,544.63Z" transform="translate(-228.4 -98.23)"/><path class="cls-5" d="M363.47,544.62c-3.62,0-8.3,0-1.83-.37C349.3,544.58,351.13,545,363.47,544.62Z" transform="translate(-228.4 -98.23)"/><path class="cls-5" d="M331.45,543.8l-4.84-.07-4.18.28C324.52,543.87,331.76,544,331.45,543.8Z" transform="translate(-228.4 -98.23)"/><path class="cls-5" d="M412,544.18c.4-.13-2.17-.28-2.66-.43l-4.76.24C407.05,544,411.69,544,412,544.18Z" transform="translate(-228.4 -98.23)"/><path class="cls-5" d="M409.36,543.75l7.13-.36C410.12,543.49,409,543.62,409.36,543.75Z" transform="translate(-228.4 -98.23)"/><polygon class="cls-5" points="150.66 445.25 138.95 445.93 152.92 445.2 150.66 445.25"/><polygon class="cls-5" points="210.87 445.42 206.83 445.78 214.02 445.2 210.87 445.42"/><path class="cls-5" d="M457.33,543.23c-3,.3,4.11.32.95.53,4.91-.15,9.1-.44,12.87-.7C467.14,543.25,462.87,543.31,457.33,543.23Z" transform="translate(-228.4 -98.23)"/><path class="cls-5" d="M477.48,542.67c-2,.1-4.07.24-6.33.39C473.28,543,475.37,542.84,477.48,542.67Z" transform="translate(-228.4 -98.23)"/><path class="cls-5" d="M428.64,543.2a38.4,38.4,0,0,0,5.62.24l-2.81-.29Z" transform="translate(-228.4 -98.23)"/><path class="cls-5" d="M431.35,543.14h.1l6.06-.1Z" transform="translate(-228.4 -98.23)"/><path class="cls-5" d="M427.93,543.22l.71,0A2.43,2.43,0,0,0,427.93,543.22Z" transform="translate(-228.4 -98.23)"/><path class="cls-5" d="M397.76,543.41c4.19-.28,12.92-.66,4.46-.79C399.22,542.92,404.06,543,397.76,543.41Z" transform="translate(-228.4 -98.23)"/><path class="cls-5" d="M424.44,542.85l-7.58.08c.15.08,1.52.19-.55.33Z" transform="translate(-228.4 -98.23)"/><polygon class="cls-5" points="199.75 444.44 196.04 444.62 198.85 444.6 199.75 444.44"/><path class="cls-5" d="M464.5,542.61c3.26-.22,6.84-.31,10.89-.41-4.34,0-8.82.07-13.07.16C461.72,542.48,459.85,542.71,464.5,542.61Z" transform="translate(-228.4 -98.23)"/><path class="cls-5" d="M448.39,542.84l.73,0C448.67,542.78,448.31,542.78,448.39,542.84Z" transform="translate(-228.4 -98.23)"/><path class="cls-5" d="M515.2,541.39l-.64,0-.15.06Z" transform="translate(-228.4 -98.23)"/><path class="cls-5" d="M461.59,542.31c-3.26,0-5.21.12-7.06.27l7.79-.22C462.58,542.3,462.63,542.27,461.59,542.31Z" transform="translate(-228.4 -98.23)"/><path class="cls-5" d="M488.58,542.28l-5.64-.08C484.6,542.28,488,542.38,488.58,542.28Z" transform="translate(-228.4 -98.23)"/><path class="cls-5" d="M450.22,542.88l-.49,0C450.8,543,450.66,542.92,450.22,542.88Z" transform="translate(-228.4 -98.23)"/><path class="cls-5" d="M450.22,542.88c1.67-.09,3-.2,4.31-.3-2,.06-3.82.14-5.41.22Z" transform="translate(-228.4 -98.23)"/><path class="cls-5" d="M527.21,538.91c-.56.33-9.12.8-16.52.61-7.27.39-2.49,1.35,3.87,1.82.22-.15.22-.28,7.7-.62-2.62-.12-16.62-.08-10.31-.5a113.28,113.28,0,0,1,13,0c-4.11-.32,12.6-.85,10.43-1.39l-8.69.38C526.48,539.15,529.63,538.94,527.21,538.91Z" transform="translate(-228.4 -98.23)"/><path class="cls-5" d="M500.29,541.6l-3.08.1c3.52,0,6,.06,10.67.22,5.12-.26,6.18-.4,6.53-.52l-15.17.27Z" transform="translate(-228.4 -98.23)"/><path class="cls-5" d="M483.38,542c2.4-.4,9.79-.7,5.26-1-9.05.21-6.33.42-11.73.69,14.59-.39-4.19.28,6.36.26-2.87.12-5.45.19-7.88.26h7.16c-.63,0-.84,0-.13,0h.3a3.48,3.48,0,0,1,.66-.15c4.23,0,.67.08-.66.15l-.17,0h.05l14.61-.49C494.12,541.71,490.25,541.8,483.38,542Z" transform="translate(-228.4 -98.23)"/><path class="cls-5" d="M410,541.71c.46,0,.44,0,.47.07C411.42,541.72,411.77,541.68,410,541.71Z" transform="translate(-228.4 -98.23)"/><path class="cls-5" d="M416,541.8c-1.06.07-1.94.23-5.4.26-3,0,0-.17-.15-.28-2.08.13-7.28.4-.75.44l1-.07c5.88,0,13.45.28,12.42.35A62.05,62.05,0,0,0,416,541.8Z" transform="translate(-228.4 -98.23)"/><path class="cls-5" d="M450.12,541.79l12.17-.42-6.21-.18.32.18C449.48,541.44,451,541.63,450.12,541.79Z" transform="translate(-228.4 -98.23)"/><polygon class="cls-5" points="288.2 443.31 286.59 443.71 293.61 443.04 288.2 443.31"/><polygon class="cls-5" points="304.01 442.94 303.43 443.28 307.6 443 304.01 442.94"/><path class="cls-5" d="M873.83,130.9c-1.15-.27-2.27-.62-3.44-.82C872,130.41,873.06,130.74,873.83,130.9Z" transform="translate(-228.4 -98.23)"/><path class="cls-5" d="M897.89,139.52l.64.11C897.41,139.22,896.94,139.08,897.89,139.52Z" transform="translate(-228.4 -98.23)"/><path class="cls-5" d="M920.83,533.24c5.22.2,11,.55,10.41.2l-1.61-.32C926,533.25,923.2,533.27,920.83,533.24Z" transform="translate(-228.4 -98.23)"/><path class="cls-5" d="M971.66,315.06c0,.5-.07,1-.11,1.53.12,1.26.24,2.45.34,3.51C971.82,318.59,971.74,316.87,971.66,315.06Z" transform="translate(-228.4 -98.23)"/><path class="cls-5" d="M970.19,311.39l.23-6.87C970.34,306.06,970.26,308.27,970.19,311.39Z" transform="translate(-228.4 -98.23)"/><path class="cls-5" d="M740.35,153.79l-3.19,2.6C742.47,152.79,740,154.22,740.35,153.79Z" transform="translate(-228.4 -98.23)"/><path class="cls-5" d="M694.39,537.75c4.5,0,8.07,0,11.22,0C700.19,537.64,695.81,537.42,694.39,537.75Z" transform="translate(-228.4 -98.23)"/><path class="cls-5" d="M884.66,130.27a13.79,13.79,0,0,0-3-.78C883.84,130.16,885.08,130.51,884.66,130.27Z" transform="translate(-228.4 -98.23)"/><path class="cls-5" d="M718.59,537.47l-2.38,0c-3.28.13-6.59.25-10.6.3C709.61,537.8,714.19,537.8,718.59,537.47Z" transform="translate(-228.4 -98.23)"/><path class="cls-5" d="M320.49,385.9l-1,.55C319.41,386.55,319.85,386.29,320.49,385.9Z" transform="translate(-228.4 -98.23)"/><path class="cls-5" d="M233.15,501.77c.32-1.45.85-3.81,1.37-6C234.23,496.81,233.83,498.63,233.15,501.77Z" transform="translate(-228.4 -98.23)"/><path class="cls-5" d="M596.05,540c-3.36.09-.53.05,0,0Z" transform="translate(-228.4 -98.23)"/><path class="cls-5" d="M579.71,539a4,4,0,0,0,1.33-.2A6,6,0,0,1,579.71,539Z" transform="translate(-228.4 -98.23)"/><path class="cls-5" d="M752,534.59h.29C751.25,534.53,751.42,534.54,752,534.59Z" transform="translate(-228.4 -98.23)"/><path class="cls-5" d="M591,540l4.29,0Z" transform="translate(-228.4 -98.23)"/><path class="cls-5" d="M591.68,540.13l-2.93,0C588.32,540.22,588.7,540.25,591.68,540.13Z" transform="translate(-228.4 -98.23)"/><path class="cls-5" d="M600.72,539.92c-1.92,0-3.71.06-5.43.07.66,0,.93,0,.76,0Z" transform="translate(-228.4 -98.23)"/><path class="cls-5" d="M584.19,331.17l-.61.39C580.91,333.69,582.11,332.79,584.19,331.17Z" transform="translate(-228.4 -98.23)"/><path class="cls-5" d="M970.09,493.81l0,.39v-.5Z" transform="translate(-228.4 -98.23)"/><path class="cls-5" d="M969.83,481.76a92.8,92.8,0,0,1,.29,11.94l1-4Z" transform="translate(-228.4 -98.23)"/><path class="cls-5" d="M813.1,126.67c2.79-.18,5.57-.3,8.35-.45-2.5.36-4.82.65-6.78.89s-3.54.58-4.57.73c-2.07.37-1.92.42,2,.1a4.17,4.17,0,0,1,1.67-.56c1-.17,2.27-.34,3.81-.52s3.32-.42,5.23-.5l6-.27c1-.06,2-.06,3,0l2.93,0c1.9,0,3.7,0,5.25.06,3.1.11,5.28.1,5.59-.16.92.08,1.83.22,2.74.37l2.72.43c-1.57-.19-1.82-.15-3.37-.34a82.34,82.34,0,0,0,9.66,1,55.85,55.85,0,0,1,11.91,1.86,47.9,47.9,0,0,1,5.27,1.53c1,.35,1,.42-.62,0l5.2,1.32c1.72.49,3.43,1,5.14,1.56,3,1,2.17,1-.77-.05l3.88,1.28,3.82,1.49,3.81,1.48,3.74,1.67-.12,0c1.09.42,2.89,1.07,4.68,1.83l4.75,2.17c3.64,2.05-1.91-.86-1-.25,1.36.68,2.76,1.27,4.08,2l4,2.17c1.53,1.06.63.7-1.33-.32-1-.51-2.22-1.19-3.55-1.94l-4.22-2.16c1.75,1.23,3.06,2,4.26,2.71s2.27,1.31,3.65,2a58.72,58.72,0,0,1,5.23,3,92.2,92.2,0,0,1,8.61,6.08l-3.51-2.45-3.61-2.28c1.06.89,2.23,1.74,3.47,2.67s2.52,2,3.94,3l2.21,1.66c.75.59,1.5,1.24,2.29,1.9,1.57,1.34,3.32,2.71,5,4.38-.75-.88-4.4-4-6.81-6.32s-3.85-3.42.23-.65c1.05.89,2.29,1.93,3.79,3.12l2.48,1.93,2.84,2.34c-.11.17.82,1.09,2.39,2.51L943.7,170l1.41,1.38,3.27,3.18-.69.06c.64.6,1.2,1.1,1.67,1.56l1.22,1.23c.71.69,1.24,1.18,1.7,1.6.93.85,1.64,1.41,3.11,2.87,2.48,3,3.9,4.91,4.81,6.24a28.42,28.42,0,0,1,1.63,3c3.68,5,2.53,3.2,1.57,1.59s-1.71-3,2.67,2.93l3.7,5.7c0,2.17,0,4.28.05,6.45.07,4.74.2,9.73.35,16-.18,7.37-.31-1.29-.46,1.35l.41,6.53c0,1.6-.14,1.09-.2.82.16,5.51.52.46.66,9.11.58,2.33-.84,17.75-.18,28.46-.15,2.64-.32-1.27-.53-.47.43,14.69.32,12.59.89,24.65l-.34,10.28c.39-7.55.86,2.09,1.24,10.54.19-2.68.35-5,.43-6.5l.28,13.48c-.09,1.63-.26.27-.48-1.94,0,.92.09,1.8.12,2.47-.19,4.83-.49,2.33-.78-1.13.11-1.64.21-3.27.32-4.85-.32-3.33-.67-6.45-1-5.76.06.88.12,2.57.15,4.42-.09-.87-.17-1.42-.22-1s.06,1.86.19,4.07l-.58,3.06.23.75L970,339.75c.59,12.62,1.45,23.59,1.69,43.62-.43-5-.7-1.06-1.2-1.33.53-5.47-.23-15.52-.12-25.9-.06,5.42-.3,4.23-.38,2.85l.48,18.51c-.41-.41-.31,3.93-.48,8.77.82-3.65.55,13.8.8,21.34-.28.46-.56-1.34-.49-10.53-.62,10.14,1,13.1.43,23.05a34.77,34.77,0,0,0-.1-4.34c.24,5.24,0,18.06-.19,15V428.6c-.1,14.89,0,45.35.68,47.57a10.11,10.11,0,0,1-1-2.85l2.33,26.58c-.59-2.34-2,6.65-2.35-5.7-.08,3.54-.18,7.93,0,15.41.08-2.42.86-6,.91-2.72-.66,9.07-.35,6.3-.92,17.49.07-1.78.32-1.72.56-.52a24.18,24.18,0,0,1,.33,2.57c0,.47.07,1,.1,1.54s0,1.07,0,1.64h-.28c.16,0,.14-.13,0-.23a2.12,2.12,0,0,1-.78-1.41l.08.71-.8.12-.43.07-.23,0-.31,0-3.24.27-6.48.55c3.55-.23.61-.79-2.59-1,1.49.15-12.33.23-16.13.4l6.05.09c-16.11.19-15.88,1.61-31.86,1.89,1.93-.23,4.75-1.26-3.38-1.21a298.37,298.37,0,0,1-30.57,3.24l-2.72-.21-10.84.52c6.74-.84,25.67-2.71,36-3.5-6-.09-1.68-.29-10.71-.08-3.19-.19,4.92-.48,7.57-.55l-21,.27c1,.53-16.06.87-15.25,1.31l22.82-1c.93.53-13.17,1.83-28.06,2-3.79-.14,2.81-1,2.5-1.21-1.93.23-14.13.65-15.5.54l6.31-.42c-8.29,0-13.51,1-23.48.68-3.44,0-10.28-.5-10.87-.16,5.62.51,6.75,2.43,3,3-1.21,0-18.07-.23-22-.46-5.67-.37,8.47-1.34,3.65-1.66a38.52,38.52,0,0,1-4.63.48c-3.62-.05,1.48-.49-6.36-.26-1.3.58-16,.27-3.7.54-7.67.32-8.16,0-17.17.26,2.87.3-8.07,1.39-15.76,1.7.45-.15-1.28-.3-2.11-.36-15.74.27-24.19.19-38.86.48-1.35-.11-8.43-.13-5.43-.43-2.1.14-4,.37-8.56.48-8.77-.31,10.08-.28,3.4-.73-.57.34-11.7.69-18.14,1,2,.46,14.9-.21,21.35-.54,0,.69-11.18,1.64-26.51,2.27-12.18.42-5.29-.34-7.4-.2-22.9.35-19.48,1.6-38.5,1.49-7.55-.29-.35-.87-2-1.15,9.92-.37,15.24,0,22-.18l-8.29,0c3.16-.21,9.78-.46,13.4-.41-6.33-.26-38.68.71-56.34.71-3.14.21-8.55.47-6,.6l5.58-.18c5.14.25-10.5.71-3.43.73-7.49.4-15.88,1-26.44,1l-2-.46a89.65,89.65,0,0,0,9.86,0c-4.39.31-16.19-.35-21,.4l7.41.2c-7.52.4-16.82,1.12-26.17,1.16,4.27.4,2.16-.1,8.81.34-5.77-.6,23.93-.46,14.66-1,6.83.53,11.8,0,20.73.43-.28-.16-3.17-.25,4.69-.33.35,0,1.19-.13,1.72-.18h.09c.34,0,.37,0-.16,0-1.87,0-3.39-.09-4-.17,3.89-.46,16.37-.7,20.59-1,4.66,0-2,.23.6.35l6.3-.42c.63.35,12.39.36,1.42.79l9.88-.18c5.82.09,13.82,0,18.75-.25,4.66,0,11.76-.64,7.7-.27l15.49-.54.14.08c15.29-.26,31.45-1.24,48.94-.94,5.15-.19,10.46-.41,19.07-.48l1.69.28c6.6-.25,19.84-.09,22.67-.48,7.15.71,32.07-.46,43.69-.55l.43-.42c8-.14,15.67-.41,25.59-.78l-.62-.35c8.56-.48,22-.19,35.55-.5a63.92,63.92,0,0,1-6.78.15c16.19.5,34.11-1.29,48.79-1,3.65-.2,6.3-.21,8.87-.17l-.91,0,1.5,0,5.08.09c-1.53-.06-3-.1-4.27-.11,2.81-.06,7.09-.19,11.28-.37l1.79.36,1,0c4.12.07,3.3-.25,1.1-.5,2.11-.11,4-.22,5.54-.35,3.36.57,11-.44,15.57.15,1.05-.15,4.23-.28,7.93-.42l12.27-.54c0-1.55-.1-2.88-.17-3.89,0-.56-.06-.78-.1-1.08a3.66,3.66,0,0,0-.13-.61c.09-.14.14-1.38.14.88.08-4.67.16-9.34,0-13.53l.49-2L972.54,501c.31-6.2.48-8.77.87-2.61-.59-14.86-.22-12.06-.81-24.7l.32.62c0-4.52-.44-11.75-.18-14.47.62-10.11.09-50,.66-75.95-.95,5,.43-12.06-.31-13.09.22-1.51.35-5.13.55-.93-.22-13.24.35-19.89-.27-29,.23-1.52.33,2.83.47,1.48-.05-1.06-.2-4.2-.07-5.58s.19,1.94.29,4c0-13.52-.73-14.89-1.38-15.87a102.34,102.34,0,0,0-.16-15.23c.21-2.38.43-6.36.51,2,0-4.73.31-28.88-.21-29.36.13-1.48,0-6.61,0-7.86,0-10.61.08-11.54,0-22l-.09,2.89c-.63-4.11-.14-8.66-.21-17.06l.06.24c.45-19.25-.22-8.31.3-27.31l-.39,1c-.42-.89-.3-5.1-.11-10.46l0-1.2v-.16a.57.57,0,0,0-.08-.13l-.16-.27-.34-.53-1.14-1.85L968.34,194c-1.66-2.5-3.51-4.91-5.21-7.09l2.21,3.34c-1-1.16-2-2.66-3.14-4.25s-2.41-3.3-3.64-5l-.92-1.31c-.33-.41-.65-.83-1-1.24l-1.9-2.41a46.42,46.42,0,0,0-3.46-4.07c-.9-1,1.6,1.38,2.86,2.75-.66-.76-1.23-1.43-1.76-2L951,171.15c-.82-.84-1.41-1.41-1.82-1.8-.83-.77-1-.8-1.06-.73s-.07.24-.58-.12-1.52-1.28-3.79-3.2c-1.47-1.67,2.59,1.36-3.39-4-.73-.7-2.29-1.88-4.31-3.43-1-.76-2.13-1.66-3.39-2.51s-2.6-1.76-4-2.71l-2.1-1.43c-.71-.48-1.47-.92-2.2-1.38L920,147.06c-2.91-1.78-5.75-3.38-8-4.89,2,1.41,3.95,2.76-.92.17-1.89-1-4.08-2.13-6.42-3.41s-4.94-2.43-7.47-3.66-5.16-2.19-7.54-3.13a36.38,36.38,0,0,0-3.47-1.17c-1.1-.32-2.12-.61-3.06-.83a5.09,5.09,0,0,1-1.39-.65c-1.54-.52-3.62-1-5.88-1.59l-3.51-.92-3.66-.75a89.65,89.65,0,0,0-11.35-1.78c-1.41-.65-4.65-1.09-8.67-1.59l-1.55-.18-1.61-.09-3.37-.18-3.49-.16-3.5,0-3.44,0H830l-1.6.09c-2.1.12-4,.22-5.67.28-3.28.17-5.38.33-5.38,0-1.65.17-3.31.28-5,.5l-4.93.71-2.47.36c-.82.12-1.63.31-2.45.46l-4.89,1,.49-.23c-1.57.26-3,.61-4.31.94l-3.62.9c-2.22.52-4,1.15-5.58,1.66s-2.86,1-4,1.39-2.2.9-3.23,1.33c-2.8.9-.82.08-.61-.07-2.19.77-4.18,1.36-5.9,2.06l-4.68,1.86-2,.82c-.64.28-1.23.57-1.82.84L759,138.75c-1.06.53-2.12,1-3.17,1.6l-3.26,1.86-3.74,2.19-4.39,2.89-1.6.49c-.9.56-2.72,1.81-5.23,3.46l-2,1.32-1.09.71-1.1.8-4.83,3.53A163,163,0,0,0,708,176.27a8.26,8.26,0,0,1,1.26-1.56c-7,7.46-15.21,16.58-21.83,24.89S675.58,215.21,674,218.69c-2.51,3.73-4.93,7.49-7.38,11.25,10-14.24-.95,2.49,3.32-3.25-3.82,5.66-10.34,14.33-5.68,7.35l.8-1c1.09-3-12.35,17.72-12.52,17-4.8,7.06-9.64,14-14.61,20.81s-10.11,13.37-15.42,19.71c-10.64,12.64-22,24.33-34.48,34.15l3.22-1.83L587,326.34c-1.44,1.16-3,2.18-4.47,3.28-2.43,1.6-3.42,1.92,3-2.7-1.78,1.07-4.39,3.1-6.63,4.83s-4.14,3.06-4.2,3.18l-2.11,1.31c-.6.34-1.11.6-1.5.81a9.14,9.14,0,0,1-1.33.63c-.24.05.66-.56,1.86-1.33,2.36-1.6,5.76-4,3.78-2.72l-2.67,1.76c-.89.61-1.84,1.09-2.76,1.65l1.29-.66-5,3.25a30.2,30.2,0,0,1-3.1,1.73c-1.3.67-2.91,1.48-5,2.52-5.57,2.24-3,.86-5.16,1.75a2.94,2.94,0,0,0-.7.24L549.52,347c-4.35,1.58-8.77,3-13.26,4.13,1.82-.35,3.67-.63,5.48-1.06-5.84,2-12.72,3.22-6.3,2.3-1.18.17-2.86.48-4.9.89s-4.47.84-7.16,1.22c-5.35.85-11.72,1.63-18,2.1-12.56,1-24.76.88-27.67.75-8.72.28-17.34,0-28-.35,2.65.18,4.23.75-5,.43,1.7-.5-2.51-.75-8.09-.93s-12.52-.25-16.27-.59c3.35.22-3.23.29-9.32.59s-11.71.86-6.45.85c-7.71.46-.5-.42-6.37-.18a237.69,237.69,0,0,0-29.66,5A169.33,169.33,0,0,0,337,373c-.13.14.69-.15,1-.16s.09.14-2.06,1.3l-5.58,2.28c-1.84.81-3.65,1.68-5.48,2.51-1,.55-1.68,1-2.29,1.4l-1.71,1.28a62.25,62.25,0,0,1-6.51,3.88c1-.53,2.58-1.33.08.36a174.21,174.21,0,0,0-49.54,46,204.13,204.13,0,0,0-30,61.28c1.91-5.86.84-1.9-.41,2.63.88-2.92.33.15.68-.37-.85,3-1.63,6.1-2.41,9.17l-1,4.64c-.32,1.55-.69,3.1-.92,4.66.05,1.76-.74,6.79-1.09,11.68-.1,1.22-.24,2.43-.3,3.57l-.12,3.19a27,27,0,0,0,0,3.84l.19-6c.14,4,.54,1.23,1.16-2.36s1.46-8,1.83-7.35c.13-2.21.46-4.76.89-7.55s1.2-5.8,1.95-9c.42-1.58.84-3.21,1.27-4.86.21-.83.43-1.66.64-2.5l.72-2.53q.72-2.55,1.38-5.17c.5-1.72,1-3.47,1.43-5.23,1.14-3-.61,2.67.1,1.1a45.87,45.87,0,0,1,1.81-6.19c.88-2.45,2-5.42,3.69-9.15l-.28.89c.56-1.33,1.1-2.61,1.63-3.85s1.13-2.4,1.66-3.54c1.11-2.28,2.09-4.44,3.23-6.43s2.1-4,3.21-5.82l3.34-5.5c1.13-1.82,2.4-3.59,3.64-5.46s2.64-3.73,4.11-5.71c.74-1,1.49-2,2.27-3l2.56-3.14c.89-1.07,1.78-2.21,2.76-3.34l3.11-3.48-1.56,1.18a77.73,77.73,0,0,1,6.51-6.7c2-2.5-.73.3-3.48,3.17s-5.32,6-3.65,3.62c2.67-2.59,9.31-9.81,16.43-16.14s14.64-11.68,16.9-12.77c1.72-1.27,2.49-1.77,2.71-2s-.06-.07-.36.06c-.58.25-1.17.5,2.41-1.84l2-1c.55-.48,1.08-1,1.65-1.44,4.86-2.82,7.42-4,7.73-3.91-1.21.62-3.3,2-4.55,2.75,3.15-1.79,7.65-4.22,11.64-6.35s7.55-3.78,8.74-4.17l-1.91.77-1.86.85-3.73,1.71a178.54,178.54,0,0,1,35-13.15,210.48,210.48,0,0,1,36.39-5.89L403,359.6a157.07,157.07,0,0,1,15.78-.7l17.09.12-.7,0c3.82-.12,8.91-.08,14.13.09-4.82.07,9,.68,2.72.73,18.85.16,9.33,0,21.79-.43l2.88.33,5.08-.3,9.06-.28c-3.91.21-2.39.29-1,.4s2.71.21-1.68.46a159.08,159.08,0,0,0,23.56-1.31c6.07-.75,10.74-1.62,15.38-2,2.23-.66,2.27-.81,1.15-.67-.55.07-1.4.21-2.4.38l-3.38.53c-2.4.41-4.94.7-6.55.94s-2.3.25-1,.06c-2.16.08-.28-.21,2.9-.79,1.59-.27,3.51-.59,5.41-.95l2.81-.51,2.53-.49c.79-.16,1.55-.29,2.31-.41l2.28-.41c1.56-.25,3.22-.51,5.15-.92,1-.21,2-.4,3.16-.68l3.72-1a78.2,78.2,0,0,0,9.6-3.44c-1.49.62-1.57.72-3.06,1.34,1.42-.54,2.82-1.11,4.22-1.7s2.83-1.16,4.21-1.93,2.84-1.46,4.36-2.2c.76-.38,1.55-.73,2.33-1.14l2.41-1.27c.85-.63,1.8-1.24,2.76-1.82s1.93-1.13,2.77-1.71a14,14,0,0,0,3.43-2.65c-4.07,2.81-8.36,5.3-12.69,7.71,1.86-1,3.59-2.15,5.41-3.27.91-.57,1.84-1.14,2.77-1.75l2.82-2c1.94-1.36,4.07-2.76,6.29-4.47l3.59-2.61c1.28-.88,2.52-1.94,3.91-3-.38.39-1.34,1.26-2.48,2.27s-2.54,2-3.65,2.92c3.44-2.17,6.11-4.85,9.51-7.31a14.41,14.41,0,0,1-2.51,2.4c-1.44,1.22-3.34,2.85-5.59,4.43s-4.6,3.45-7,5-4.64,3.2-6.58,4.37c2-.89,5.49-3.42,8.13-5.17s4.19-3.1,2.57-1.46a49.74,49.74,0,0,1,4.17-3.49c1.59-1.18,3.21-2.57,5-3.95.89-.71,1.82-1.42,2.76-2.18l2.78-2.44c.94-.85,1.9-1.72,2.87-2.62s1.87-1.9,2.81-2.9l-.26.78,2.59-2.67,1.66-1.69,1.68-1.77c-.62.75-1.22,1.51-1.85,2.25L605,314.91c6.07-6.49,12.28-12,17.59-18.64l-3.46,4c-.91,1-1.56,1.68-2,2.15-.93.95-1.1,1-1.06.88s1-1.6-1.64,1.09l4.54-5.18c1.22-1.44,2.23-2.6,3.1-3.56s1.6-1.74,2.26-2.42l1.85-1.95c2.41-2.52,5.17-5.21,12.42-15.12-1.89,2.74-7.74,9.79-4.7,5.57,1.48-1.81,3.11-4,4.66-5.91s3-3.72,3.86-4.83c9.38-13.26-1.77,1.8,2.06-4,3.56-4.25,4.44-6.63,8.31-12.57l.35.18c10.59-15.12,2.08-4.51,11.65-18.08l-3.48,6.12,4.74-7.24-.63,1.72c2.51-4,4.19-6.56,5.93-9.07s3.51-5,6.23-8.69c-1.45,1.59.07-1.43,4.88-8,3.48-4.33-1.59,2.69,5.31-6.56a62.78,62.78,0,0,1-6.11,8.52c-.2.49-1.31,2.22-1.52,2.72,3.72-4.68,8.94-12.05,11.56-15.29l-2.84,3.49c1.61-2.27,3.29-4.48,4.94-6.73s3.4-4.41,5.1-6.61c1.79-1.93.55-.25-.68,1.41,2.1-2.65,3.56-4.47,6.81-8.23-.61,1.18-.17,1.17-4.69,6.53l5.11-6.07c1.74-2,3.52-3.93,5.29-5.9.8-.7,6-5.45,4.64-3.94l2.49-2.4,2.76-2.57,2.91-2.77c1-.93,2.09-1.84,3.16-2.79l3.27-2.87,3.48-2.73c1.18-.9,2.34-1.83,3.54-2.68s2.44-1.64,3.66-2.42A39.67,39.67,0,0,1,744.1,151c2.35-1.38,4.62-2.75,6.92-4l7.08-3.66c2.45-1.12,4.94-2.29,7.56-3.53s5.42-2.37,8.41-3.6l7.1-1.89c9.65-3-9.75,2.14,6.36-2.87,1.42-.48,2.59-.73,3.51-1s1.61-.38,2.12-.49c1-.2,1.35-.21,1.44-.15s-.57.53,1.47.11c1.42-.45,3.14-.8,5.06-1.28s4-1,6.38-1.35l3.59-.58c1.23-.19,2.49-.39,3.79-.48,2.6-.2,5.3-.48,8-.49-1.81.1-3.42.34-5,.45S814.79,126.46,813.1,126.67Zm117.63,32.08c-2-1.34-6.05-4-7.41-5.17C925.87,154.75,927.44,156.24,930.73,158.75ZM970.9,333.68a75.36,75.36,0,0,1,.08-7.82C971,328.17,971,330.78,970.9,333.68ZM632.81,539l.26,0C638.54,539,636.6,539,632.81,539Zm-11.35.06c-1.14.08-1.06.13-.58.18.79-.12,3.34-.17,6.24-.21A43.68,43.68,0,0,0,621.46,539ZM551.77,346.24l2.06-.74C549.32,347.5,550.55,346.87,551.77,346.24Z" transform="translate(-228.4 -98.23)"/><path class="cls-5" d="M970.36,311.88a3.29,3.29,0,0,1,.21-1.05C970.51,309.87,970.43,309.85,970.36,311.88Z" transform="translate(-228.4 -98.23)"/><path class="cls-5" d="M741,153.31l-.32.21a1.82,1.82,0,0,0-.28.27Z" transform="translate(-228.4 -98.23)"/><path class="cls-5" d="M797.18,532.11c2.33,0,3.64.06,4.51.12C801.81,532.13,800.75,532.07,797.18,532.11Z" transform="translate(-228.4 -98.23)"/><path class="cls-5" d="M561.33,540.91l7.27-.25c-3.52.1-4.77,0-6.55,0C562.21,540.76,563.6,540.86,561.33,540.91Z" transform="translate(-228.4 -98.23)"/><path class="cls-5" d="M498.19,539.76c-1.06.07-2.26,0-3.3.12l.29.18C499.71,540,502.87,539.74,498.19,539.76Z" transform="translate(-228.4 -98.23)"/><path class="cls-5" d="M554.58,539.74c-.59-.32-5.15-.11-10.24,0h.91C543.75,540.27,549.18,540,554.58,539.74Z" transform="translate(-228.4 -98.23)"/><path class="cls-5" d="M543.16,539.83c-1.57,0-3.17.09-4.7.1C537.86,540.13,540.37,539.93,543.16,539.83Z" transform="translate(-228.4 -98.23)"/><path class="cls-5" d="M607.07,539.54c-2.42,0-1.51.45-2.88.34C601.5,540.36,620.28,539.05,607.07,539.54Z" transform="translate(-228.4 -98.23)"/><polygon class="cls-5" points="322.03 440.51 323.87 440.88 326.71 440.49 322.03 440.51"/><path class="cls-5" d="M590.64,538.22l-8.14,0a9.26,9.26,0,0,1-2.17.19C585.34,538.37,590.84,538.34,590.64,538.22Z" transform="translate(-228.4 -98.23)"/><path class="cls-5" d="M580.33,538.46c-2.61,0-5.1.1-6.55.2C575.19,538.62,578.23,538.55,580.33,538.46Z" transform="translate(-228.4 -98.23)"/><polygon class="cls-5" points="333.15 440.16 335.56 440.19 341.31 440.11 333.15 440.16"/><path class="cls-5" d="M678.11,536.52l8.87-.3c.91-.16-1.51-.19-4.82-.07C680,536.29,676.74,536.41,678.11,536.52Z" transform="translate(-228.4 -98.23)"/><path class="cls-5" d="M651.23,536a34.94,34.94,0,0,1,3.92.23l.26-.51Z" transform="translate(-228.4 -98.23)"/><path class="cls-5" d="M677.12,535.3c.88-.16,12.88-.66,1.63-.4C677.85,535.06,669,535.35,677.12,535.3Z" transform="translate(-228.4 -98.23)"/><polygon class="cls-5" points="582.54 435 580.28 435.05 580.62 435.87 582.54 435"/><path class="cls-5" d="M928.82,528.84c-10.52,0-2.49.56-12,.51-2.47.25,7.78,0,5.25.27C928.41,529.28,931.75,529.33,928.82,528.84Z" transform="translate(-228.4 -98.23)"/><path class="cls-5" d="M922.07,529.62l-3.24.19C920.67,529.72,921.53,529.66,922.07,529.62Z" transform="translate(-228.4 -98.23)"/><path class="cls-5" d="M229,526.44c-.31,2.26-.41,4.55-.59,6.82l.48-4.4C228.9,528.06,229,527.25,229,526.44Z" transform="translate(-228.4 -98.23)"/><path class="cls-5" d="M229,539.57l-.53,1.6.48,4.1C228.94,543.73,228.9,540.74,229,539.57Z" transform="translate(-228.4 -98.23)"/><path class="cls-5" d="M944.13,171.59l.45.26a18.33,18.33,0,0,0-1.39-1.54c-.66-.63-1.53-1.41-2.69-2.45C941.72,169.09,943,170.27,944.13,171.59Z" transform="translate(-228.4 -98.23)"/><polygon class="cls-5" points="637.14 31.21 638.65 31.56 635.91 30.45 637.14 31.21"/><path class="cls-5" d="M790.51,132c3-.68,6.49-1.77,9.56-2.25-3.31.61-5.9,1.23-7.6,1.54S790,131.81,790.51,132Z" transform="translate(-228.4 -98.23)"/><path class="cls-6" d="M816.11,299.27c0,19.3,1.49,34.94,14.65,34.94s27-14.94,27-34.23-13.84-35.65-27-35.65S816.11,280,816.11,299.27Z" transform="translate(-228.4 -98.23)"/><line class="cls-6" x1="603.38" y1="159.48" x2="603.38" y2="170.86"/><line class="cls-6" x1="619.01" y1="163.47" x2="612.36" y2="172.71"/><line class="cls-6" x1="628.73" y1="175.03" x2="619.04" y2="181"/><line class="cls-6" x1="634.33" y1="188.41" x2="623.23" y2="190.92"/><line class="cls-6" x1="635.88" y1="202.36" x2="624.52" y2="203.09"/><line class="cls-6" x1="633.97" y1="217.28" x2="623.02" y2="214.18"/><line class="cls-6" x1="627.59" y1="230.78" x2="618.02" y2="224.63"/><line class="cls-6" x1="615.14" y1="240.99" x2="610.35" y2="230.66"/><line class="cls-6" x1="595.11" y1="242.53" x2="598.8" y2="231.76"/><line class="cls-6" x1="582.78" y1="228.05" x2="592.77" y2="222.6"/><line class="cls-6" x1="580.04" y1="214.15" x2="591.27" y2="212.32"/><line class="cls-6" x1="579.09" y1="199.86" x2="590.46" y2="200.5"/><line class="cls-6" x1="579.48" y1="188.83" x2="590.76" y2="190.38"/><line class="cls-6" x1="580.19" y1="177.8" x2="591.47" y2="179.35"/><line class="cls-6" x1="586.17" y1="166.83" x2="595.67" y2="173.11"/><circle class="cls-6" cx="605.63" cy="184.81" r="3.18"/><path class="cls-6" d="M830.14,297.33a3.18,3.18,0,1,1-3.17-3.18A3.18,3.18,0,0,1,830.14,297.33Z" transform="translate(-228.4 -98.23)"/><circle class="cls-6" cx="613.92" cy="208.28" r="3.18"/><path class="cls-6" d="M836.76,319a3.18,3.18,0,1,1-3.18-3.18A3.17,3.17,0,0,1,836.76,319Z" transform="translate(-228.4 -98.23)"/><circle class="cls-7" cx="764.21" cy="191.27" r="24" transform="translate(-251.87 80.57) rotate(-13.14)"/><circle class="cls-8" cx="535.81" cy="88.82" r="19.78"/><ellipse class="cls-6" cx="535.81" cy="93.04" rx="39" ry="92.3"/><ellipse class="cls-6" cx="764.21" cy="191.27" rx="92.3" ry="39" transform="translate(-238.91 235.9) rotate(-24.5)"/><ellipse class="cls-6" cx="764.21" cy="191.27" rx="39" ry="92.3" transform="translate(44.85 709.12) rotate(-65.5)"/><path class="cls-9" d="M784.46,122.82a6.55,6.55,0,1,0,6.55-6.55A6.55,6.55,0,0,0,784.46,122.82Z" transform="translate(-228.4 -98.23)"/><path class="cls-9" d="M781.46,224.29a6.55,6.55,0,1,0,6.55-6.55A6.56,6.56,0,0,0,781.46,224.29Z" transform="translate(-228.4 -98.23)"/><path class="cls-10" d="M752,188.4c0,1.41.77,2.55,1.72,2.55s1.72-1.14,1.72-2.55-.77-2.54-1.72-2.54S752,187,752,188.4Z" transform="translate(-228.4 -98.23)"/><path class="cls-10" d="M773.07,188.4c0,1.41.77,2.55,1.72,2.55s1.72-1.14,1.72-2.55-.77-2.54-1.72-2.54S773.07,187,773.07,188.4Z" transform="translate(-228.4 -98.23)"/><path class="cls-10" d="M759.93,188.75a6.87,6.87,0,0,0,2,1.55,5.37,5.37,0,0,0,2.35.55,5.23,5.23,0,0,0,2.36-.51,5.88,5.88,0,0,0,2-1.59,4.23,4.23,0,0,1-1.65,2.12,4.88,4.88,0,0,1-5.31-.05A4.63,4.63,0,0,1,759.93,188.75Z" transform="translate(-228.4 -98.23)"/><line class="cls-6" x1="205.89" y1="254.87" x2="243.63" y2="293.34"/><line class="cls-6" x1="194.83" y1="313.28" x2="202.08" y2="256.68"/><line class="cls-6" x1="244.74" y1="292.37" x2="196.37" y2="321.5"/><circle class="cls-8" cx="196.79" cy="316.39" r="10.22"/><circle class="cls-11" cx="244.18" cy="292.41" r="10.22"/><circle class="cls-9" cx="431.64" cy="355.33" r="10.22" transform="translate(-279.74 -24.5) rotate(-9.22)"/><path class="cls-12" d="M516.93,434.26l-14.66-3.66C503.94,408,517.41,354.66,599.78,296c95.86-68.21,76.67-106.64,76.47-107l.52-.29,15.58,3.89c2.42,18.42-4.57,58.94-84,115.46C526.82,366.1,517.63,417.85,516.93,434.26Z" transform="translate(-228.4 -98.23)"/><path class="cls-13" d="M586.36,325c6.68-5.55,14-11.19,22-16.9s15.15-11.15,21.72-16.49c-.13-.31-.26-.63-.38-.95-1.75-4.52-3.36-9.08-5.18-13.57-7.25,6-15.44,12.36-24.73,19-6.56,4.67-12.63,9.3-18.34,13.88C583.12,314.92,584.64,320,586.36,325Z" transform="translate(-228.4 -98.23)"/><path class="cls-10" d="M682.68,210.1l-90.43-22.58a1.24,1.24,0,0,1-.9-1.51h0a1.23,1.23,0,0,1,1.51-.9l90.42,22.57a1.24,1.24,0,0,1,.9,1.51h0A1.24,1.24,0,0,1,682.68,210.1Z" transform="translate(-228.4 -98.23)"/><path class="cls-10" d="M678.74,225.85l-90.42-22.57a1.26,1.26,0,0,1-.91-1.51h0a1.25,1.25,0,0,1,1.51-.91l90.42,22.58a1.24,1.24,0,0,1,.91,1.51h0A1.24,1.24,0,0,1,678.74,225.85Z" transform="translate(-228.4 -98.23)"/><path class="cls-10" d="M670.3,240.48,584.35,219a1.21,1.21,0,0,1-.88-1.47l0-.06a1.21,1.21,0,0,1,1.47-.88l85.94,21.46a1.21,1.21,0,0,1,.88,1.47v.06A1.21,1.21,0,0,1,670.3,240.48Z" transform="translate(-228.4 -98.23)"/><path class="cls-10" d="M659.45,254.51,589.32,237a1.23,1.23,0,0,1-.9-1.5h0a1.23,1.23,0,0,1,1.5-.91l70.13,17.51a1.24,1.24,0,0,1,.9,1.51h0A1.23,1.23,0,0,1,659.45,254.51Z" transform="translate(-228.4 -98.23)"/><path class="cls-10" d="M645.1,267.9l-48.16-12a1.25,1.25,0,0,1-.91-1.51h0a1.24,1.24,0,0,1,1.51-.9l48.16,12a1.24,1.24,0,0,1,.9,1.51h0A1.24,1.24,0,0,1,645.1,267.9Z" transform="translate(-228.4 -98.23)"/><path class="cls-10" d="M632.06,281.15l-27.77-6.93a1.25,1.25,0,0,1-.91-1.51h0a1.25,1.25,0,0,1,1.51-.9l27.77,6.93a1.25,1.25,0,0,1,.91,1.51h0A1.24,1.24,0,0,1,632.06,281.15Z" transform="translate(-228.4 -98.23)"/><path class="cls-10" d="M619.89,294.85l-9.42-2.35a1.25,1.25,0,0,1-.91-1.51h0a1.25,1.25,0,0,1,1.51-.9l9.42,2.35a1.24,1.24,0,0,1,.91,1.51h0A1.24,1.24,0,0,1,619.89,294.85Z" transform="translate(-228.4 -98.23)"/><path class="cls-10" d="M620.07,311.64l-20.4-5.1a1.24,1.24,0,0,1-.91-1.5h0a1.24,1.24,0,0,1,1.51-.91l20.41,5.1a1.23,1.23,0,0,1,.9,1.5h0A1.24,1.24,0,0,1,620.07,311.64Z" transform="translate(-228.4 -98.23)"/><path class="cls-10" d="M628.84,330.57l-44.57-11.13a1.24,1.24,0,0,1-.9-1.51h0a1.23,1.23,0,0,1,1.5-.9l44.58,11.13a1.23,1.23,0,0,1,.9,1.5h0A1.25,1.25,0,0,1,628.84,330.57Z" transform="translate(-228.4 -98.23)"/><path class="cls-10" d="M635.7,349,569,332.36a1.25,1.25,0,0,1-.9-1.51h0a1.25,1.25,0,0,1,1.51-.91l66.73,16.67a1.24,1.24,0,0,1,.91,1.5h0A1.25,1.25,0,0,1,635.7,349Z" transform="translate(-228.4 -98.23)"/><rect class="cls-10" x="553.75" y="354.32" width="92.47" height="2.49" rx="1.22" transform="translate(-124.39 -232.99) rotate(14.02)"/><path class="cls-10" d="M639.4,383.42,545.55,360a1.25,1.25,0,0,1-.91-1.51h0a1.26,1.26,0,0,1,1.51-.91L640,381a1.25,1.25,0,0,1,.91,1.51h0A1.24,1.24,0,0,1,639.4,383.42Z" transform="translate(-228.4 -98.23)"/><path class="cls-10" d="M652.64,403.47,534.32,373.92a1.23,1.23,0,0,1-.9-1.5h0a1.24,1.24,0,0,1,1.51-.91l118.31,29.54a1.26,1.26,0,0,1,.91,1.51h0A1.25,1.25,0,0,1,652.64,403.47Z" transform="translate(-228.4 -98.23)"/><path class="cls-10" d="M648.71,419.22l-123.79-30.9a1.25,1.25,0,0,1-.9-1.51h0a1.25,1.25,0,0,1,1.51-.91l123.78,30.91a1.24,1.24,0,0,1,.9,1.51h0A1.23,1.23,0,0,1,648.71,419.22Z" transform="translate(-228.4 -98.23)"/><path class="cls-10" d="M644.77,435l-126.9-31.69a1.23,1.23,0,0,1-.91-1.5h0a1.24,1.24,0,0,1,1.51-.91l126.9,31.69a1.24,1.24,0,0,1,.91,1.51h0A1.24,1.24,0,0,1,644.77,435Z" transform="translate(-228.4 -98.23)"/><path class="cls-10" d="M640.84,450.74,513.93,419.05a1.24,1.24,0,0,1-.9-1.51h0a1.23,1.23,0,0,1,1.5-.9l126.91,31.68a1.26,1.26,0,0,1,.91,1.51h0A1.26,1.26,0,0,1,640.84,450.74Z" transform="translate(-228.4 -98.23)"/><path class="cls-9" d="M633.1,463.27l14.65,3.66c9.14-20.7,22.34-74.15-22.81-164.61-52.54-105.26-17.54-130.16-17.18-130.4l-.32-.5-15.58-3.89c-10.8,15.12-23.67,54.17,19.86,141.39C656.41,398.46,640.19,448.45,633.1,463.27Z" transform="translate(-228.4 -98.23)"/><polygon class="cls-6" points="299.77 215.75 257.77 191.5 257.77 143 299.77 118.75 341.77 143 341.77 191.5 299.77 215.75"/><line class="cls-6" x1="299.69" y1="118.75" x2="299.69" y2="75.96"/><circle class="cls-8" cx="299.69" cy="76.79" r="7.17"/><line class="cls-6" x1="257.5" y1="191.38" x2="222.42" y2="215.89"/><path class="cls-8" d="M455.61,319.52a7.17,7.17,0,1,0-10-1.77A7.17,7.17,0,0,0,455.61,319.52Z" transform="translate(-228.4 -98.23)"/><ellipse class="cls-11" cx="758.96" cy="330.42" rx="7.42" ry="42.37" transform="translate(20.24 883.93) rotate(-75.47)"/><circle class="cls-11" cx="740.67" cy="400.95" r="59.84" transform="translate(-239.57 682.3) rotate(-55.22)"/><path class="cls-8" d="M682.36,387.57a59.82,59.82,0,0,0,115.77,30Z" transform="translate(-228.4 -98.23)"/><path class="cls-14" d="M682.34,387.68c-1.12,4.31,23.89,14.52,55.86,22.81S797,422,798.11,417.69s-23.89-14.52-55.86-22.81S683.46,383.37,682.34,387.68Z" transform="translate(-228.4 -98.23)"/><rect class="cls-11" x="741.19" y="330.95" width="29.67" height="21.51" transform="translate(-118.45 -277.03) rotate(14.53)"/><path class="cls-11" d="M718,319.79l4.38-16.92,82,21.27L800,341.05S718.05,319.39,718,319.79Z" transform="translate(-228.4 -98.23)"/><path class="cls-15" d="M722.33,302.87c-1,4,16.5,11.94,39.15,17.81s41.84,7.42,42.87,3.46-16.5-11.94-39.15-17.82S723.36,298.91,722.33,302.87Z" transform="translate(-228.4 -98.23)"/><path class="cls-11" d="M729.57,304.66c-.61,2.34,14,8.15,32.7,13s34.28,6.87,34.89,4.54-14-8.16-32.7-13S730.17,302.33,729.57,304.66Z" transform="translate(-228.4 -98.23)"/><g class="cls-16"><path class="cls-17" d="M728.61,308.33c-.6,2.34,14,8.16,32.7,13s34.29,6.86,34.9,4.53-14-8.15-32.7-13S729.22,306,728.61,308.33Z" transform="translate(-228.4 -98.23)"/></g><path class="cls-10" d="M716.22,346.33a60.92,60.92,0,0,0-29.35,29.74,59.81,59.81,0,0,0,21.79,74.76,60.89,60.89,0,0,0,40.72,9.34A59,59,0,0,1,728,459.8a59.88,59.88,0,0,1-42.15-84.21,59.2,59.2,0,0,1,30.38-29.26Z" transform="translate(-228.4 -98.23)"/><path class="cls-10" d="M718,319.79a2.87,2.87,0,0,0,1.17,2.33,14.51,14.51,0,0,0,2.16,1.65,42.15,42.15,0,0,0,4.82,2.59,109.19,109.19,0,0,0,10.16,4.14c6.9,2.44,13.93,4.55,21,6.38s14.25,3.42,21.47,4.63a108.21,108.21,0,0,0,10.89,1.32,43.61,43.61,0,0,0,5.48.09,15.32,15.32,0,0,0,2.69-.4,2.88,2.88,0,0,0,2.16-1.47c-.26.94-1.25,1.38-2.09,1.68a15.08,15.08,0,0,1-2.73.58,42.72,42.72,0,0,1-5.54.25,104.07,104.07,0,0,1-11-.92,193.94,193.94,0,0,1-42.73-11.08A107.16,107.16,0,0,1,725.78,327a43,43,0,0,1-4.72-2.91,14.66,14.66,0,0,1-2.1-1.83A2.94,2.94,0,0,1,718,319.79Z" transform="translate(-228.4 -98.23)"/><path class="cls-10" d="M722.37,302.73a2.85,2.85,0,0,0,1.17,2.33,15.11,15.11,0,0,0,2.16,1.66,43.77,43.77,0,0,0,4.82,2.59,109.11,109.11,0,0,0,10.16,4.13c6.91,2.45,13.93,4.55,21,6.38s14.25,3.42,21.48,4.64c3.61.59,7.24,1.09,10.89,1.32a41.62,41.62,0,0,0,5.47.08,15.05,15.05,0,0,0,2.69-.4,2.86,2.86,0,0,0,2.16-1.47c-.26.94-1.25,1.38-2.09,1.69a15.13,15.13,0,0,1-2.72.57,44.67,44.67,0,0,1-5.54.26,109.83,109.83,0,0,1-11-.92,195.44,195.44,0,0,1-42.73-11.08A107.24,107.24,0,0,1,730.2,310a41.54,41.54,0,0,1-4.72-2.91,14.58,14.58,0,0,1-2.1-1.83A2.94,2.94,0,0,1,722.37,302.73Z" transform="translate(-228.4 -98.23)"/><path class="cls-14" d="M767.26,430.79a6,6,0,1,0,7.38-4.34A6.06,6.06,0,0,0,767.26,430.79Z" transform="translate(-228.4 -98.23)"/><path class="cls-14" d="M753.92,422.47a3.36,3.36,0,1,0,4.09-2.41A3.35,3.35,0,0,0,753.92,422.47Z" transform="translate(-228.4 -98.23)"/><path class="cls-14" d="M733.41,440.87a4.14,4.14,0,1,0,5.05-3A4.15,4.15,0,0,0,733.41,440.87Z" transform="translate(-228.4 -98.23)"/><path class="cls-14" d="M705.21,419.33a8.06,8.06,0,1,0,9.83-5.78A8.07,8.07,0,0,0,705.21,419.33Z" transform="translate(-228.4 -98.23)"/><path class="cls-14" d="M727.27,422.62a3.47,3.47,0,1,0,4.23-2.49A3.47,3.47,0,0,0,727.27,422.62Z" transform="translate(-228.4 -98.23)"/><path class="cls-14" d="M712.74,441.18a1.56,1.56,0,1,0,1.91-1.13A1.56,1.56,0,0,0,712.74,441.18Z" transform="translate(-228.4 -98.23)"/><path class="cls-14" d="M753.31,442.67a1.79,1.79,0,1,0,2.18-1.28A1.79,1.79,0,0,0,753.31,442.67Z" transform="translate(-228.4 -98.23)"/><path class="cls-14" d="M692.68,405.2a3.81,3.81,0,1,0,4.64-2.73A3.8,3.8,0,0,0,692.68,405.2Z" transform="translate(-228.4 -98.23)"/><path class="cls-18" d="M708.49,360.56c-3.79,5.95-2.84,13.33,2.12,16.48s12,.9,15.83-5.05,2.84-13.33-2.12-16.48S712.28,354.61,708.49,360.56Z" transform="translate(-228.4 -98.23)"/><circle class="cls-19" cx="681.42" cy="302.76" r="8.73" transform="translate(-292.43 187.24) rotate(-22.63)"/><path class="cls-19" d="M702.63,280.07a3.39,3.39,0,1,1-3.39-3.39A3.39,3.39,0,0,1,702.63,280.07Z" transform="translate(-228.4 -98.23)"/><circle class="cls-19" cx="246.65" cy="337.13" r="6.95"/><path class="cls-19" d="M493.76,406.66a3.92,3.92,0,1,1-3.92-3.92A3.92,3.92,0,0,1,493.76,406.66Z" transform="translate(-228.4 -98.23)"/><path class="cls-20" d="M635.62,377.49c40,0,74,4.78,87,11.48a47,47,0,0,1,.84-7.57c-21.6-5.08-52.94-8.28-87.83-8.28-31.53,0-60.15,2.61-81.31,6.87a33.49,33.49,0,0,1,2.13,5.92C572.7,380.86,602.07,377.49,635.62,377.49Z" transform="translate(-228.4 -98.23)"/><circle class="cls-21" cx="637.57" cy="388.96" r="66.3" transform="translate(-316.7 466.52) rotate(-45)"/><path class="cls-22" d="M660.37,326.69c-23.09,13.32-49.08,21.82-76.1,22.85A66,66,0,0,0,573.2,373c38.12-.47,76.35-12.95,108.4-33.63A66.19,66.19,0,0,0,660.37,326.69Z" transform="translate(-228.4 -98.23)"/><path class="cls-22" d="M613,450.55a66.31,66.31,0,0,0,84-32.2C671.49,434.11,642.77,444.76,613,450.55Z" transform="translate(-228.4 -98.23)"/><path class="cls-22" d="M703.82,387.08a66.08,66.08,0,0,0-4.79-23c-34.42,28.24-81.68,37.74-126.82,36a66,66,0,0,0,16.3,33.49C631.1,432.05,670.52,413.62,703.82,387.08Z" transform="translate(-228.4 -98.23)"/><path class="cls-23" d="M620.21,431.43c-20.46-2.19-38.6-15.92-48.33-33.6a66.29,66.29,0,1,0,127.87-31.89C688.86,402.46,661.18,434.78,620.21,431.43Z" transform="translate(-228.4 -98.23)"/><path class="cls-20" d="M723.45,381.4a47,47,0,0,0-.84,7.57c3.64,1.88,5.63,3.91,5.63,6,0,9.67-41.47,17.5-92.62,17.5S543,404.66,543,395c0-3.33,4.91-6.44,13.44-9.08a33.49,33.49,0,0,0-2.13-5.92c-22.57,4.53-36.66,10.93-36.66,18,0,13.75,52.82,24.9,118,24.9s118-11.15,118-24.9C753.59,391.63,742.18,385.81,723.45,381.4Z" transform="translate(-228.4 -98.23)"/><path class="cls-10" d="M726.57,385.44a32.28,32.28,0,0,1,8.25,3.16,15.69,15.69,0,0,1,3.54,2.69,7.64,7.64,0,0,1,2.12,3.91,5.55,5.55,0,0,1,0,2.26,5.23,5.23,0,0,1-1,2,14.82,14.82,0,0,1-3.39,2.94,44.41,44.41,0,0,1-8,4,118.17,118.17,0,0,1-17,5c-5.78,1.3-11.61,2.3-17.46,3.15-11.71,1.7-23.52,2.6-35.32,3.18s-23.63.69-35.45.5-23.63-.84-35.41-2a264.5,264.5,0,0,1-35-5.46,102.91,102.91,0,0,1-16.94-5.37,39.41,39.41,0,0,1-4-2,17.78,17.78,0,0,1-3.63-2.69,7.18,7.18,0,0,1-1.39-1.86,3.79,3.79,0,0,1-.38-2.37,5.23,5.23,0,0,1,1-2.11,11.81,11.81,0,0,1,1.56-1.67,22,22,0,0,1,3.67-2.57c1.3-.74,2.63-1.4,4-2a80,80,0,0,1,8.32-3.1,149.68,149.68,0,0,1,17.17-4.31,152.51,152.51,0,0,0-17.07,4.62,81.92,81.92,0,0,0-8.21,3.25,41.21,41.21,0,0,0-3.89,2.05,21.26,21.26,0,0,0-3.52,2.56,11.29,11.29,0,0,0-1.44,1.58,4.5,4.5,0,0,0-.9,1.82,4.26,4.26,0,0,0,1.61,3.57,25.4,25.4,0,0,0,7.42,4.45,101.1,101.1,0,0,0,16.84,5.14A279.37,279.37,0,0,0,587.54,415c11.74,1.09,23.52,1.65,35.31,1.85,23.58.41,47.22-.31,70.6-3.36,5.84-.78,11.66-1.72,17.42-3a119.86,119.86,0,0,0,17-4.75,44,44,0,0,0,7.93-3.76,14,14,0,0,0,3.33-2.78,4.93,4.93,0,0,0,1-1.86,5.22,5.22,0,0,0,0-2.12,7.42,7.42,0,0,0-2-3.8,15.08,15.08,0,0,0-3.44-2.71A32.07,32.07,0,0,0,726.57,385.44Z" transform="translate(-228.4 -98.23)"/><path class="cls-10" d="M613.05,376.42c0,2.83,1.55,5.13,3.47,5.13s3.47-2.3,3.47-5.13-1.56-5.13-3.47-5.13S613.05,373.59,613.05,376.42Z" transform="translate(-228.4 -98.23)"/><path class="cls-10" d="M655.48,376.42c0,2.83,1.55,5.13,3.46,5.13s3.47-2.3,3.47-5.13-1.55-5.13-3.47-5.13S655.48,373.59,655.48,376.42Z" transform="translate(-228.4 -98.23)"/><path class="cls-10" d="M629,377.11q.48.48.93,1l1,.87c.35.25.68.52,1,.76s.71.44,1.09.62a10.92,10.92,0,0,0,9.51,0,12,12,0,0,0,4-3.25,8.49,8.49,0,0,1-3.34,4.3,9.79,9.79,0,0,1-10.74-.05,13.13,13.13,0,0,1-1.1-.87c-.33-.33-.64-.68-.94-1s-.52-.76-.76-1.15S629.18,377.52,629,377.11Z" transform="translate(-228.4 -98.23)"/><path class="cls-24" d="M644.11,144.77h0a19.55,19.55,0,0,1-14.43,14.43h0a19.55,19.55,0,0,1,14.43,14.43h0a19.55,19.55,0,0,1,14.43-14.43h0a19.55,19.55,0,0,1-14.43-14.43Z" transform="translate(-228.4 -98.23)"/><path class="cls-24" d="M667.56,127.34h0a9.37,9.37,0,0,1-6.92,6.91h0a9.37,9.37,0,0,1,6.92,6.91h0a9.35,9.35,0,0,1,6.91-6.91h0a9.35,9.35,0,0,1-6.91-6.91Z" transform="translate(-228.4 -98.23)"/></g></g></g></g></svg>