<svg xmlns="http://www.w3.org/2000/svg" xmlns:xlink="http://www.w3.org/1999/xlink" viewBox="0 0 89.33 88.39"><defs><style>.cls-1{fill:none;}.cls-2,.cls-26,.cls-51{opacity:0.1;}.cls-3{fill:#c8edf5;}.cls-4{fill:#8bc63e;}.cls-5{fill:#aae252;}.cls-10,.cls-26,.cls-6{fill:#e3feff;}.cls-6{opacity:0.2;}.cls-7{fill:#5bc5dd;}.cls-8{fill:#78d9f5;}.cls-9{fill:#a2ebfc;}.cls-11{fill:#f1f7ff;opacity:0.77;}.cls-12{opacity:0.83;}.cls-13{fill:#eff6ff;opacity:0.81;}.cls-14{opacity:0.67;}.cls-15{fill:#ecf5ff;opacity:0.85;}.cls-16{opacity:0.5;}.cls-17{fill:#eaf4ff;opacity:0.89;}.cls-18{opacity:0.33;}.cls-19,.cls-65{fill:#e8f3fe;}.cls-19{opacity:0.92;}.cls-20{opacity:0.17;}.cls-21{fill:#e5f2fe;opacity:0.96;}.cls-22{opacity:0;}.cls-23{fill:#e3f1fe;}.cls-24{fill:#e52e81;}.cls-25{fill:#ff4994;}.cls-27{fill:#abe4ed;}.cls-28{isolation:isolate;}.cls-29{clip-path:url(#clip-path);}.cls-30{fill:#858e94;}.cls-31{fill:#81898f;}.cls-32{fill:#7c848a;}.cls-33{fill:#787f85;}.cls-34{fill:#7b8388;}.cls-35{clip-path:url(#clip-path-2);}.cls-36{clip-path:url(#clip-path-3);}.cls-37{clip-path:url(#clip-path-4);}.cls-38{fill:#357280;}.cls-39{fill:#336e7c;}.cls-40{fill:#899298;}.cls-41{clip-path:url(#clip-path-5);}.cls-42{clip-path:url(#clip-path-6);}.cls-43{fill:#2f6673;}.cls-44{fill:#367584;}.cls-45{fill:#316976;}.cls-46{fill:#57bcd3;}.cls-47{clip-path:url(#clip-path-7);}.cls-48{fill:#316a77;}.cls-49{fill:#ccf2e8;}.cls-50{fill:#abd9ce;}.cls-52{fill:#ffaa83;}.cls-53{fill:#ffe9fe;}.cls-54{fill:#e3b1e5;}.cls-55{fill:#3213b7;}.cls-56{fill:#471bce;}.cls-57{fill:#f79f7c;}.cls-58{fill:#341c09;}.cls-59{fill:#f4d3f4;}.cls-60{fill:#fff;opacity:0.55;}.cls-61{fill:#fafdff;opacity:0.63;}.cls-62{fill:#f6faff;opacity:0.7;}.cls-63{fill:#f1f8ff;opacity:0.78;}.cls-64{fill:#ecf6fe;opacity:0.85;}.cls-65{opacity:0.93;}</style><clipPath id="clip-path"><path class="cls-1" d="M68.75,40a1.7,1.7,0,0,0,.56-2l.47,0a1.7,1.7,0,0,1-.55,2Z"/></clipPath><clipPath id="clip-path-2"><path class="cls-1" d="M67.12,34.46l.47,0a1.23,1.23,0,0,1,1.19.9l-.47,0A1.24,1.24,0,0,0,67.12,34.46Z"/></clipPath><clipPath id="clip-path-3"><path class="cls-1" d="M67.45,33.46l.47,0a1,1,0,0,0-.43.13l-.47,0A1.13,1.13,0,0,1,67.45,33.46Z"/></clipPath><clipPath id="clip-path-4"><path class="cls-1" d="M67.12,34.46l.47,0a1,1,0,0,0-.43.13l-.47,0A1,1,0,0,1,67.12,34.46Z"/></clipPath><clipPath id="clip-path-5"><path class="cls-1" d="M64.26,42.61h0l.27,0h.18a.89.89,0,0,1-.43.13l-.47,0A1,1,0,0,0,64.26,42.61Z"/></clipPath><clipPath id="clip-path-6"><path class="cls-1" d="M64.3,42.71l-.47,0a1.24,1.24,0,0,1-1.19-.91l.47,0A1.23,1.23,0,0,0,64.3,42.71Z"/></clipPath><clipPath id="clip-path-7"><path class="cls-1" d="M62.11,39.18l-.47,0a1.68,1.68,0,0,1,.55-2l.48,0A1.66,1.66,0,0,0,62.11,39.18Z"/></clipPath></defs><title>chemistry-glass</title><g id="Layer_2" data-name="Layer 2"><g id="Layer_1-2" data-name="Layer 1"><path class="cls-2" d="M71.58,48.11c-8.95-5.2-22.88-5.76-33-1.69-10.13-2.21-22-1-30.2,3.77C-2.76,56.63-2.81,67.08,8.29,73.53s29.13,6.45,40.3,0l.22-.14c8,.8,16.48-.58,22.66-4.15C81.57,63.41,81.62,53.94,71.58,48.11Z"/><path class="cls-3" d="M51.14,59.46h0l-.06-.12A8.86,8.86,0,0,0,50,56.88L34.78,23.52V4.39h-12V23.52L7.69,57a8.59,8.59,0,0,0-1,2.22l0,.09h0c-1.09,4,1,8.24,6.35,11.33,8.83,5.1,23.1,5.09,31.87,0C50.12,67.58,52.19,63.41,51.14,59.46Z"/><path class="cls-4" d="M49.14,60.56h0v0A8.41,8.41,0,0,0,46.88,56L40.14,42.28H17.67L10.91,55.92A8.46,8.46,0,0,0,8.68,60.4l-.08.16h.07c-.39,3.28,1.58,6.64,5.93,9.16,8,4.59,20.81,4.59,28.71,0C47.63,67.21,49.56,63.84,49.14,60.56Z"/><path class="cls-5" d="M36.82,37.68c4.41,2.54,4.43,6.66.06,9.2s-11.49,2.54-15.89,0-4.42-6.66,0-9.2S32.42,35.14,36.82,37.68Z"/><path class="cls-2" d="M51.14,59.46h0l-.06-.12A8.86,8.86,0,0,0,50,56.88L44.35,44.52a41,41,0,0,1-23.5,29c8.07,1.8,17.55.82,24-2.94C50.12,67.58,52.19,63.41,51.14,59.46Z"/><path class="cls-6" d="M22.73,23.52,7.69,57a9.68,9.68,0,0,0-.61,1.14,29.51,29.51,0,0,0,3.78.25A29.19,29.19,0,0,0,39.62,34.14L34.78,23.52V7.12c-2.27-3.23-5.17-.64-8.52-2.73H22.73Z"/><path class="cls-7" d="M33.63,3.81c2.73,1.57,2.74,4.12,0,5.69a10.81,10.81,0,0,1-9.84,0c-2.73-1.57-2.74-4.12,0-5.7A10.82,10.82,0,0,1,33.63,3.81Z"/><rect class="cls-7" x="21.78" y="4.1" width="13.91" height="2.71"/><path class="cls-8" d="M33.63,1.18c2.73,1.58,2.74,4.12,0,5.7a10.87,10.87,0,0,1-9.84,0c-2.73-1.58-2.74-4.13,0-5.7A10.85,10.85,0,0,1,33.63,1.18Z"/><path class="cls-9" d="M33,1.54c2.38,1.38,2.39,3.6,0,5a9.47,9.47,0,0,1-8.58,0c-2.39-1.38-2.4-3.61,0-5A9.47,9.47,0,0,1,33,1.54Z"/><path class="cls-10" d="M24.49,6.52a9.47,9.47,0,0,0,8.58,0,3.32,3.32,0,0,0,1.71-2A4.4,4.4,0,0,0,33.3,3.17a10.09,10.09,0,0,0-9.17,0,4.38,4.38,0,0,0-1.4,1.22A3.29,3.29,0,0,0,24.49,6.52Z"/><path class="cls-11" d="M45.27,52.39c9.09,5.25,9.14,13.76.11,19s-23.74,5.24-32.83,0-9.14-13.77-.11-19S36.17,47.14,45.27,52.39Z"/><g class="cls-12"><path class="cls-13" d="M45.5,47c9.21,5.32,9.26,14,.11,19.28s-24.07,5.32-33.29,0-9.27-14-.11-19.28S36.27,41.72,45.5,47Z"/></g><g class="cls-14"><path class="cls-15" d="M45.72,41.68c9.35,5.4,9.4,14.15.12,19.55s-24.4,5.4-33.75,0S2.69,47.08,12,41.68,36.38,36.29,45.72,41.68Z"/></g><g class="cls-16"><path class="cls-17" d="M46,36.33c9.48,5.47,9.53,14.34.12,19.81s-24.73,5.47-34.21,0S2.34,41.8,11.75,36.33,36.48,30.86,46,36.33Z"/></g><g class="cls-18"><path class="cls-19" d="M46.18,31c9.6,5.54,9.65,14.53.12,20.08s-25.06,5.54-34.67,0S2,36.52,11.52,31,36.58,25.43,46.18,31Z"/></g><g class="cls-20"><path class="cls-21" d="M46.41,25.62c9.73,5.62,9.78,14.73.12,20.35s-25.4,5.61-35.13,0-9.77-14.73-.11-20.35S36.68,20,46.41,25.62Z"/></g><g class="cls-22"><path class="cls-23" d="M46.64,20.27c9.85,5.69,9.91,14.92.12,20.61s-25.73,5.69-35.58,0S1.27,26,11.06,20.27,36.78,14.58,46.64,20.27Z"/></g><path class="cls-3" d="M75.67,54.82,73.76,33H52.63l-2.1,22.47c-.39,2.15.83,4.37,3.68,6,5,2.88,13.05,2.88,18,0C75.31,59.63,76.46,57.14,75.67,54.82Z"/><path class="cls-24" d="M70.77,50.67c4.22,2.44,4.24,6.39,0,8.82a16.76,16.76,0,0,1-15.23,0c-4.22-2.43-4.24-6.38-.05-8.82A16.76,16.76,0,0,1,70.77,50.67Z"/><rect class="cls-24" x="52.41" y="46.89" width="21.54" height="8.18"/><path class="cls-25" d="M70.77,42.48c4.22,2.44,4.24,6.39,0,8.83a16.82,16.82,0,0,1-15.23,0c-4.22-2.44-4.24-6.39-.05-8.82A16.79,16.79,0,0,1,70.77,42.48Z"/><path class="cls-2" d="M75,47.2A18.54,18.54,0,0,1,51.48,59.08a8.71,8.71,0,0,0,2.73,2.35c5,2.88,13.05,2.88,18,0,3.1-1.8,4.25-4.29,3.46-6.61Z"/><path class="cls-26" d="M52.63,33,50.74,53.12A17.77,17.77,0,0,0,74.44,40.7L73.76,33Z"/><path class="cls-27" d="M70.64,29c4.14,2.39,4.16,6.27,0,8.67a16.48,16.48,0,0,1-15,0c-4.15-2.39-4.17-6.28-.06-8.67A16.52,16.52,0,0,1,70.64,29Z"/><path class="cls-8" d="M69.3,29.81c3.4,2,3.42,5.14,0,7.11a13.56,13.56,0,0,1-12.28,0c-3.4-2-3.42-5.15,0-7.11A13.5,13.5,0,0,1,69.3,29.81Z"/><polygon class="cls-8" points="51.94 18.69 54.5 33.36 71.83 32.95 74.42 18.69 51.94 18.69"/><path class="cls-27" d="M71.11,14.09c4.4,2.54,4.42,6.67,0,9.21s-11.49,2.54-15.89,0-4.43-6.67-.06-9.21A17.53,17.53,0,0,1,71.11,14.09Z"/><path class="cls-10" d="M70,14.68c3.81,2.2,3.83,5.76,0,8a15.15,15.15,0,0,1-13.75,0c-3.81-2.19-3.83-5.76,0-8A15.15,15.15,0,0,1,70,14.68Z"/><path class="cls-3" d="M56.3,22.64a15.15,15.15,0,0,0,13.75,0,5.85,5.85,0,0,0,2.48-2.49A6,6,0,0,0,70,17.62a15.15,15.15,0,0,0-13.75,0,6,6,0,0,0-2.48,2.49A5.89,5.89,0,0,0,56.3,22.64Z"/><g class="cls-28"><g class="cls-29"><g class="cls-28"><path class="cls-30" d="M69.23,40l-.48,0a1.21,1.21,0,0,0,.48-.52l.48,0a1.34,1.34,0,0,1-.48.52Z"/><path class="cls-31" d="M69.71,39.47l-.48,0a1.64,1.64,0,0,0,.17-.5l.48,0a2,2,0,0,1-.17.51Z"/><path class="cls-32" d="M69.88,39l-.48,0a1.86,1.86,0,0,0,0-.47l.47,0a2.33,2.33,0,0,1,0,.46Z"/><path class="cls-33" d="M69.9,38.5l-.47,0a1.69,1.69,0,0,0-.12-.54l.47,0a1.69,1.69,0,0,1,.12.54Z"/></g></g></g><polygon class="cls-34" points="69.78 37.96 69.31 37.99 68.31 35.36 68.78 35.33 69.78 37.96"/><g class="cls-28"><g class="cls-35"><g class="cls-28"><path class="cls-33" d="M68.78,35.33l-.47,0a1.24,1.24,0,0,0-1.19-.9l.47,0a1.23,1.23,0,0,1,1.19.9Z"/></g></g></g><g class="cls-28"><g class="cls-36"><g class="cls-28"><path class="cls-30" d="M67.49,33.56l-.47,0,.13-.06.47,0-.13.06Z"/><path class="cls-31" d="M67.62,33.5l-.47,0a1.09,1.09,0,0,1,.3-.07l.47,0a1.09,1.09,0,0,0-.3.07Z"/></g></g></g><g class="cls-28"><g class="cls-37"><g class="cls-28"><path class="cls-38" d="M67.16,34.56l-.47,0,.13-.06.47,0-.13.07Z"/><path class="cls-39" d="M67.29,34.49l-.47,0a.82.82,0,0,1,.3-.07l.47,0a1.07,1.07,0,0,0-.3.06Z"/></g></g></g><polygon class="cls-40" points="64.73 42.58 64.26 42.61 68.75 40.02 69.23 39.98 64.73 42.58"/><g class="cls-28"><g class="cls-41"><g class="cls-28"><path class="cls-31" d="M64.3,42.71l-.47,0a1,1,0,0,0,.29-.07l.48,0a.8.8,0,0,1-.3.06Z"/><path class="cls-30" d="M64.6,42.65l-.48,0,.14-.07.47,0-.13.07Z"/></g></g></g><g class="cls-28"><g class="cls-42"><g class="cls-28"><path class="cls-43" d="M64.3,42.71l-.47,0a1.24,1.24,0,0,1-1.19-.91l.47,0a1.23,1.23,0,0,0,1.19.9Z"/></g></g></g><polygon class="cls-44" points="62.67 37.16 62.19 37.19 66.69 34.59 67.17 34.56 62.67 37.16"/><polygon class="cls-45" points="63.11 41.81 62.63 41.84 61.64 39.22 62.11 39.18 63.11 41.81"/><path class="cls-46" d="M67.16,34.56a1.14,1.14,0,0,1,1.62.77l1,2.63a1.7,1.7,0,0,1-.55,2l-4.5,2.59a1.15,1.15,0,0,1-1.62-.77l-1-2.63a1.66,1.66,0,0,1,.56-2Z"/><g class="cls-28"><g class="cls-47"><g class="cls-28"><path class="cls-43" d="M62.11,39.18l-.47,0a1.81,1.81,0,0,1-.12-.55l.47,0a1.69,1.69,0,0,0,.12.54Z"/><path class="cls-48" d="M62,38.64l-.47,0a2.47,2.47,0,0,1,0-.47l.47,0a2.43,2.43,0,0,0,0,.47Z"/><path class="cls-39" d="M62,38.17l-.47,0a1.68,1.68,0,0,1,.17-.49l.47,0a2,2,0,0,0-.17.49Z"/><path class="cls-38" d="M62.18,37.68l-.47,0a1.34,1.34,0,0,1,.48-.52l.48,0a1.23,1.23,0,0,0-.49.52Z"/></g></g></g><path class="cls-49" d="M67.49,33.56a1.16,1.16,0,0,1,1.63.78l1.49,3.94a1.7,1.7,0,0,1-.56,2l-5.62,3.24a1.14,1.14,0,0,1-1.62-.77l-1.49-3.94a1.69,1.69,0,0,1,.55-2ZM69.78,38l-1-2.63a1.14,1.14,0,0,0-1.62-.77l-4.49,2.6a1.66,1.66,0,0,0-.56,2l1,2.63a1.15,1.15,0,0,0,1.62.77L69.23,40a1.7,1.7,0,0,0,.55-2Z"/><path class="cls-50" d="M62.81,42.78l-1.49-3.94a1.87,1.87,0,0,1-.12-.52v0a1.85,1.85,0,0,1,0-.41s0-.06,0-.08a1.63,1.63,0,0,1,.15-.44.43.43,0,0,1,0-.07,1.43,1.43,0,0,1,.14-.2l.06-.07a1.16,1.16,0,0,1,.25-.2l5.62-3.25-.47,0L61.4,36.84a1.16,1.16,0,0,0-.25.2l-.06.07a1.43,1.43,0,0,0-.14.2l0,0s0,0,0,0a1.63,1.63,0,0,0-.15.44s0,0,0,0v0a1.85,1.85,0,0,0,0,.41h0a.08.08,0,0,1,0,0,2.21,2.21,0,0,0,.11.51l1.5,3.94a1.25,1.25,0,0,0,1.19.91l.47,0A1.26,1.26,0,0,1,62.81,42.78Z"/><g class="cls-51"><path d="M84.9,75.64c5,2.92,5.08,7.65,0,10.57s-13.18,2.91-18.23,0-5.08-7.65-.06-10.57S79.85,72.72,84.9,75.64Z"/></g><path class="cls-52" d="M78.25,54S77,56,75.78,55.74s-1.4-.51-.88-.84,1.91-1.28,1.65-1.37-.85,0-.79-.21,1.81-.59,1.81-.59l1.22.59Z"/><path class="cls-53" d="M79,79.28c-.08,0-4-.12-3.08,1.33a2.14,2.14,0,0,0,1.91,1.12c.58,0,1.64-.32,1.9-.15s1.57,1.08,2.33.16a1.46,1.46,0,0,0,.15-1.06A7.86,7.86,0,0,0,79,79.28Z"/><path class="cls-54" d="M75.94,80.61a2.14,2.14,0,0,0,1.91,1.12c.58,0,1.64-.32,1.9-.15s1.57,1.08,2.33.16a1.06,1.06,0,0,0,.17-.52,1.78,1.78,0,0,1-2.17.31,2,2,0,0,0-1.5-.33,2.86,2.86,0,0,1-2.15-.56.92.92,0,0,1-.26-.94A.59.59,0,0,0,75.94,80.61Z"/><path class="cls-55" d="M79.5,47S84.18,53,81.81,60c-.51,1.51-1.53,4.74-1.2,6.32.41,1.91,1,1.37,1.44,7.67.39,5.56.32,4.35.45,6.61,0,.64-2.33,1.31-2.69.32-1.56-4.36-3.72-13.5-3.28-18.53s.72-9.75.72-9.75S78,48.48,79.5,47Z"/><path class="cls-53" d="M71.7,81.88c-.08,0-4.08-.89-3.42.78a2.33,2.33,0,0,0,1.8,1.53c.59.13,1.75,0,2,.22s1.45,1.42,2.39.62A1.48,1.48,0,0,0,74.79,84,8.51,8.51,0,0,0,71.7,81.88Z"/><path class="cls-54" d="M68.28,82.66a2.33,2.33,0,0,0,1.8,1.53c.59.13,1.75,0,2,.22s1.45,1.42,2.39.62a1.22,1.22,0,0,0,.27-.5c-.67.69-2,.22-2.3-.11a2.18,2.18,0,0,0-1.5-.64,3,3,0,0,1-2.15-1,1,1,0,0,1-.1-1A.59.59,0,0,0,68.28,82.66Z"/><path class="cls-56" d="M79.83,52.81s2.66,2.82-2.1,10c0,0-2.3,5.08-2.22,6.71.1,2,.88,2.13.11,8.49-.67,5.53-.39,5.65-.82,6.11s-2.7,0-2.78-1c-.42-5.41-1.27-13.36-.78-18.39.56-5.78,1-10.53,1-10.53S78.09,53.93,79.83,52.81Z"/><path class="cls-55" d="M71.24,64.73c-.49,5,.36,13,.78,18.39,0,.39.39.69.85.89-.05-1.87-.34-12.89-.35-15.46,0-2.82-.32-8.07,1.55-9.61a10.06,10.06,0,0,0,2.7-4.3l-.31-.87c-2.09.33-4.25.43-4.25.43S71.8,59,71.24,64.73Z"/><path class="cls-54" d="M79.06,40.24s-.24-2.19,1.87-2.22,1.74,4.62,1.74,4.62a32.79,32.79,0,0,1-.51,5.29c-.54,1.67-3.5,6-3.5,6A2.65,2.65,0,0,1,77,52.66S79.29,48.59,79.5,47,79,40.61,79.06,40.24Z"/><path class="cls-54" d="M78.66,53.91s3-4.31,3.5-6a32.79,32.79,0,0,0,.51-5.29s.8-4.5-1.73-4.7a1.27,1.27,0,0,0-1.44.68c1.63.1,1.79,1.18,1.64,3.6-.17,2.63.18,3.38,0,5.62s-2.52,4.43-2.89,5c-.24.35-.81-.07-1.17-.41l-.15.27A2.65,2.65,0,0,0,78.66,53.91Z"/><path class="cls-52" d="M75.57,36.22a3.56,3.56,0,0,1-.26,2.85c-.44.61,4,1.57,3.54-.23a4.22,4.22,0,0,1,1.34-4Z"/><path class="cls-57" d="M75.76,37.47a7.6,7.6,0,0,0,1.72-.62l.07,0L78,37l.15.06s-.23,1.84-2.58,1.63A3.87,3.87,0,0,0,75.76,37.47Z"/><path class="cls-52" d="M75.53,29.18s-.72,1.17-1.69,3.14c-.85,1.74-1,3.75.12,4.66.51.43,4.19,1.29,5.85-3C80.87,31.28,79,27.7,75.53,29.18Z"/><path class="cls-58" d="M73.86,28.83a1.77,1.77,0,0,0,.76,2.49c1.62.71.37,2.85.92,3.27.3.24.29-.18,1.1-.76.32-.23.72-.09.79.83s-1.32,2.24-.92,2.55,2.43-.57,3-.93a4.36,4.36,0,0,0,1-6.46C78.69,27.66,74.62,28.17,73.86,28.83Z"/><path class="cls-53" d="M82.65,54.12a10.26,10.26,0,0,0-.22-1.39s0,0,0-.06a14.88,14.88,0,0,0-.63-2.31h0c-.59-1.62-1.1-2.26-.84-4.31.13-1.05,1.07-4.16.95-6.47s-2.61-2.28-6.63-.66S71.83,43,71.83,43c.5,2.47,1.46,2.87.67,9.06-.08.32-1.85,7.54-2,10.4-.2,4.34,11.11,3.5,11.73.5A26.63,26.63,0,0,0,82.65,54.12Z"/><path class="cls-52" d="M62.73,43.22a2.45,2.45,0,0,1-1-.66c-.61-.57-.52-.55-.7-1.05a1.49,1.49,0,0,1,.19-1.34c.25-.22.51,0,1,.95s1.5,1,1.65,1.14S63,43.32,62.73,43.22Z"/><path class="cls-52" d="M62.69,42.25c-.13,0,.06-.52-.48-1.51-.41-.76.5,0,.6.18s1,1.37,1,1.37A2.72,2.72,0,0,1,62.69,42.25Z"/><path class="cls-59" d="M75.23,42.29a2,2,0,0,0-1.71-2.12c-.93-.08-5.34,4.86-6,4.88a37.25,37.25,0,0,1-3.79-3.22s.17,1-1.24,1.51c0,0,3.62,5.11,5.06,4.68C70,47.29,75.06,44.57,75.23,42.29Z"/><g class="cls-16"><path class="cls-60" d="M84.9,75.64c4.58,2.65,4.61,6.94,0,9.59s-12,2.64-16.54,0-4.61-6.94-.06-9.59S80.31,73,84.9,75.64Z"/><g class="cls-12"><path class="cls-61" d="M85,70.81c4.65,2.69,4.68,7,.06,9.72s-12.13,2.68-16.78,0-4.67-7-.05-9.72S80.37,68.13,85,70.81Z"/></g><g class="cls-14"><path class="cls-62" d="M85.13,66c4.71,2.72,4.74,7.14.05,9.86s-12.29,2.72-17,0-4.73-7.14,0-9.86S80.42,63.26,85.13,66Z"/></g><g class="cls-16"><path class="cls-63" d="M85.24,61.15c4.78,2.76,4.81,7.23.06,10s-12.46,2.76-17.24,0-4.8-7.23-.06-10S80.47,58.4,85.24,61.15Z"/></g><g class="cls-18"><path class="cls-64" d="M85.36,56.32c4.84,2.8,4.86,7.33.06,10.13s-12.64,2.79-17.48,0-4.86-7.33,0-10.13S80.52,53.53,85.36,56.32Z"/></g><g class="cls-20"><path class="cls-65" d="M85.48,51.5c4.9,2.83,4.92,7.42,0,10.25s-12.8,2.83-17.7,0-4.93-7.42-.06-10.25S80.57,48.67,85.48,51.5Z"/></g><g class="cls-22"><path class="cls-23" d="M85.59,46.67c5,2.87,5,7.52.06,10.39s-13,2.87-17.94,0-5-7.52-.06-10.39S80.62,43.8,85.59,46.67Z"/></g></g></g></g></svg>