<svg xmlns="http://www.w3.org/2000/svg" xmlns:xlink="http://www.w3.org/1999/xlink" viewBox="0 0 465.45 413.4"><defs><style>.cls-1{isolation:isolate;}.cls-2{fill:url(#linear-gradient);}.cls-3{fill:none;stroke:#4685ff;stroke-miterlimit:10;}.cls-38,.cls-39,.cls-4,.cls-5,.cls-6,.cls-7,.cls-78,.cls-8,.cls-80,.cls-82,.cls-84,.cls-86,.cls-88,.cls-90,.cls-92{opacity:0.48;}.cls-103,.cls-105,.cls-107,.cls-115,.cls-116,.cls-118,.cls-12,.cls-122,.cls-128,.cls-131,.cls-138,.cls-142,.cls-146,.cls-147,.cls-149,.cls-150,.cls-151,.cls-153,.cls-16,.cls-161,.cls-163,.cls-168,.cls-4,.cls-44,.cls-45,.cls-46,.cls-47,.cls-48,.cls-49,.cls-5,.cls-50,.cls-51,.cls-54,.cls-55,.cls-59,.cls-6,.cls-60,.cls-66,.cls-68,.cls-69,.cls-7,.cls-72,.cls-74,.cls-76,.cls-78,.cls-8,.cls-80,.cls-82,.cls-84,.cls-86,.cls-88,.cls-90,.cls-92,.cls-97{mix-blend-mode:multiply;}.cls-4{fill:url(#radial-gradient);}.cls-5{fill:url(#radial-gradient-2);}.cls-6{fill:url(#radial-gradient-3);}.cls-7{fill:url(#radial-gradient-4);}.cls-8{fill:url(#radial-gradient-5);}.cls-9{fill:url(#linear-gradient-2);}.cls-10{fill:url(#linear-gradient-3);}.cls-11{fill:url(#linear-gradient-4);}.cls-13{fill:#39a45c;}.cls-14{fill:url(#linear-gradient-5);}.cls-15{fill:url(#linear-gradient-6);}.cls-16{opacity:0.25;}.cls-17{fill:url(#linear-gradient-7);}.cls-18{fill:url(#linear-gradient-8);}.cls-19{fill:url(#linear-gradient-9);}.cls-20{fill:url(#linear-gradient-10);}.cls-21,.cls-22,.cls-23,.cls-24,.cls-29,.cls-30,.cls-31,.cls-32,.cls-33,.cls-34,.cls-35,.cls-36,.cls-37,.cls-52{opacity:0.36;}.cls-21{fill:url(#linear-gradient-11);}.cls-22{fill:url(#linear-gradient-12);}.cls-23{fill:url(#linear-gradient-13);}.cls-24{fill:url(#linear-gradient-14);}.cls-25{fill:url(#linear-gradient-15);}.cls-26{opacity:0.27;}.cls-100,.cls-101,.cls-155,.cls-165,.cls-26,.cls-29,.cls-30,.cls-31,.cls-32,.cls-33,.cls-34,.cls-35,.cls-36,.cls-37,.cls-38,.cls-39,.cls-42,.cls-43,.cls-93,.cls-94,.cls-95,.cls-96{mix-blend-mode:screen;}.cls-27{fill:url(#linear-gradient-16);}.cls-28{fill:url(#linear-gradient-17);}.cls-29{fill:url(#linear-gradient-18);}.cls-30{fill:url(#linear-gradient-19);}.cls-31{fill:url(#linear-gradient-20);}.cls-32{fill:url(#linear-gradient-21);}.cls-33{fill:url(#linear-gradient-22);}.cls-34{fill:url(#linear-gradient-23);}.cls-35{fill:url(#linear-gradient-24);}.cls-36{fill:url(#linear-gradient-25);}.cls-37{fill:url(#linear-gradient-26);}.cls-38{fill:url(#linear-gradient-27);}.cls-39{fill:url(#linear-gradient-28);}.cls-40{opacity:0.73;fill:url(#linear-gradient-29);}.cls-41{fill:url(#linear-gradient-30);}.cls-146,.cls-147,.cls-151,.cls-42{opacity:0.45;}.cls-42{fill:url(#linear-gradient-31);}.cls-44{fill:url(#linear-gradient-32);}.cls-45{fill:url(#linear-gradient-33);}.cls-46{fill:url(#linear-gradient-34);}.cls-47{fill:url(#linear-gradient-35);}.cls-48{fill:url(#linear-gradient-36);}.cls-49{fill:url(#linear-gradient-37);}.cls-50{fill:url(#linear-gradient-38);}.cls-51{fill:url(#linear-gradient-39);}.cls-52{fill:url(#linear-gradient-40);}.cls-53{fill:url(#linear-gradient-41);}.cls-54{fill:url(#linear-gradient-42);}.cls-55{fill:url(#linear-gradient-43);}.cls-56{fill:url(#linear-gradient-44);}.cls-57{fill:url(#linear-gradient-45);}.cls-58{fill:url(#linear-gradient-46);}.cls-59{fill:url(#linear-gradient-47);}.cls-60{fill:url(#linear-gradient-48);}.cls-61{fill:url(#linear-gradient-49);}.cls-62{fill:url(#linear-gradient-50);}.cls-63{fill:url(#linear-gradient-51);}.cls-64{opacity:0.76;fill:url(#linear-gradient-52);}.cls-65{fill:url(#linear-gradient-53);}.cls-66,.cls-72,.cls-74,.cls-76{opacity:0.62;}.cls-66{fill:url(#linear-gradient-54);}.cls-67{fill:url(#linear-gradient-55);}.cls-68{opacity:0.17;fill:url(#linear-gradient-56);}.cls-142,.cls-69{opacity:0.79;}.cls-69{fill:url(#linear-gradient-57);}.cls-70{fill:url(#linear-gradient-58);}.cls-71{fill:url(#linear-gradient-59);}.cls-72{fill:url(#linear-gradient-60);}.cls-73{fill:url(#linear-gradient-61);}.cls-74{fill:url(#linear-gradient-62);}.cls-75{fill:url(#linear-gradient-63);}.cls-76{fill:url(#linear-gradient-64);}.cls-77{fill:url(#radial-gradient-6);}.cls-78{fill:url(#radial-gradient-7);}.cls-79{fill:url(#radial-gradient-8);}.cls-80{fill:url(#radial-gradient-9);}.cls-81{fill:url(#radial-gradient-10);}.cls-82{fill:url(#radial-gradient-11);}.cls-83{fill:url(#radial-gradient-12);}.cls-84{fill:url(#radial-gradient-13);}.cls-85{fill:url(#radial-gradient-14);}.cls-86{fill:url(#radial-gradient-15);}.cls-87{fill:url(#radial-gradient-16);}.cls-88{fill:url(#radial-gradient-17);}.cls-89{fill:url(#radial-gradient-18);}.cls-90{fill:url(#radial-gradient-19);}.cls-91{fill:url(#radial-gradient-20);}.cls-92{fill:url(#radial-gradient-21);}.cls-93,.cls-94{opacity:0.43;}.cls-93{fill:url(#linear-gradient-65);}.cls-94{fill:url(#linear-gradient-66);}.cls-95,.cls-96{opacity:0.6;}.cls-95{fill:url(#linear-gradient-67);}.cls-96{fill:url(#linear-gradient-68);}.cls-97{fill:url(#linear-gradient-69);}.cls-98{fill:#fac5af;}.cls-99{fill:url(#linear-gradient-70);}.cls-100,.cls-101{opacity:0.52;}.cls-100{fill:url(#linear-gradient-71);}.cls-101{fill:url(#linear-gradient-72);}.cls-102{fill:url(#linear-gradient-73);}.cls-103{fill:url(#linear-gradient-74);}.cls-104{fill:url(#linear-gradient-75);}.cls-105{fill:url(#linear-gradient-76);}.cls-106{fill:url(#linear-gradient-77);}.cls-107{fill:url(#linear-gradient-78);}.cls-108{fill:url(#linear-gradient-79);}.cls-109{fill:url(#linear-gradient-80);}.cls-110{fill:url(#linear-gradient-81);}.cls-111{fill:url(#linear-gradient-82);}.cls-112{fill:url(#linear-gradient-83);}.cls-113{fill:url(#linear-gradient-84);}.cls-114{fill:url(#linear-gradient-85);}.cls-115{fill:url(#linear-gradient-86);}.cls-116{fill:url(#linear-gradient-87);}.cls-117{fill:url(#linear-gradient-88);}.cls-118{fill:url(#linear-gradient-89);}.cls-119{fill:url(#linear-gradient-90);}.cls-120{fill:url(#linear-gradient-91);}.cls-121{fill:url(#linear-gradient-92);}.cls-122,.cls-169{fill:#afb0f6;}.cls-122{opacity:0.49;}.cls-123{fill:url(#radial-gradient-22);}.cls-124{fill:url(#linear-gradient-93);}.cls-125{fill:url(#radial-gradient-23);}.cls-126{fill:url(#linear-gradient-94);}.cls-127{fill:url(#linear-gradient-95);}.cls-128{fill:url(#linear-gradient-96);}.cls-129{fill:url(#linear-gradient-97);}.cls-130{fill:url(#linear-gradient-98);}.cls-131{fill:url(#linear-gradient-99);}.cls-132{fill:url(#radial-gradient-24);}.cls-133{fill:url(#radial-gradient-25);}.cls-134{fill:url(#linear-gradient-100);}.cls-135{fill:url(#radial-gradient-26);}.cls-136{fill:url(#radial-gradient-27);}.cls-137{fill:url(#linear-gradient-101);}.cls-138{fill:url(#radial-gradient-28);}.cls-139{fill:url(#linear-gradient-102);}.cls-140{fill:url(#linear-gradient-103);}.cls-141{fill:url(#radial-gradient-29);}.cls-142{fill:url(#radial-gradient-30);}.cls-143{fill:url(#radial-gradient-31);}.cls-144{fill:url(#linear-gradient-104);}.cls-145{fill:url(#linear-gradient-105);}.cls-146{fill:url(#linear-gradient-106);}.cls-147{fill:url(#linear-gradient-107);}.cls-148,.cls-153{fill:#000076;}.cls-149,.cls-152{fill:#f5f8fe;}.cls-149{opacity:0.16;}.cls-150{opacity:0.53;}.cls-153{opacity:0.41;}.cls-154,.cls-155{fill:#534fba;}.cls-155{opacity:0.31;}.cls-156{fill:url(#linear-gradient-108);}.cls-157{fill:url(#linear-gradient-109);}.cls-158{fill:url(#linear-gradient-110);}.cls-159{fill:url(#linear-gradient-111);}.cls-160{fill:url(#linear-gradient-112);}.cls-161{opacity:0.67;}.cls-162{fill:url(#linear-gradient-113);}.cls-163{fill:url(#linear-gradient-114);}.cls-164{fill:url(#linear-gradient-115);}.cls-165{opacity:0.39;}.cls-166{fill:url(#linear-gradient-116);}.cls-167{fill:url(#linear-gradient-117);}.cls-168{opacity:0.5;}</style><linearGradient id="linear-gradient" x1="266.34" y1="20.31" x2="242.24" y2="483.07" gradientUnits="userSpaceOnUse"><stop offset="0" stop-color="#a4e9fd"/><stop offset="1" stop-color="#4685ff"/></linearGradient><radialGradient id="radial-gradient" cx="374.46" cy="151.07" r="5.1" gradientUnits="userSpaceOnUse"><stop offset="0" stop-color="#4783fd"/><stop offset="1" stop-color="#3636c7"/></radialGradient><radialGradient id="radial-gradient-2" cx="115.2" cy="132.18" r="5.1" xlink:href="#radial-gradient"/><radialGradient id="radial-gradient-3" cx="55.43" cy="63.58" r="3.29" xlink:href="#radial-gradient"/><radialGradient id="radial-gradient-4" cx="41.19" cy="233.75" r="3.29" xlink:href="#radial-gradient"/><radialGradient id="radial-gradient-5" cx="363.08" cy="57.79" r="3.29" xlink:href="#radial-gradient"/><linearGradient id="linear-gradient-2" x1="375.13" y1="375.9" x2="476.58" y2="285.19" gradientTransform="translate(111.71 -120.34) rotate(20.58)" gradientUnits="userSpaceOnUse"><stop offset="0" stop-color="#39a45c"/><stop offset="0.99" stop-color="#92d0b2"/></linearGradient><linearGradient id="linear-gradient-3" x1="340.72" y1="367.7" x2="428.25" y2="207.15" gradientTransform="translate(111.71 -120.34) rotate(20.58)" gradientUnits="userSpaceOnUse"><stop offset="0" stop-color="#39a45c"/><stop offset="0.1" stop-color="#43a864"/><stop offset="0.28" stop-color="#5db57a"/><stop offset="0.5" stop-color="#88c89d"/><stop offset="0.76" stop-color="#c3e3cd"/><stop offset="1" stop-color="#fff"/></linearGradient><linearGradient id="linear-gradient-4" x1="437.65" y1="277.25" x2="405.56" y2="371.57" gradientTransform="translate(111.71 -120.34) rotate(20.58)" gradientUnits="userSpaceOnUse"><stop offset="0.01" stop-color="#92d0b2"/><stop offset="1" stop-color="#39a45c"/></linearGradient><linearGradient id="linear-gradient-5" x1="-669.69" y1="296.92" x2="-614.99" y2="392.89" gradientTransform="matrix(-0.94, -0.35, -0.35, 0.94, -143.74, -215.64)" xlink:href="#linear-gradient-4"/><linearGradient id="linear-gradient-6" x1="288.28" y1="318.6" x2="332.24" y2="280.18" gradientTransform="matrix(-1, 0, 0, 1, 377.73, 0)" xlink:href="#linear-gradient-2"/><linearGradient id="linear-gradient-7" x1="219.42" y1="353.77" x2="305.27" y2="277.02" gradientTransform="matrix(-1, 0, 0, 1, 377.73, 0)" xlink:href="#linear-gradient-2"/><linearGradient id="linear-gradient-8" x1="190.31" y1="346.84" x2="264.37" y2="210.99" gradientTransform="matrix(-1, 0, 0, 1, 377.73, 0)" xlink:href="#linear-gradient-3"/><linearGradient id="linear-gradient-9" x1="272.33" y1="270.3" x2="245.18" y2="350.11" gradientTransform="matrix(-1, 0, 0, 1, 377.73, 0)" xlink:href="#linear-gradient-4"/><linearGradient id="linear-gradient-10" x1="-510.43" y1="287.43" x2="-464.16" y2="368.64" gradientTransform="translate(650.19)" xlink:href="#linear-gradient-4"/><linearGradient id="linear-gradient-11" x1="126.41" y1="158.14" x2="126.41" y2="385.77" gradientUnits="userSpaceOnUse"><stop offset="0" stop-color="#f5f8fe"/><stop offset="1" stop-color="#fff"/></linearGradient><linearGradient id="linear-gradient-12" x1="121.14" y1="171.29" x2="126.71" y2="411.08" xlink:href="#linear-gradient-11"/><linearGradient id="linear-gradient-13" x1="113.52" y1="169.11" x2="124.97" y2="372.41" xlink:href="#linear-gradient-11"/><linearGradient id="linear-gradient-14" x1="127.44" y1="137.61" x2="127.44" y2="177.88" xlink:href="#linear-gradient-11"/><linearGradient id="linear-gradient-15" x1="126.41" y1="460.16" x2="126.41" y2="384.39" gradientUnits="userSpaceOnUse"><stop offset="0" stop-color="#000076"/><stop offset="1" stop-color="#3636c7"/></linearGradient><linearGradient id="linear-gradient-16" x1="126.42" y1="460.16" x2="126.42" y2="384.39" xlink:href="#linear-gradient-15"/><linearGradient id="linear-gradient-17" x1="126.42" y1="460.16" x2="126.42" y2="384.39" xlink:href="#linear-gradient-15"/><linearGradient id="linear-gradient-18" x1="89.03" y1="460.16" x2="89.03" y2="384.39" xlink:href="#linear-gradient-15"/><linearGradient id="linear-gradient-19" x1="92.28" y1="460.16" x2="92.28" y2="384.39" xlink:href="#linear-gradient-15"/><linearGradient id="linear-gradient-20" x1="178.36" y1="460.16" x2="178.36" y2="384.39" gradientTransform="translate(517.81 127.61) rotate(76.77)" xlink:href="#linear-gradient-15"/><linearGradient id="linear-gradient-21" x1="132.88" y1="460.16" x2="132.88" y2="384.39" xlink:href="#linear-gradient-15"/><linearGradient id="linear-gradient-22" x1="127.71" y1="460.16" x2="127.71" y2="384.39" xlink:href="#linear-gradient-15"/><linearGradient id="linear-gradient-23" x1="102.93" y1="460.16" x2="102.93" y2="384.39" xlink:href="#linear-gradient-15"/><linearGradient id="linear-gradient-24" x1="140.23" y1="460.16" x2="140.23" y2="384.39" xlink:href="#linear-gradient-15"/><linearGradient id="linear-gradient-25" x1="156.49" y1="460.16" x2="156.49" y2="384.39" xlink:href="#linear-gradient-15"/><linearGradient id="linear-gradient-26" x1="165.22" y1="460.16" x2="165.22" y2="384.39" xlink:href="#linear-gradient-15"/><linearGradient id="linear-gradient-27" x1="364.39" y1="423.29" x2="364.39" y2="168.58" xlink:href="#linear-gradient-11"/><linearGradient id="linear-gradient-28" x1="364.39" y1="423.28" x2="364.39" y2="168.58" xlink:href="#linear-gradient-11"/><linearGradient id="linear-gradient-29" x1="356.96" y1="264.95" x2="356.96" y2="419.97" xlink:href="#linear-gradient-11"/><linearGradient id="linear-gradient-30" x1="356.96" y1="344.04" x2="356.96" y2="428.55" xlink:href="#linear-gradient-15"/><linearGradient id="linear-gradient-31" x1="357.89" y1="461.54" x2="357.89" y2="360.28" xlink:href="#linear-gradient-15"/><linearGradient id="linear-gradient-32" x1="319.19" y1="344.04" x2="319.19" y2="428.55" xlink:href="#linear-gradient-15"/><linearGradient id="linear-gradient-33" x1="347.08" y1="344.04" x2="347.08" y2="428.55" xlink:href="#linear-gradient-15"/><linearGradient id="linear-gradient-34" x1="396.35" y1="344.04" x2="396.35" y2="428.55" xlink:href="#linear-gradient-15"/><linearGradient id="linear-gradient-35" x1="348.84" y1="344.04" x2="348.84" y2="428.55" xlink:href="#linear-gradient-15"/><linearGradient id="linear-gradient-36" x1="372.38" y1="344.04" x2="372.38" y2="428.55" xlink:href="#linear-gradient-15"/><linearGradient id="linear-gradient-37" x1="325.55" y1="344.04" x2="325.55" y2="428.55" xlink:href="#linear-gradient-15"/><linearGradient id="linear-gradient-38" x1="404.01" y1="344.04" x2="404.01" y2="428.55" xlink:href="#linear-gradient-15"/><linearGradient id="linear-gradient-39" x1="381.44" y1="344.04" x2="381.44" y2="428.55" xlink:href="#linear-gradient-15"/><linearGradient id="linear-gradient-40" x1="356.96" y1="391.49" x2="356.96" y2="218.01" xlink:href="#linear-gradient-11"/><linearGradient id="linear-gradient-41" x1="250.23" y1="-2.92" x2="250.23" y2="51.87" gradientTransform="translate(500 96.87) rotate(180)" gradientUnits="userSpaceOnUse"><stop offset="0.01" stop-color="#39a45c"/><stop offset="1" stop-color="#f5f8fe"/></linearGradient><linearGradient id="linear-gradient-42" x1="250.68" y1="-21.69" x2="250.68" y2="-34.12" xlink:href="#linear-gradient-41"/><linearGradient id="linear-gradient-43" x1="250.6" y1="-8.53" x2="250.6" y2="10.11" xlink:href="#linear-gradient-41"/><linearGradient id="linear-gradient-44" x1="249.92" y1="126.63" x2="249.92" y2="93.28" gradientTransform="matrix(1, 0, 0, 1, 0, 0)" xlink:href="#linear-gradient-41"/><linearGradient id="linear-gradient-45" x1="251.04" y1="123.04" x2="250.21" y2="76.9" gradientTransform="matrix(1, 0, 0, 1, 0, 0)" xlink:href="#linear-gradient-41"/><linearGradient id="linear-gradient-46" x1="250.09" y1="405.01" x2="250.09" y2="502.92" gradientTransform="matrix(1, 0, 0, 1, 0, 0)" xlink:href="#linear-gradient-41"/><linearGradient id="linear-gradient-47" x1="250.6" y1="371.45" x2="250.6" y2="349.24" gradientTransform="matrix(1, 0, 0, 1, 0, 0)" xlink:href="#linear-gradient-41"/><linearGradient id="linear-gradient-48" x1="250.51" y1="394.97" x2="250.51" y2="428.29" gradientTransform="matrix(1, 0, 0, 1, 0, 0)" xlink:href="#linear-gradient-41"/><linearGradient id="linear-gradient-49" x1="248.85" y1="366.14" x2="249.52" y2="376.02" gradientTransform="matrix(1, 0, 0, 1, 0, 0)" xlink:href="#linear-gradient-41"/><linearGradient id="linear-gradient-50" x1="250.76" y1="409.32" x2="249.76" y2="376.67" gradientTransform="matrix(1, 0, 0, 1, 0, 0)" xlink:href="#linear-gradient-41"/><linearGradient id="linear-gradient-51" x1="248.84" y1="362.15" x2="248.84" y2="388.36" gradientTransform="matrix(1, 0, 0, 1, 0, 0)" xlink:href="#linear-gradient-41"/><linearGradient id="linear-gradient-52" x1="250.09" y1="101.42" x2="250.09" y2="368.04" xlink:href="#linear-gradient-11"/><linearGradient id="linear-gradient-53" x1="215.71" y1="155.77" x2="289" y2="155.77" gradientUnits="userSpaceOnUse"><stop offset="0" stop-color="#534fba"/><stop offset="0.99" stop-color="#000076"/></linearGradient><linearGradient id="linear-gradient-54" x1="215.71" y1="157.43" x2="289" y2="157.43" xlink:href="#linear-gradient-53"/><linearGradient id="linear-gradient-55" x1="206.26" y1="250.31" x2="295.59" y2="250.31" xlink:href="#linear-gradient-53"/><linearGradient id="linear-gradient-56" x1="240.39" y1="311.48" x2="256" y2="311.48" xlink:href="#linear-gradient-53"/><linearGradient id="linear-gradient-57" x1="243.8" y1="195.4" x2="260.77" y2="195.4" xlink:href="#linear-gradient-53"/><linearGradient id="linear-gradient-58" x1="209.35" y1="250.94" x2="297.07" y2="250.94" xlink:href="#linear-gradient-53"/><linearGradient id="linear-gradient-59" x1="218.42" y1="226.84" x2="284.07" y2="226.84" xlink:href="#linear-gradient-53"/><linearGradient id="linear-gradient-60" x1="218.42" y1="228.48" x2="284.07" y2="228.48" xlink:href="#linear-gradient-53"/><linearGradient id="linear-gradient-61" x1="212.03" y1="250.17" x2="291.91" y2="250.17" xlink:href="#linear-gradient-53"/><linearGradient id="linear-gradient-62" x1="212.03" y1="251.72" x2="291.91" y2="251.72" xlink:href="#linear-gradient-53"/><linearGradient id="linear-gradient-63" x1="217.08" y1="342.44" x2="280.06" y2="342.44" xlink:href="#linear-gradient-53"/><linearGradient id="linear-gradient-64" x1="217.08" y1="344.05" x2="280.06" y2="344.05" xlink:href="#linear-gradient-53"/><radialGradient id="radial-gradient-6" cx="199.23" cy="207.12" r="8.65" xlink:href="#radial-gradient"/><radialGradient id="radial-gradient-7" cx="199.23" cy="207.12" r="7.01" xlink:href="#radial-gradient"/><radialGradient id="radial-gradient-8" cx="218.66" cy="343.02" r="8.65" gradientTransform="translate(522.34 72.37) rotate(80.81)" xlink:href="#radial-gradient"/><radialGradient id="radial-gradient-9" cx="218.66" cy="343.02" r="7.01" xlink:href="#radial-gradient"/><radialGradient id="radial-gradient-10" cx="217.08" cy="225.67" r="8.65" gradientTransform="translate(254.39 -85.23) rotate(50.73)" xlink:href="#radial-gradient"/><radialGradient id="radial-gradient-11" cx="217.08" cy="225.67" r="7.01" xlink:href="#radial-gradient"/><radialGradient id="radial-gradient-12" cx="215.03" cy="157.43" r="8.65" gradientTransform="translate(174.3 -105.94) rotate(45)" xlink:href="#radial-gradient"/><radialGradient id="radial-gradient-13" cx="215.03" cy="157.43" r="7.01" xlink:href="#radial-gradient"/><radialGradient id="radial-gradient-14" cx="276.12" cy="209.25" r="8.65" xlink:href="#radial-gradient"/><radialGradient id="radial-gradient-15" cx="291.91" cy="252.3" r="7" xlink:href="#radial-gradient"/><radialGradient id="radial-gradient-16" cx="285.64" cy="228.04" r="8.65" gradientTransform="translate(442.24 -102.22) rotate(76.77)" xlink:href="#radial-gradient"/><radialGradient id="radial-gradient-17" cx="269.84" cy="184.99" r="7" xlink:href="#radial-gradient"/><radialGradient id="radial-gradient-18" cx="290.21" cy="155.77" r="8.65" gradientTransform="translate(195.14 -159.59) rotate(45)" xlink:href="#radial-gradient"/><radialGradient id="radial-gradient-19" cx="290.21" cy="155.77" r="7" xlink:href="#radial-gradient"/><radialGradient id="radial-gradient-20" cx="281.56" cy="343.02" r="8.65" gradientTransform="translate(575.2 10.28) rotate(80.81)" xlink:href="#radial-gradient"/><radialGradient id="radial-gradient-21" cx="281.56" cy="343.02" r="7" xlink:href="#radial-gradient"/><linearGradient id="linear-gradient-65" x1="223.53" y1="399.12" x2="220.42" y2="258.76" xlink:href="#linear-gradient-11"/><linearGradient id="linear-gradient-66" x1="283.46" y1="397.79" x2="280.36" y2="257.43" xlink:href="#linear-gradient-11"/><linearGradient id="linear-gradient-67" x1="291.94" y1="397.6" x2="288.83" y2="257.24" xlink:href="#linear-gradient-11"/><linearGradient id="linear-gradient-68" x1="220.2" y1="399.19" x2="217.09" y2="258.83" xlink:href="#linear-gradient-11"/><linearGradient id="linear-gradient-69" x1="250.09" y1="140.51" x2="250.09" y2="102.17" xlink:href="#linear-gradient-11"/><linearGradient id="linear-gradient-70" x1="426.81" y1="244.05" x2="443.14" y2="256.82" gradientUnits="userSpaceOnUse"><stop offset="0" stop-color="#afb0f6"/><stop offset="1" stop-color="#f9fafe"/></linearGradient><linearGradient id="linear-gradient-71" x1="432.17" y1="247.04" x2="436.08" y2="266.95" xlink:href="#linear-gradient-70"/><linearGradient id="linear-gradient-72" x1="432.62" y1="245.98" x2="436.08" y2="263.62" xlink:href="#linear-gradient-70"/><linearGradient id="linear-gradient-73" x1="287.17" y1="249.38" x2="302.14" y2="249.38" gradientUnits="userSpaceOnUse"><stop offset="0" stop-color="#f6f4fa"/><stop offset="0.98" stop-color="#afb0f6"/></linearGradient><linearGradient id="linear-gradient-74" x1="304.57" y1="303.91" x2="314.06" y2="284.41" xlink:href="#linear-gradient-73"/><linearGradient id="linear-gradient-75" x1="297.6" y1="254.55" x2="312.57" y2="254.55" xlink:href="#linear-gradient-73"/><linearGradient id="linear-gradient-76" x1="315" y1="309.08" x2="324.49" y2="289.58" xlink:href="#linear-gradient-73"/><linearGradient id="linear-gradient-77" x1="315.99" y1="263.96" x2="330.96" y2="263.96" xlink:href="#linear-gradient-73"/><linearGradient id="linear-gradient-78" x1="333.39" y1="318.48" x2="342.88" y2="298.99" xlink:href="#linear-gradient-73"/><linearGradient id="linear-gradient-79" x1="303.4" y1="244.99" x2="306.71" y2="237.11" gradientUnits="userSpaceOnUse"><stop offset="0.55" stop-color="#fff"/><stop offset="1" stop-color="#f9fafe"/></linearGradient><linearGradient id="linear-gradient-80" x1="327.8" y1="255.95" x2="330.6" y2="250.78" xlink:href="#linear-gradient-79"/><linearGradient id="linear-gradient-81" x1="341.82" y1="268.01" x2="330.86" y2="288.66" gradientUnits="userSpaceOnUse"><stop offset="0" stop-color="#f5f8fe"/><stop offset="1" stop-color="#afb0f6"/></linearGradient><linearGradient id="linear-gradient-82" x1="306.34" y1="359.52" x2="344.09" y2="388.68" xlink:href="#linear-gradient-73"/><linearGradient id="linear-gradient-83" x1="292.79" y1="362.77" x2="316.04" y2="369.52" xlink:href="#linear-gradient-73"/><linearGradient id="linear-gradient-84" x1="302.02" y1="329.61" x2="402.71" y2="322.49" xlink:href="#linear-gradient-73"/><linearGradient id="linear-gradient-85" x1="424.63" y1="354.66" x2="378.53" y2="333.64" xlink:href="#linear-gradient-73"/><linearGradient id="linear-gradient-86" x1="298.26" y1="276.49" x2="398.95" y2="269.37" xlink:href="#linear-gradient-73"/><linearGradient id="linear-gradient-87" x1="341.64" y1="408.31" x2="355.2" y2="385.48" xlink:href="#linear-gradient-73"/><linearGradient id="linear-gradient-88" x1="354.26" y1="249.25" x2="378.41" y2="263.41" xlink:href="#linear-gradient-73"/><linearGradient id="linear-gradient-89" x1="356.98" y1="244.61" x2="381.13" y2="258.77" xlink:href="#linear-gradient-73"/><linearGradient id="linear-gradient-90" x1="366.37" y1="183.85" x2="384.19" y2="183.85" xlink:href="#linear-gradient-73"/><linearGradient id="linear-gradient-91" x1="383.33" y1="222.8" x2="404.82" y2="222.8" xlink:href="#linear-gradient-73"/><linearGradient id="linear-gradient-92" x1="374.79" y1="255.5" x2="408.35" y2="255.5" gradientTransform="translate(222.57 -180.44) rotate(35.69)" xlink:href="#linear-gradient-81"/><radialGradient id="radial-gradient-22" cx="395.53" cy="255.37" r="15.71" gradientTransform="translate(34.05 -45.81) rotate(7)" gradientUnits="userSpaceOnUse"><stop offset="0.18" stop-color="#f5f8fe"/><stop offset="0.27" stop-color="#f0f3fc"/><stop offset="0.37" stop-color="#e3e5f6"/><stop offset="0.47" stop-color="#cccded"/><stop offset="0.59" stop-color="#adace0"/><stop offset="0.7" stop-color="#8482cf"/><stop offset="0.82" stop-color="#534fba"/></radialGradient><linearGradient id="linear-gradient-93" x1="367.35" y1="274.21" x2="382.22" y2="274.21" xlink:href="#linear-gradient-81"/><radialGradient id="radial-gradient-23" cx="376.02" cy="274.42" r="6.46" gradientTransform="matrix(1, 0, 0, 1, 0, 0)" xlink:href="#radial-gradient-22"/><linearGradient id="linear-gradient-94" x1="266.38" y1="433.14" x2="386.49" y2="433.14" xlink:href="#linear-gradient-73"/><linearGradient id="linear-gradient-95" x1="326.44" y1="427.41" x2="326.44" y2="439.04" xlink:href="#linear-gradient-73"/><linearGradient id="linear-gradient-96" x1="334.53" y1="429.06" x2="334.53" y2="439" xlink:href="#linear-gradient-73"/><linearGradient id="linear-gradient-97" x1="250.59" y1="403.6" x2="370.7" y2="403.6" xlink:href="#linear-gradient-73"/><linearGradient id="linear-gradient-98" x1="310.64" y1="411.58" x2="310.64" y2="399.72" xlink:href="#linear-gradient-73"/><linearGradient id="linear-gradient-99" x1="310.64" y1="411.4" x2="310.64" y2="401.74" xlink:href="#linear-gradient-73"/><radialGradient id="radial-gradient-24" cx="287.53" cy="369.19" r="40.24" gradientTransform="translate(0 271.61) scale(1 0.26)" gradientUnits="userSpaceOnUse"><stop offset="0" stop-color="#f5f8fe"/><stop offset="1" stop-color="#534fba"/></radialGradient><radialGradient id="radial-gradient-25" cx="290.18" cy="364.93" r="36.37" gradientTransform="translate(-15.8 234.83) scale(1 0.24)" gradientUnits="userSpaceOnUse"><stop offset="0.61" stop-color="#f5f8fe"/><stop offset="0.7" stop-color="#b3b3e2"/><stop offset="0.77" stop-color="#7f7dcc"/><stop offset="0.83" stop-color="#5f5cbf"/><stop offset="0.86" stop-color="#534fba"/></radialGradient><linearGradient id="linear-gradient-100" x1="265.93" y1="364.93" x2="314.43" y2="364.93" xlink:href="#linear-gradient-81"/><radialGradient id="radial-gradient-26" cx="290.55" cy="360.08" r="29.48" gradientTransform="translate(0 246.79) scale(1 0.31)" gradientUnits="userSpaceOnUse"><stop offset="0" stop-color="#f5f8fe"/><stop offset="0.24" stop-color="#f2f5fd"/><stop offset="0.39" stop-color="#eaecf9"/><stop offset="0.52" stop-color="#dcddf3"/><stop offset="0.64" stop-color="#c7c8eb"/><stop offset="0.75" stop-color="#adade0"/><stop offset="0.86" stop-color="#8c8bd2"/><stop offset="0.96" stop-color="#6764c2"/><stop offset="1" stop-color="#534fba"/></radialGradient><radialGradient id="radial-gradient-27" cx="290.18" cy="357.42" r="28.36" gradientTransform="translate(-15.8 216.71) scale(1 0.27)" gradientUnits="userSpaceOnUse"><stop offset="0.67" stop-color="#534fba"/><stop offset="0.71" stop-color="#6a67c4"/><stop offset="0.8" stop-color="#a7a6dd"/><stop offset="0.9" stop-color="#f5f8fe"/></radialGradient><linearGradient id="linear-gradient-101" x1="254.56" y1="314.37" x2="294.21" y2="314.37" xlink:href="#linear-gradient-81"/><radialGradient id="radial-gradient-28" cx="290.84" cy="356.57" r="6.79" xlink:href="#radial-gradient"/><linearGradient id="linear-gradient-102" x1="297.84" y1="370.52" x2="335.59" y2="399.68" xlink:href="#linear-gradient-73"/><linearGradient id="linear-gradient-103" x1="290.37" y1="371.1" x2="313.62" y2="377.85" xlink:href="#linear-gradient-73"/><radialGradient id="radial-gradient-29" cx="291.05" cy="381.22" r="4.71" gradientUnits="userSpaceOnUse"><stop offset="0.35" stop-color="#fff"/><stop offset="0.85" stop-color="#fcfcfe"/><stop offset="0.99" stop-color="#f9fafe"/></radialGradient><radialGradient id="radial-gradient-30" cx="291.05" cy="381.22" r="4.03" gradientUnits="userSpaceOnUse"><stop offset="0" stop-color="#fff"/><stop offset="0.99" stop-color="#f9fafe"/></radialGradient><radialGradient id="radial-gradient-31" cx="291.05" cy="381.22" r="3.27" gradientUnits="userSpaceOnUse"><stop offset="0" stop-color="#f0fafe"/><stop offset="0.52" stop-color="#f4fbfe"/><stop offset="1" stop-color="#fff"/></radialGradient><linearGradient id="linear-gradient-104" x1="338.63" y1="381.13" x2="339.08" y2="425.43" gradientUnits="userSpaceOnUse"><stop offset="0.47" stop-color="#fff"/><stop offset="1" stop-color="#f9fafe"/></linearGradient><linearGradient id="linear-gradient-105" x1="337.36" y1="381.75" x2="339.28" y2="431.47" xlink:href="#linear-gradient-81"/><linearGradient id="linear-gradient-106" x1="338.47" y1="365.64" x2="338.86" y2="403.81" xlink:href="#linear-gradient-81"/><linearGradient id="linear-gradient-107" x1="338.69" y1="386.82" x2="338.94" y2="412.02" xlink:href="#linear-gradient-81"/><linearGradient id="linear-gradient-108" x1="477.92" y1="288.58" x2="436.15" y2="290.24" gradientUnits="userSpaceOnUse"><stop offset="0" stop-color="#afb0f6"/><stop offset="0.53" stop-color="#d8d9fa"/><stop offset="1" stop-color="#f9fafe"/></linearGradient><linearGradient id="linear-gradient-109" x1="473.29" y1="286.77" x2="434.47" y2="288.32" xlink:href="#linear-gradient-108"/><linearGradient id="linear-gradient-110" x1="466.96" y1="284.66" x2="432.28" y2="286.04" xlink:href="#linear-gradient-108"/><linearGradient id="linear-gradient-111" x1="452.13" y1="242.2" x2="443.65" y2="219.74" xlink:href="#linear-gradient-70"/><linearGradient id="linear-gradient-112" x1="441.94" y1="206.26" x2="443.72" y2="220.07" xlink:href="#linear-gradient-70"/><linearGradient id="linear-gradient-113" x1="478.9" y1="291" x2="437.13" y2="292.66" xlink:href="#linear-gradient-70"/><linearGradient id="linear-gradient-114" x1="430.77" y1="290.3" x2="424.68" y2="316.8" xlink:href="#linear-gradient-70"/><linearGradient id="linear-gradient-115" x1="441.71" y1="279.23" x2="380.49" y2="208.81" xlink:href="#linear-gradient-70"/><linearGradient id="linear-gradient-116" x1="403.5" y1="244.39" x2="438.46" y2="246.63" xlink:href="#linear-gradient-70"/><linearGradient id="linear-gradient-117" x1="402.44" y1="243.1" x2="434.78" y2="245.18" xlink:href="#linear-gradient-70"/></defs><title>scientist_working2</title><g class="cls-1"><g id="BACKGROUND"><path class="cls-2" d="M413.85,454.81c64.55,0,87.06-92.63,48.48-134.9-6.5-7.12-14.84-12.09-21.63-18.9-18.49-18.55-17.49-43.33-8.81-66.44,12.58-33.53,29-64.79,13.41-100.79a85.36,85.36,0,0,0-54.47-47.54c-36.06-10.11-67.15,5.44-90.84,31.84-8.66,9.64-17.76,19.59-29.78,24.44-12.43,5-27,2.68-35.39-8.12s-10.49-26.74-22.36-34.89c-33-22.68-82.5-17.68-112.81,7.11-18,14.72-29.82,36.31-33.78,59.11a94.58,94.58,0,0,0,.35,35.69c2.63,12.31,12.78,22.23,11.43,35.76-1.23,12.26-12,21.07-22.29,27.9-19.52,13-31.39,29.86-36.16,53.2-9,44.14-2.36,114.72,47,133A57.2,57.2,0,0,0,86,454.81Z" transform="translate(-15.8 -43.05)"/></g><g id="OBJECTS"><path class="cls-3" d="M99.89,80.14a2.53,2.53,0,1,1-2.52-2.52A2.52,2.52,0,0,1,99.89,80.14Z" transform="translate(-15.8 -43.05)"/><path class="cls-3" d="M161.62,120a2.53,2.53,0,1,1-2.53-2.52A2.52,2.52,0,0,1,161.62,120Z" transform="translate(-15.8 -43.05)"/><path class="cls-3" d="M92.7,155.77a2.53,2.53,0,1,1-2.52-2.53A2.52,2.52,0,0,1,92.7,155.77Z" transform="translate(-15.8 -43.05)"/><path class="cls-3" d="M342.44,213.22a2.53,2.53,0,1,1-2.52-2.52A2.52,2.52,0,0,1,342.44,213.22Z" transform="translate(-15.8 -43.05)"/><circle class="cls-3" cx="409.22" cy="108.02" r="2.52"/><path class="cls-3" d="M398.22,347.17a2.53,2.53,0,1,1-2.53-2.53A2.52,2.52,0,0,1,398.22,347.17Z" transform="translate(-15.8 -43.05)"/><path class="cls-3" d="M42.7,201.64a2.53,2.53,0,1,1-2.53-2.53A2.52,2.52,0,0,1,42.7,201.64Z" transform="translate(-15.8 -43.05)"/><path class="cls-3" d="M468.88,120a2.53,2.53,0,1,1-2.53-2.52A2.52,2.52,0,0,1,468.88,120Z" transform="translate(-15.8 -43.05)"/><circle class="cls-3" cx="75.95" cy="162.49" r="2.52"/><path class="cls-3" d="M55.43,115.86a2.53,2.53,0,1,1-2.52-2.52A2.52,2.52,0,0,1,55.43,115.86Z" transform="translate(-15.8 -43.05)"/><path class="cls-3" d="M472.89,249.11a2.52,2.52,0,1,1-2.52-2.53A2.52,2.52,0,0,1,472.89,249.11Z" transform="translate(-15.8 -43.05)"/><path class="cls-3" d="M422.6,71a2.53,2.53,0,1,1-2.53-2.52A2.53,2.53,0,0,1,422.6,71Z" transform="translate(-15.8 -43.05)"/><path class="cls-3" d="M393.7,114.7a2.53,2.53,0,1,1-2.52-2.52A2.52,2.52,0,0,1,393.7,114.7Z" transform="translate(-15.8 -43.05)"/><path class="cls-3" d="M333.52,140a2.53,2.53,0,1,1-2.53-2.52A2.53,2.53,0,0,1,333.52,140Z" transform="translate(-15.8 -43.05)"/><path class="cls-3" d="M332.76,77.62a2.52,2.52,0,1,1-2.52-2.53A2.52,2.52,0,0,1,332.76,77.62Z" transform="translate(-15.8 -43.05)"/><path class="cls-3" d="M379.59,166.62a2.53,2.53,0,1,1-2.52-2.53A2.52,2.52,0,0,1,379.59,166.62Z" transform="translate(-15.8 -43.05)"/><ellipse class="cls-3" cx="358.66" cy="108.02" rx="8.98" ry="22.08"/><ellipse class="cls-3" cx="358.66" cy="108.02" rx="22.08" ry="8.98"/><path class="cls-3" d="M380.81,157.42c-8.62,8.62-18.45,12.77-22,9.26s.64-13.34,9.26-22,18.46-12.77,22-9.26S389.43,148.8,380.81,157.42Z" transform="translate(-15.8 -43.05)"/><ellipse class="cls-3" cx="374.46" cy="151.07" rx="8.98" ry="22.08" transform="translate(-12.95 265.98) rotate(-45)"/><path class="cls-4" d="M379.56,151.07a5.1,5.1,0,1,1-5.1-5.1A5.1,5.1,0,0,1,379.56,151.07Z" transform="translate(-15.8 -43.05)"/><ellipse class="cls-3" cx="99.4" cy="89.13" rx="8.98" ry="22.08"/><ellipse class="cls-3" cx="99.4" cy="89.13" rx="22.08" ry="8.98"/><path class="cls-3" d="M121.55,138.53c-8.62,8.62-18.45,12.77-22,9.26s.64-13.34,9.26-22,18.46-12.77,22-9.26S130.17,129.91,121.55,138.53Z" transform="translate(-15.8 -43.05)"/><ellipse class="cls-3" cx="115.2" cy="132.18" rx="8.98" ry="22.08" transform="translate(-75.52 77.12) rotate(-45)"/><path class="cls-5" d="M120.3,132.18a5.1,5.1,0,1,1-5.1-5.1A5.1,5.1,0,0,1,120.3,132.18Z" transform="translate(-15.8 -43.05)"/><ellipse class="cls-3" cx="39.63" cy="20.53" rx="5.79" ry="14.24"/><ellipse class="cls-3" cx="39.63" cy="20.53" rx="14.24" ry="5.79"/><path class="cls-3" d="M59.53,67.68c-5.56,5.56-11.91,8.24-14.17,6s.42-8.61,6-14.17,11.9-8.24,14.16-6S65.09,62.12,59.53,67.68Z" transform="translate(-15.8 -43.05)"/><path class="cls-3" d="M51.34,67.68c-5.56-5.56-8.24-11.9-6-14.17s8.61.42,14.17,6,8.24,11.9,6,14.17S56.9,73.24,51.34,67.68Z" transform="translate(-15.8 -43.05)"/><path class="cls-6" d="M58.72,63.59a3.29,3.29,0,1,1-3.29-3.29A3.28,3.28,0,0,1,58.72,63.59Z" transform="translate(-15.8 -43.05)"/><ellipse class="cls-3" cx="25.39" cy="190.69" rx="5.79" ry="14.24"/><path class="cls-3" d="M41.19,239.54c-7.86,0-14.24-2.6-14.24-5.79s6.38-5.8,14.24-5.8,14.24,2.6,14.24,5.8S49.06,239.54,41.19,239.54Z" transform="translate(-15.8 -43.05)"/><path class="cls-3" d="M45.29,237.84c-5.56,5.56-11.91,8.24-14.17,6s.41-8.61,6-14.17,11.9-8.24,14.16-6S50.85,232.28,45.29,237.84Z" transform="translate(-15.8 -43.05)"/><path class="cls-3" d="M37.1,237.84c-5.57-5.56-8.24-11.9-6-14.17s8.61.42,14.17,6,8.23,11.9,6,14.17S42.66,243.4,37.1,237.84Z" transform="translate(-15.8 -43.05)"/><path class="cls-7" d="M44.48,233.75a3.29,3.29,0,1,1-3.29-3.29A3.28,3.28,0,0,1,44.48,233.75Z" transform="translate(-15.8 -43.05)"/><ellipse class="cls-3" cx="347.28" cy="14.74" rx="5.79" ry="14.24"/><path class="cls-3" d="M363.08,63.58c-7.86,0-14.24-2.59-14.24-5.79S355.22,52,363.08,52s14.24,2.59,14.24,5.79S371,63.58,363.08,63.58Z" transform="translate(-15.8 -43.05)"/><path class="cls-3" d="M367.18,61.89c-5.56,5.56-11.91,8.24-14.17,6s.41-8.6,6-14.16,11.9-8.24,14.16-6S372.74,56.33,367.18,61.89Z" transform="translate(-15.8 -43.05)"/><path class="cls-3" d="M359,61.89c-5.57-5.56-8.24-11.91-6-14.17s8.61.41,14.17,6,8.23,11.9,6,14.16S364.55,67.45,359,61.89Z" transform="translate(-15.8 -43.05)"/><path class="cls-8" d="M366.37,57.79a3.29,3.29,0,1,1-3.29-3.29A3.29,3.29,0,0,1,366.37,57.79Z" transform="translate(-15.8 -43.05)"/><path class="cls-9" d="M410.8,385.68c27.49-1.47,49.91-4.84,49.91-4.84-32.3-35-80.61-27.44-80.61-27.44,15.44-10.18,54.62-26.26,54.62-26.26-47.2-17.92-87.18,2.59-87.18,2.59,18.94-17.35,54.26-64.22,54.26-64.22-64.06,7.12-92.7,45-92.7,45L293,353.37l132.46,49.74C429.38,397.72,424.31,387.67,410.8,385.68Z" transform="translate(-15.8 -43.05)"/><path class="cls-10" d="M274.84,379.53s7.22-12.17,21.69-29.49c-3.83-7.88-17.46-37.5-8.12-41.21,10.22-4.07,10.46,27,10.2,38.75,5.48-6.44,11.9-13.49,19.29-20.87-1.38-8.71-5.83-40.9,4.17-41.75,10.52-.9,2.85,26.6-1,38.64,7-6.83,14.82-13.86,23.44-20.86,0-8.09.7-41.78,10.89-41,10.6.83-1.68,27.08-7.37,38.2,7.64-6,15.88-12,24.74-17.78,1.6-7.5,9.32-41,19.21-38s-8.11,26.21-16.27,36.34c1.91-1.2,6.38-4.13,9-5.68a109,109,0,0,0,16.12-11.45c9.65-8.3,26.89-21.56,32-15.13,6.62,8.32-20.91,17.21-33,20.62a40.37,40.37,0,0,0-10.92,5c-5.38,3.48-13.67,8.77-20.46,13.72,11.26-2.75,39.4-9.17,41.05-.24,2.18,11.81-34.49,3.79-42.62,1.87-7.29,5.44-15.15,11.68-23.29,18.7,11.07-2.72,37.63-8.28,39.3.74,2.16,11.69-33.7,4-42.35,1.94-7.22,6.35-14.6,13.32-22,20.89,10.56-2.64,38.36-8.69,40.07.55,2.17,11.73-33.94,3.91-42.44,1.91-6.66,7-13.27,14.45-19.7,22.41,10.55-2.65,38.36-8.69,40.07.55,2.14,11.57-33,4.1-42.1,2-5.88,7.42-11.59,15.24-17,23.5Z" transform="translate(-15.8 -43.05)"/><path class="cls-11" d="M376.8,418c8.63-1.3,22.67-15.08,22.67-15.08s-16.16-7.6-20-9.28-8.71-5.87-9.36-8.42,1.5-3.89,4.73-4.22,6.68,3.6,9.44,5.38S405,402.35,410.74,398.7,421,385.18,421,385.18s-7.83-3.11-13.34-4.66-15.34-6.08-16.63-9,2-4.07,4.63-4.7,13.29,0,18.14-1.48,7.31-3.44,8.71-6.46,2.55-10.56,1.58-11.3-7,2.48-11.49,3.64-8.91,2.69-10.69.35,3-4.51,5.88-6.25,13.83-1.45,17.55-6,3.49-25,3.49-25c-2.71.92-26.21-5.09-26.21-5.09-1.56,1.86-7.62,16.89-8,23.91s-4,8-5.93,4.88,1-10.53,3.34-17.5a41.22,41.22,0,0,1,7.19-12.58,55.62,55.62,0,0,0-14.53-2.38c-11.17.93-13.27,10.42-15.13,15s-1.75,21.09-2.22,24.13-4.83,6.6-10-5.06,1.35-29.3,1.35-29.3a50.65,50.65,0,0,0-9.23,2.43c-2.94,1-5.47,2.08-6.67,2.58-.47.22-.74.33-.74.33a16.28,16.28,0,0,0-1.32,3.56c-1.46,6,.29,12.69,2.09,17.56.9,2.44,1.81,4.42,2.33,5.62,1.77,4.09,8.67,20.63-3,12.9a14.13,14.13,0,0,1-4.44-5.06l-.3-.58A37.06,37.06,0,0,1,334,337.5a91.31,91.31,0,0,1-.16-18.68c.05-.51.08-.78.08-.78a18.27,18.27,0,0,0-1.72.64c-3.49,1.44-8.41,4.46-10.52,8.78-.85,1.71-.42,4.35.58,7.22,1.9,5.47,5.84,11.75,6.83,13.89a1.24,1.24,0,0,1,.1.2c.87,2,2.48,6.52,1.82,9.86a4.4,4.4,0,0,1-2.53,3.41,3.82,3.82,0,0,1-4.5-.78c-2.15-2.08-3.4-6.69-3.38-12.13a23.18,23.18,0,0,0-.21-3.32,22.29,22.29,0,0,0-4-10.47,17.17,17.17,0,0,1-2.54,6.11c-1.7,2.89-3.91,6.11-5.64,9.62a25.17,25.17,0,0,0-2.66,8.49,16.92,16.92,0,0,0,2.12,10.09,21.48,21.48,0,0,0,3.18,4.44c8.5,9.11,22,6.06,29.93,4,9-2.36,7.95,2.21,7.95,2.21C335.93,412,368.16,419.35,376.8,418Zm32.27-97.38c.62-1.35,3.47.91,3.8,1.76,0,0,1.2,1.24-.82,4.1S408.45,322,409.07,320.66ZM362,357c-.63-1.72-1.18-4.94-.37-6s3.18-.63,3.54.92a6.21,6.21,0,0,1,.2,3.77C364.77,357.47,362.64,358.73,362,357Zm34.73.82s1.79,3,.65,3.65S396.1,356.51,396.75,357.83Zm-32,33.13c-1.11-.1-3-2.62-3.63-4.94s-.59-4.58.47-4.83,1.47-.88,2.34.42c0,0,3,4.27,3.19,6.29S365.84,391.07,364.74,391Z" transform="translate(-15.8 -43.05)"/><g class="cls-12"><path class="cls-13" d="M408.05,333.66q-3.63,2.46-7.18,5-8.16,5.93-16.25,11.93-10.85,8-21.53,16.32-11.47,8.88-22.73,18c-6.86,5.6-13.76,11.21-20.18,17.32-.7.67-1.39,1.34-2.06,2.05a.47.47,0,0,0,.6.73c3.22-2.52,6.27-5.27,9.42-7.89,3.5-2.91,7-5.84,10.51-8.72,7.49-6.09,15.08-12.05,22.7-18,7.24-5.63,14.55-11.19,21.86-16.75q8.44-6.44,17-12.78c2.78-2.07,5.59-4.13,8.32-6.29l.24-.18c.57-.42-.11-1.23-.68-.84Z" transform="translate(-15.8 -43.05)"/><path class="cls-13" d="M387.05,310.52c-6.5,8.85-9.09,20.41-9.5,31.2-.09,2.24-.08,4.47,0,6.7a31.37,31.37,0,0,0,.87,7.62c.14.48.89.54.94,0a64.7,64.7,0,0,0-.21-6.67q-.12-3,0-6a79.09,79.09,0,0,1,1.08-10.75A63,63,0,0,1,385,316.78a61.17,61.17,0,0,1,2.94-5.62.54.54,0,0,0-.88-.64Z" transform="translate(-15.8 -43.05)"/><path class="cls-13" d="M349.1,323.56a60.46,60.46,0,0,0,2.31,24.79,96.93,96.93,0,0,0,6.78,15.45c1,1.9,1.87,3.82,2.77,5.76a.48.48,0,0,0,.9-.28,16,16,0,0,0-1.8-5.22c-1-2.17-2.16-4.28-3.18-6.46a69.89,69.89,0,0,1-5.9-18.88,85.17,85.17,0,0,1-.8-15.06.54.54,0,0,0-1.08-.1Z" transform="translate(-15.8 -43.05)"/><path class="cls-13" d="M312,354.81c-.44,4,0,8.18,2.42,11.56A15.5,15.5,0,0,0,322.8,372c7.35,2.26,15.24,1.55,22.81,1.52a35,35,0,0,1,9.53.83c.48.13.92-.51.44-.83-2.12-1.4-5.22-1.48-7.67-1.55-3.6-.11-7.2,0-10.8,0a60.1,60.1,0,0,1-11.36-1,17.66,17.66,0,0,1-8.83-4.13c-3.2-3.08-3.93-7.64-3.82-11.9a.54.54,0,0,0-1.08-.1Z" transform="translate(-15.8 -43.05)"/><path class="cls-13" d="M403.9,385.73a139.21,139.21,0,0,1-17-7,81.27,81.27,0,0,1-13.32-8.54c-1.09-.86-2.14-1.78-3.21-2.67a39.89,39.89,0,0,0-3.26-2.7.47.47,0,0,0-.64.68,27.46,27.46,0,0,0,5.23,5.21A76.56,76.56,0,0,0,393,383.36a79,79,0,0,0,10.48,3.38c.66.16,1.06-.77.38-1Z" transform="translate(-15.8 -43.05)"/><path class="cls-13" d="M381.37,404.65c-12.41,4.05-24.09-6.19-27.18-17.75a26.3,26.3,0,0,1-.85-5.28c-.12-1.89.07-3.73.08-5.62a.47.47,0,0,0-.91-.2c-1.18,3.18-.85,7.1-.15,10.36a28.87,28.87,0,0,0,3.79,9.31c3.42,5.47,8.84,9.89,15.23,11.22a17.23,17.23,0,0,0,10.44-1.05c.66-.28.2-1.2-.45-1Z" transform="translate(-15.8 -43.05)"/><path class="cls-13" d="M417.35,355c-10.16,2.59-21.63,5.85-31.88,1.81-1.73-.69-3.36-1.69-5.1-2.32-.41-.14-.88.4-.53.74a14.59,14.59,0,0,0,4.37,2.74,27,27,0,0,0,5.49,1.76,40.37,40.37,0,0,0,15.49-.19,69.28,69.28,0,0,0,12.48-3.51c.57-.22.29-1.19-.32-1Z" transform="translate(-15.8 -43.05)"/></g><path class="cls-14" d="M275.92,357.33s35.71-118.39,75.41-110.6-36.45,78.41-52,103.55c0,0,63.23-72.24,78.65-47.83s-53.21,47.46-58.42,51.8c0,0,97.36-33.49,89.17,1.49-1.3,5.58-12.95,11.54-29.86,11.32-20.63-.27-47.87-5-68.86,9.73" transform="translate(-15.8 -43.05)"/><g class="cls-12"><path class="cls-13" d="M346.59,259.41c-6.25,5-11.17,11.73-15.78,18.21-6.53,9.17-12.47,18.74-18.16,28.45q-9.24,15.78-17.69,32-7.54,14.4-14.58,29a200,200,0,0,0-8.58,19.57c-.17.49-.3,1-.48,1.48a.47.47,0,0,0,.88.33c.9-2.42,2.11-4.79,3.18-7.14,1.62-3.54,3.31-7.06,5-10.57,4.48-9.42,9.18-18.73,14-28q8.43-16.14,17.48-32c5.69-9.87,11.56-19.66,17.94-29.1,2.66-3.92,5.41-7.79,8.36-11.51a82.28,82.28,0,0,1,7.46-8.48c.54-.52,1.09-1,1.66-1.5a.55.55,0,0,0-.69-.85Z" transform="translate(-15.8 -43.05)"/></g><g class="cls-12"><path class="cls-13" d="M368.66,307.26c-6.86,2.54-13.14,6.48-19.18,10.54-7.87,5.28-15.39,11.07-22.72,17.07q-11.61,9.51-22.66,19.68c-6.57,6-13,12.2-19.31,18.54a150.22,150.22,0,0,0-12.56,13.77c-.3.38-.55.81-.85,1.19s.39,1,.76.55c1.47-1.85,3.22-3.55,4.83-5.27,2.28-2.42,4.63-4.79,7-7.16,6.08-6.16,12.34-12.13,18.71-18q10.92-10,22.28-19.56c7.34-6.12,14.83-12.08,22.62-17.62a126.47,126.47,0,0,1,19.54-11.87c.67-.31,1.34-.6,2-.88s.2-1.24-.45-1Z" transform="translate(-15.8 -43.05)"/></g><g class="cls-12"><path class="cls-13" d="M393.59,350.85c-14-1.32-28.41-.11-42.25,2.5a201,201,0,0,0-50.79,16.88q-7.55,3.69-14.77,8A116,116,0,0,0,271.46,388c-.48.39.1,1,.6.73,4.44-2.77,8.78-5.69,13.27-8.39q6.3-3.78,12.88-7.08a206.1,206.1,0,0,1,25.94-10.89,196.41,196.41,0,0,1,47.56-10.07,155.24,155.24,0,0,1,21.78-.32.55.55,0,0,0,.1-1.09Z" transform="translate(-15.8 -43.05)"/></g><path class="cls-15" d="M39.57,292c1.49,6.81,8.26,8.58,12,14.45,3.16,4.93,3.63,11.53,7.86,15.59,2.62,2.5,6.3,3.62,9,6.06,5.13,4.66,5.33,12.74,9.36,18.38A24.12,24.12,0,0,0,83.72,352c3.5,2.45,7.7,4.53,11.91,3.8,4.47-.78,7.91-4.62,9.52-8.85s1.74-8.88,1.9-13.41c0-1.39-1-2.27.22-3,.54-.33,12.43-3,16-6.07a7.81,7.81,0,0,0,2.62-3.73,7.94,7.94,0,0,0,0-3.43c-1.06-6-5.33-11.16-10.57-14.32s-11.37-4.55-17.46-5.19a32.78,32.78,0,0,1-7.25-1.19c-3.79-1.28-6.89-4.16-10.71-5.35-3.43-1.08-7.11-.7-10.7-.7A49.66,49.66,0,0,1,53.32,288c-4.69-1.58-10.23-3.77-14.19-.8C39.13,287.18,39.31,290.84,39.57,292Z" transform="translate(-15.8 -43.05)"/><g class="cls-16"><path class="cls-13" d="M102.37,326.29a24.54,24.54,0,0,1,.81-5.91,36.87,36.87,0,0,1,2.13-5.58c.84-1.8,1.77-3.55,2.68-5.3a33.74,33.74,0,0,0,2.54-5.24.07.07,0,0,0-.12-.05c-.5.84-.89,1.77-1.33,2.64s-.93,1.81-1.39,2.7c-1,1.85-1.94,3.69-2.8,5.59-1.53,3.39-3,7.36-2.59,11.15,0,0,.07,0,.07,0Z" transform="translate(-15.8 -43.05)"/><path class="cls-13" d="M105.27,328.33c.52.86,1.89-1.83,2.08-2.11a55.6,55.6,0,0,1,3.45-4.63,63.56,63.56,0,0,1,7.87-7.78c0-.05,0-.15-.08-.1a47.43,47.43,0,0,0-7.17,6.78q-1.58,1.81-3,3.77c-.47.66-.94,1.33-1.38,2-.2.3-1.35,2.49-1.78,2.05Z" transform="translate(-15.8 -43.05)"/><path class="cls-13" d="M40.79,287.79a142.68,142.68,0,0,1,14.06,7.66c6.37,3.78,12.61,7.79,18.79,11.87q10.47,6.93,20.68,14.23,9.8,7,19.33,14.34c5.16,4,10.3,8.05,15.16,12.41.48.43,1,.86,1.43,1.3.29.27.72-.16.43-.44-4.57-4.31-9.35-8.36-14.27-12.27-6.21-4.93-12.57-9.67-19-14.31Q87.15,315.2,76.62,308.2C70.27,304,63.83,299.88,57.27,296a134.92,134.92,0,0,0-15-7.93l-1.37-.56c-.17-.07-.29.21-.12.29Z" transform="translate(-15.8 -43.05)"/><path class="cls-13" d="M43.09,296.85a24.45,24.45,0,0,1,5.44-1.53c1.88-.35,3.76-.41,5.65-.64a.07.07,0,1,0,0-.13,22.34,22.34,0,0,0-5.7.56,20.14,20.14,0,0,0-5.43,1.68s0,.08,0,.06Z" transform="translate(-15.8 -43.05)"/><path class="cls-13" d="M47.59,300.73a19.86,19.86,0,0,1,3.26-1.19c1-.25,2.09-.41,3.15-.56a39.34,39.34,0,0,1,6.42-.41c.06,0,.08-.1,0-.11a19.63,19.63,0,0,0-6.39.31c-2.17.3-4.65.6-6.49,1.89,0,0,0,.09,0,.07Z" transform="translate(-15.8 -43.05)"/><path class="cls-13" d="M52.08,304.86a14.61,14.61,0,0,0,1.54-.51c.57-.18,1.14-.34,1.72-.49,1.21-.32,2.44-.58,3.67-.81,2.42-.44,4.86-.69,7.31-.92.11,0,.12-.18,0-.18a45.77,45.77,0,0,0-7.28.86c-1.26.24-2.52.51-3.76.84a11.74,11.74,0,0,0-3.23,1.15s0,.07,0,.06Z" transform="translate(-15.8 -43.05)"/><path class="cls-13" d="M54.9,310.38a44,44,0,0,1,8.7-3,45.22,45.22,0,0,1,4.6-.82c1.5-.19,3-.22,4.51-.33a.09.09,0,0,0,0-.18,24.57,24.57,0,0,0-4.61.28,44.51,44.51,0,0,0-4.56.83,40,40,0,0,0-8.69,3.1c-.05,0,0,.12,0,.09Z" transform="translate(-15.8 -43.05)"/><path class="cls-13" d="M59.07,319.78c1.63-.82,3.2-1.75,4.82-2.58,1.85-.94,3.73-1.83,5.64-2.61a35.26,35.26,0,0,1,11.12-2.8.07.07,0,0,0,0-.14,23.75,23.75,0,0,0-8.6,1.71,65.29,65.29,0,0,0-8.68,3.85,44.38,44.38,0,0,0-4.34,2.5,0,0,0,1,0,0,.07Z" transform="translate(-15.8 -43.05)"/><path class="cls-13" d="M71.85,329.54a77.25,77.25,0,0,1,9.64-6.27,39,39,0,0,1,5.4-2.32,41.57,41.57,0,0,1,5.51-1.29.08.08,0,0,0,0-.16,21.18,21.18,0,0,0-5.56,1.21A38.82,38.82,0,0,0,81.55,323a56.77,56.77,0,0,0-9.79,6.46c-.06.05,0,.16.09.12Z" transform="translate(-15.8 -43.05)"/><path class="cls-13" d="M66,324.5c5.36-2.65,10-6.87,16-8a15,15,0,0,1,2.75-.29,28.46,28.46,0,0,1,2.92.21.09.09,0,0,0,0-.18,12.34,12.34,0,0,0-4.73-.13,19.22,19.22,0,0,0-4.71,1.28,50,50,0,0,0-8.14,4.57c-1.35.88-2.71,1.77-4.13,2.54,0,0,0,0,0,0Z" transform="translate(-15.8 -43.05)"/><path class="cls-13" d="M76.91,338.3c4.33-4.9,8.62-10.36,14.42-13.61a21.37,21.37,0,0,1,5-1.95c.11,0,.06-.18,0-.17-3.07.43-6,2.27-8.38,4.14a55.64,55.64,0,0,0-7.4,7.24c-1.24,1.41-2.44,2.85-3.67,4.26,0,.06,0,.15.09.09Z" transform="translate(-15.8 -43.05)"/><path class="cls-13" d="M81.88,348.06c4-6.33,7.91-12.91,13.18-18.28a28.89,28.89,0,0,1,4.57-3.84c.09-.06,0-.21-.08-.15a32.74,32.74,0,0,0-7.83,7.44,99.41,99.41,0,0,0-6.78,9.64c-1.07,1.7-2.12,3.41-3.17,5.12a.07.07,0,1,0,.11.07Z" transform="translate(-15.8 -43.05)"/><path class="cls-13" d="M93.76,352.27A41.7,41.7,0,0,1,95.38,341a34.32,34.32,0,0,1,4.65-8.82c1.11-1.57,2.29-3.09,3.44-4.63a.08.08,0,0,0-.12-.09,58.29,58.29,0,0,0-5.89,8.33,28.23,28.23,0,0,0-3.39,10,60.93,60.93,0,0,0-.41,6.48.05.05,0,1,0,.1,0Z" transform="translate(-15.8 -43.05)"/><path class="cls-13" d="M53.42,293.64a14.54,14.54,0,0,1-3.26-5.2c0-.07-.15,0-.12.05a15.41,15.41,0,0,0,1.61,3.41,7.09,7.09,0,0,0,1.69,1.85c.06,0,.14-.06.08-.11Z" transform="translate(-15.8 -43.05)"/><path class="cls-13" d="M60.62,298.05c-.26-.68-.64-1.33-1-2l-1-2c-.66-1.36-1.25-2.77-2-4.07,0-.06-.13,0-.11,0a39.13,39.13,0,0,0,1.87,4c.33.66.65,1.31,1,2a19.48,19.48,0,0,0,1.12,2.06s.08,0,.07,0Z" transform="translate(-15.8 -43.05)"/><path class="cls-13" d="M66.64,301.73c-.33-.81-.77-1.59-1.14-2.4s-.78-1.76-1.12-2.67c-.67-1.73-1.13-3.53-1.72-5.29a.07.07,0,0,0-.14,0,27,27,0,0,0,1.67,5.4q.48,1.24,1,2.46a18.07,18.07,0,0,0,1.32,2.5s.1,0,.08,0Z" transform="translate(-15.8 -43.05)"/><path class="cls-13" d="M73.2,306c-.9-2.35-1.89-4.63-2.61-7s-1.16-4.87-1.67-7.32c0-.07-.12-.05-.11,0A37.2,37.2,0,0,0,70.37,299a35.84,35.84,0,0,0,2.73,7c0,.05.12,0,.1,0Z" transform="translate(-15.8 -43.05)"/><path class="cls-13" d="M81.35,311.65a68.88,68.88,0,0,1-2.72-10c-.69-3.39-1.12-6.81-1.68-10.22,0-.06-.11,0-.11,0a76,76,0,0,0,1.56,10.16,59.06,59.06,0,0,0,2.86,10c0,.06.11,0,.09,0Z" transform="translate(-15.8 -43.05)"/><path class="cls-13" d="M88.07,315.93a66.31,66.31,0,0,1-3-17.24c0-1.23-.09-2.46,0-3.68,0-.12-.18-.12-.19,0a46.37,46.37,0,0,0,.26,7.45,65.7,65.7,0,0,0,1.45,9A24.17,24.17,0,0,0,88,316s.11,0,.09,0Z" transform="translate(-15.8 -43.05)"/><path class="cls-13" d="M93.16,319.86c-1.09-3.3-1-6.9-.9-10.34a101,101,0,0,0,.38-10.43.07.07,0,0,0-.14,0c0,3.55-.33,7.08-.46,10.62-.13,3.37-.17,7,1,10.18a0,0,0,0,0,.09,0Z" transform="translate(-15.8 -43.05)"/><path class="cls-13" d="M98.54,323.36a25.29,25.29,0,0,1-.16-8.46c.34-3.12.9-6.2,1.36-9.29a28.65,28.65,0,0,0,.44-4.42c0-.11-.14-.1-.15,0-.35,2.93-.76,5.84-1.22,8.76A59.82,59.82,0,0,0,97.9,319a16.74,16.74,0,0,0,.49,4.4.08.08,0,0,0,.15,0Z" transform="translate(-15.8 -43.05)"/></g><path class="cls-17" d="M88.3,347.6C67,338.26,50.19,328.92,50.19,328.92c36-18.09,72,2.24,72,2.24C113,318.5,86.76,294.11,86.76,294.11c42.72-.16,68.29,28,68.29,28-9.84-19.38-23.88-67-23.88-67,48.62,24.69,60.05,63.2,60.05,63.2V357H71.5C70,351.61,77,345.16,88.3,347.6Z" transform="translate(-15.8 -43.05)"/><path class="cls-18" d="M197.82,383.17s-2.09-11.79-8.4-29.82c5.37-5.1,25-24.5,18.69-30.23-6.89-6.26-16.34,18.32-19.61,27.67-2.43-6.74-5.42-14.23-9.08-22.27,3.69-6.49,16.79-30.67,9.12-34.32-8.07-3.84-10.17,20.22-10.7,30.91-3.53-7.5-7.62-15.39-12.37-23.5,2.4-6.41,11.88-33.3,3.57-35.7-8.65-2.5-6.73,21.94-5.52,32.45-4.26-7.06-9-14.25-14.31-21.45,1-6.41,4.8-35.22-3.91-35.84s-1.37,23.17,2.08,33.62c-1.15-1.51-3.82-5.17-5.45-7.18a91.29,91.29,0,0,1-9.36-13.86c-5.18-9.45-14.89-25.08-20.86-21.51-7.71,4.62,11.45,19.85,20,26.14a33.94,33.94,0,0,1,7.18,7.18c3.22,4.36,8.22,11,12.12,17-8.1-5.53-28.47-19-32.44-12.4-5.25,8.7,26.19,13.25,33.2,14.15,4.16,6.48,8.53,13.76,12.88,21.74-8-5.45-27.33-17.75-31.34-11.09-5.19,8.61,25.51,13.15,33,14.12,3.82,7.18,7.6,14.9,11.18,23.09-7.57-5.24-27.79-18.29-31.9-11.48-5.2,8.64,25.73,13.19,33.05,14.13,3.2,7.51,6.22,15.39,8.94,23.61-7.57-5.23-27.8-18.29-31.9-11.48-5.14,8.53,24.93,13.07,32.75,14.1,2.45,7.63,4.65,15.52,6.48,23.67Z" transform="translate(-15.8 -43.05)"/><path class="cls-19" d="M139.05,361.77s.55-3.92,7,.62c5.64,4,15.45,10.44,24.89,5.75a18,18,0,0,0,3.84-2.58,14.33,14.33,0,0,0,4.68-7.35,21.38,21.38,0,0,0,.42-7.52c-.33-3.3-1.12-6.5-1.6-9.3a14.43,14.43,0,0,1-.2-5.6,19,19,0,0,0-6.29,7.1,21.84,21.84,0,0,0-1.16,2.57c-1.6,4.32-4,7.6-6.28,8.6a3.23,3.23,0,0,1-3.8-.71,3.73,3.73,0,0,1-1-3.46c.47-2.84,3.1-5.95,4.38-7.27a1.59,1.59,0,0,1,.13-.13c1.43-1.4,6.41-5.2,9.55-9,1.64-2,2.77-3.93,2.61-5.54-.39-4.05-3.39-7.91-5.72-10.09-.42-.39-.83-.74-1.18-1l-.17.64a77.27,77.27,0,0,1-5.68,14.75,31.58,31.58,0,0,1-6.26,8.64c-.14.13-.27.25-.42.37a11.77,11.77,0,0,1-5,2.68c-11.53,2.66-1.15-8.39,1.47-11.1.77-.8,2.08-2.1,3.52-3.76,2.88-3.33,6.26-8.12,6.88-13.29a13.26,13.26,0,0,0,0-3.21l-.49-.48c-.8-.76-2.48-2.35-4.51-4a42.52,42.52,0,0,0-6.59-4.67S152,319.33,144.39,327s-10,3.58-9.45,1,5.53-15.59,5.42-19.77,1.06-12.33-7.52-16.39a47,47,0,0,0-12.22-2.43,34.83,34.83,0,0,1,2,12.1c-.26,6.2-.06,13-2.56,14.85s-5,.07-3.25-5.62,1.45-19.39.77-21.32c0,0-20.4-2.23-22.28-3.77,0,0-6.29,16.22-4.69,20.88s10.4,7.7,12.14,9.93,4.89,5.36,2.79,6.7-5.11-1.18-8.36-3.45-7-6.63-8-6.31-2.32,6.61-2.12,9.42,1.58,5.15,5,7.72,12,5.3,13.93,6.57,4.16,3.13,2.27,5.09-11,2.64-15.86,2.21-12-.27-12-.27.6,9.14,4.09,13.75,21.9-1.27,24.6-1.86,6.63-2.7,9.07-1.46,3.77,2.93,2.49,4.75-6.39,3.71-9.91,3.89-18.59,1.41-18.59,1.41,7,15.09,13.47,18.68S139.77,390.72,139.05,361.77ZM104.9,300.36c-.74-2.87.57-3.49.57-3.49.51-.57,3.45-1.51,3.54-.27S105.64,303.24,104.9,300.36Zm28.28,37a5.25,5.25,0,0,1,1.28-2.92,1.85,1.85,0,0,1,3.08.32c.33,1.08-1.06,3.46-2.08,4.64S133.15,338.94,133.18,337.36Zm-27.07-4.95c-.7-.88,1.6-2.7,1.6-2.7C108.62,328.86,106.8,333.31,106.11,332.41Zm16.13,29.94c.72-1.56,4.4-4,4.4-4,1.08-.78,1.2-.16,2,.36s.11,2.3-1.07,4-3.43,3.08-4.34,2.83S121.53,363.92,122.24,362.35Z" transform="translate(-15.8 -43.05)"/><g class="cls-12"><path class="cls-13" d="M105.26,307.61c1.36,2.06,2.64,4.17,4,6.25q4.64,7.17,9.2,14.39c4.07,6.44,8.14,12.9,12.14,19.38,4.31,7,8.57,14,12.72,21,3.79,6.44,7.44,13,11.06,19.5.4.72.79,1.43,1.2,2.13.19.33.66,0,.51-.3-1.42-3.18-3.11-6.24-4.76-9.3-1.83-3.38-3.75-6.71-5.67-10q-6.13-10.62-12.57-21.05-6.1-9.93-12.39-19.75-4.84-7.56-9.78-15.08-2.41-3.67-4.91-7.3l-.15-.21c-.24-.35-.82,0-.58.34Z" transform="translate(-15.8 -43.05)"/><path class="cls-13" d="M128.69,295.34c1.74,9,.62,18.28-2.13,26.91-.59,1.84-1.25,3.64-2,5.42-.8,1.94-1.78,3.83-2.47,5.8-.11.33.36.48.54.22a29.15,29.15,0,0,0,2.57-5q1-2.41,1.91-4.9a62,62,0,0,0,2.44-9,50.2,50.2,0,0,0,.74-14.16,34.34,34.34,0,0,0-1-5.43c-.11-.43-.73-.25-.65.18Z" transform="translate(-15.8 -43.05)"/><path class="cls-13" d="M154.88,316.53a61.27,61.27,0,0,1-9.58,18.57,89.45,89.45,0,0,1-9.75,10.1,16.64,16.64,0,0,0-3.52,4c-.15.28.23.61.46.36,2.48-2.69,5.29-5,7.92-7.53a52.19,52.19,0,0,0,15.12-25.34.34.34,0,0,0-.65-.18Z" transform="translate(-15.8 -43.05)"/><path class="cls-13" d="M175,352.32c-1,3.11-2.7,6.23-5.62,7.92a13.41,13.41,0,0,1-8.08,1.33,41,41,0,0,1-9.23-2.32c-3-1-5.83-2.22-8.76-3.28a33.8,33.8,0,0,0-4.16-1.27,8.73,8.73,0,0,0-3.41-.24c-.34.06-.24.56.08.58a23.12,23.12,0,0,1,6.72,1.69c3,1.09,5.91,2.34,8.9,3.42a42.56,42.56,0,0,0,9.47,2.45,14.47,14.47,0,0,0,8.48-1.22c3.4-1.8,5.31-5.28,6.27-8.88a.34.34,0,0,0-.66-.18Z" transform="translate(-15.8 -43.05)"/><path class="cls-13" d="M93.74,350.48a68.4,68.4,0,0,0,29.08-3c1.11-.37,2.21-.76,3.28-1.22a21.83,21.83,0,0,0,3.27-1.57.29.29,0,0,0-.22-.53c-1,.28-2,.72-2.94,1.07s-2,.74-3,1.08q-3,1-6.15,1.74a77,77,0,0,1-14.19,1.82c-3,.12-6.08,0-9.12-.05-.44,0-.42.64,0,.68Z" transform="translate(-15.8 -43.05)"/><path class="cls-13" d="M105.4,371.94a16,16,0,0,0,14.82,3.53,23.63,23.63,0,0,0,13.49-9.34,17.94,17.94,0,0,0,3.59-9c0-.34-.48-.38-.58-.07-.42,1.33-.75,2.67-1.3,4a23.76,23.76,0,0,1-1.93,3.67,22.76,22.76,0,0,1-5.54,5.91c-4.07,3-9.2,4.91-14.32,4.28a15.21,15.21,0,0,1-7.75-3.39c-.33-.27-.8.18-.48.48Z" transform="translate(-15.8 -43.05)"/><path class="cls-13" d="M91.74,322a55.48,55.48,0,0,0,14.53,9.29,25.82,25.82,0,0,0,10.61,2.14,15.08,15.08,0,0,0,4.86-.78c.29-.11.28-.6-.08-.58-1.4.06-2.79.31-4.2.37a20.89,20.89,0,0,1-4.67-.31A35.38,35.38,0,0,1,101,327.43c-3.07-1.82-6-3.87-8.86-5.95-.32-.23-.71.28-.42.53Z" transform="translate(-15.8 -43.05)"/></g><path class="cls-20" d="M203.57,365.26s6.93-104.41-26.83-110,5.54,73,10.41,97.51c0,0-28.6-76-48.08-61.28s28,53.42,30.87,58.41c0,0-67.16-55.49-71.08-25.34-.62,4.8,6.83,13,20.29,17.84,16.42,5.93,39.42,10.25,51.66,28.19" transform="translate(-15.8 -43.05)"/><g class="cls-12"><path class="cls-13" d="M176,267.07a50.72,50.72,0,0,1,3.46,8.1c1.26,3.64,2.33,7.34,3.29,11.07,1.12,4.36,2.1,8.77,3,13.18q1.48,7.32,2.74,14.68,1.31,7.62,2.41,15.27T193,344.58q.92,7.21,1.7,14.44.7,6.41,1.28,12.81c.32,3.49.62,7,.88,10.49.18,2.49.31,5,.43,7.46,0,.42.06.85.06,1.27a.3.3,0,0,0,.59,0c0-2.21,0-4.4-.1-6.61q-.24-4.94-.64-9.87-.51-6.19-1.15-12.38-.72-7.11-1.58-14.21-.9-7.59-2-15.15t-2.35-15.4c-.82-5-1.7-9.95-2.69-14.89-.92-4.57-1.91-9.12-3-13.64-1-3.91-2-7.8-3.31-11.62a61.87,61.87,0,0,0-3.61-8.9q-.42-.84-.9-1.65a.34.34,0,0,0-.59.34Z" transform="translate(-15.8 -43.05)"/></g><g class="cls-12"><path class="cls-13" d="M144.44,298.57a87.12,87.12,0,0,1,11.79,14.26c4.57,6.53,8.72,13.35,12.71,20.24,4.21,7.29,8.2,14.7,12,22.19,3.42,6.69,6.72,13.44,9.82,20.28,2.16,4.76,4.27,9.54,6.12,14.42.15.39.33.77.45,1.16s.69.21.57-.15c-.63-2-1.26-3.87-2-5.79q-1.53-3.93-3.24-7.79c-3-6.72-6.12-13.34-9.4-19.9q-5.66-11.31-11.9-22.31c-4-7.08-8.25-14.05-12.87-20.76a96.09,96.09,0,0,0-12.21-15.06c-.45-.43-.91-.85-1.38-1.27s-.8.19-.48.48Z" transform="translate(-15.8 -43.05)"/></g><g class="cls-12"><path class="cls-13" d="M112.07,325.9a125.37,125.37,0,0,1,15.26,5.8,157.39,157.39,0,0,1,17,9A166.22,166.22,0,0,1,162,353.07a174.51,174.51,0,0,1,17.33,15.85,186.47,186.47,0,0,1,16.18,19.62c.63.89,1.27,1.78,1.92,2.65.22.3.71,0,.51-.29a107.87,107.87,0,0,0-7.49-10.65q-3.91-5-8.19-9.68A169.66,169.66,0,0,0,164.85,354,171.1,171.1,0,0,0,147,341.14a153.62,153.62,0,0,0-17.3-9.38,116.34,116.34,0,0,0-15.69-6l-1.78-.51a.34.34,0,0,0-.18.66Z" transform="translate(-15.8 -43.05)"/></g><path class="cls-21" d="M204.56,411.2c-2.61,14.12-10.2,27.14-22.48,34.93-14.86,9.35-33,10.45-50,10.29l-5.63-.1-5.63.1c-17.08.16-35.19-.94-50-10.29a47,47,0,0,1-12-11A55.42,55.42,0,0,1,48.26,411.2a68.88,68.88,0,0,1-.13-23.83A86.32,86.32,0,0,1,54,367.2c6.57-15.31,16.66-28.78,27.31-41.49.13-.13.22-.25.35-.38a138.49,138.49,0,0,0,32.74-89.09V168.31h23.93v67.93a137.27,137.27,0,0,0,11.48,54.87,139.66,139.66,0,0,0,21.26,34.22l.36.38c4.47,5.37,8.84,10.84,12.89,16.53a132,132,0,0,1,14.41,25C204.69,381.1,207.36,396.21,204.56,411.2Z" transform="translate(-15.8 -43.05)"/><path class="cls-22" d="M199.82,409.57c-2.45,13.26-9.58,25.5-21.12,32.81-14,8.79-31,9.82-47,9.67l-5.28-.1-5.29.09c-16,.16-33.05-.87-47-9.66A44.26,44.26,0,0,1,62.82,432,52.14,52.14,0,0,1,53,409.57a64.72,64.72,0,0,1-.12-22.38,80.94,80.94,0,0,1,5.56-18.94c6.16-14.38,15.65-27,25.65-39,.12-.12.21-.25.33-.37,19.72-23.44,33.64-53,33.64-83.68V168.31H133.9v76.92a128.81,128.81,0,0,0,10.78,51.54c5,11.54,15.5,22.39,23.72,32.14.12.12.21.25.33.37,4.2,5,8.31,10.18,12.11,15.52a124.15,124.15,0,0,1,13.54,23.45C199.94,381.3,202.44,395.49,199.82,409.57Z" transform="translate(-15.8 -43.05)"/><path class="cls-23" d="M161.63,409.57c-1.17,13.26-4.59,25.5-10.13,32.81-6.7,8.79-14.86,9.82-22.55,9.67l-2.54-.1-2.54.09c-7.69.16-15.85-.87-22.55-9.66A41,41,0,0,1,95.9,432a88.73,88.73,0,0,1-4.71-22.45,134.91,134.91,0,0,1-.06-22.38,153.66,153.66,0,0,1,2.67-18.94c3-14.38,7.51-27,12.31-39,0-.12.1-.25.16-.37a228.66,228.66,0,0,0,16.14-83.68V168.31H130v76.92a253.28,253.28,0,0,0,5.18,51.54c2.4,11.54,7.43,22.39,11.38,32.14.06.12.1.25.16.37,2,5,4,10.18,5.81,15.52A188.22,188.22,0,0,1,159,368.25,144,144,0,0,1,161.63,409.57Z" transform="translate(-15.8 -43.05)"/><path class="cls-24" d="M142.31,168.33H112.56a5.19,5.19,0,0,1-5.19-5.2h0a5.19,5.19,0,0,1,5.19-5.2h29.75a5.2,5.2,0,0,1,5.2,5.2h0A5.2,5.2,0,0,1,142.31,168.33Z" transform="translate(-15.8 -43.05)"/><path class="cls-25" d="M199.81,410.31C197.27,424.08,190,435.39,179.5,442c-13.36,8.45-29.95,9.55-44.46,9.55h-3l-2.79,0-2.94,0-2.82,0-2.79,0h-3c-14.5,0-31.09-1.1-44.42-9.55-10.57-6.64-17.8-17.95-20.34-31.72-2.42-13.07-.58-27,5.51-41.22a112.48,112.48,0,0,1,5.32-10.72,11.3,11.3,0,0,1,2.94.88c.48.22.92.44,1.36.69a38.36,38.36,0,0,1,4.77,3.27c2.09,1.62,4.11,3.38,6.24,4.92,4.77,3.49,10.24,5.84,16.27,5.54,6.75-.36,12.59-4.07,18.61-6.79,3.82-1.69,7.67-3.3,11.86-3.78a29.62,29.62,0,0,1,11.34,1.18c7.23,2.13,13.58,6.09,21.11,7.34a38.58,38.58,0,0,0,23.39-3.42,42.36,42.36,0,0,0,5.47-3.08,39.63,39.63,0,0,0,3.89-2.83c1.17,2.24,2.27,4.48,3.23,6.8C200.43,383.33,202.27,397.24,199.81,410.31Z" transform="translate(-15.8 -43.05)"/><g class="cls-26"><path class="cls-27" d="M192.65,407.33c-2.32,12.44-8.81,22.61-18.36,28.63-12,7.6-27,8.63-40.09,8.63h-2.68l-2.5-.08-2.64,0-2.57,0-2.53.08h-2.65c-13.1,0-28.08-1-40.09-8.63-9.54-6-16.08-16.19-18.35-28.63-2.2-11.79-.55-24.31,5-37.19.92-2.13,1.91-4.19,3-6.25a38.36,38.36,0,0,1,4.77,3.27c2.09,1.62,4.11,3.38,6.24,4.92,4.77,3.49,10.24,5.84,16.27,5.54,6.75-.36,12.59-4.07,18.61-6.79,3.82-1.69,7.67-3.3,11.86-3.78a29.62,29.62,0,0,1,11.34,1.18c7.23,2.13,13.58,6.09,21.11,7.34a38.58,38.58,0,0,0,23.39-3.42,42.36,42.36,0,0,0,5.47-3.08,10.58,10.58,0,0,1,.51,1.07C193.2,383,194.85,395.54,192.65,407.33Z" transform="translate(-15.8 -43.05)"/></g><g class="cls-26"><path class="cls-28" d="M183.43,397.19c-2,10.69-7.6,19.46-15.78,24.64-10.36,6.53-23.28,7.41-34.51,7.41h-2.32l-2.16,0-2.28,0-2.2,0-2.17,0H119.7c-11.27,0-24.16-.88-34.51-7.41-8.19-5.18-13.8-13.95-15.79-24.64-1.8-9.54-.62-19.68,3.49-30,2.09,1.62,4.11,3.38,6.24,4.92,4.77,3.49,10.24,5.84,16.27,5.54,6.75-.36,12.59-4.07,18.61-6.79,3.82-1.69,7.67-3.3,11.86-3.78a29.62,29.62,0,0,1,11.34,1.18c7.23,2.13,13.58,6.09,21.11,7.34a38.58,38.58,0,0,0,23.39-3.42A52,52,0,0,1,183.43,397.19Z" transform="translate(-15.8 -43.05)"/></g><path class="cls-29" d="M97.76,391.85A8.73,8.73,0,1,1,89,383.12,8.72,8.72,0,0,1,97.76,391.85Z" transform="translate(-15.8 -43.05)"/><path class="cls-30" d="M101,430.05a8.73,8.73,0,1,1-8.73-8.73A8.73,8.73,0,0,1,101,430.05Z" transform="translate(-15.8 -43.05)"/><circle class="cls-31" cx="178.36" cy="390.65" r="8.73" transform="translate(-258.54 431.8) rotate(-76.77)"/><path class="cls-32" d="M141.61,409.41a8.73,8.73,0,1,1-8.73-8.73A8.73,8.73,0,0,1,141.61,409.41Z" transform="translate(-15.8 -43.05)"/><path class="cls-33" d="M132.88,387a5.17,5.17,0,1,1-5.17-5.17A5.17,5.17,0,0,1,132.88,387Z" transform="translate(-15.8 -43.05)"/><path class="cls-34" d="M108.1,409.41a5.17,5.17,0,1,1-5.17-5.17A5.17,5.17,0,0,1,108.1,409.41Z" transform="translate(-15.8 -43.05)"/><path class="cls-35" d="M145.4,426.49a5.17,5.17,0,1,1-5.17-5.17A5.17,5.17,0,0,1,145.4,426.49Z" transform="translate(-15.8 -43.05)"/><path class="cls-36" d="M165.22,389.61a8.73,8.73,0,1,1-8.73-8.73A8.73,8.73,0,0,1,165.22,389.61Z" transform="translate(-15.8 -43.05)"/><path class="cls-37" d="M174,425.27a8.73,8.73,0,1,1-8.73-8.73A8.73,8.73,0,0,1,174,425.27Z" transform="translate(-15.8 -43.05)"/><path class="cls-38" d="M391.71,301.07a4.15,4.15,0,0,1-1.23,3l-.28.26-.1.07a4.1,4.1,0,0,1-2.13.88l-.45,0-46.26-.63-.41,0a4.2,4.2,0,0,1-3.79-4.18,4.23,4.23,0,0,1,4.2-4.2l46.26.64A4.18,4.18,0,0,1,391.71,301.07Z" transform="translate(-15.8 -43.05)"/><path class="cls-39" d="M388.43,300.21a3.42,3.42,0,0,1-.92,2.36l-.21.21-.08.05a2.88,2.88,0,0,1-1.59.7l-.34,0-41.8-.63-.31,0a3.26,3.26,0,0,1-2.84-3.32,3.37,3.37,0,0,1,.93-2.36,3,3,0,0,1,2.22-1l41.8.64A3.24,3.24,0,0,1,388.43,300.21Z" transform="translate(-15.8 -43.05)"/><path class="cls-40" d="M310.16,344.05A67.63,67.63,0,0,1,330.52,331l.5-25.67h-.34a5,5,0,1,1,.19-9.92l48.43.89a5,5,0,1,1-.19,9.91h-.34l-.45,22.94a67.4,67.4,0,0,1,27.23,16.65,63.87,63.87,0,0,1-1.79,92.37c-26.84,25-69.54,24.25-95.39-1.74A63.87,63.87,0,0,1,310.16,344.05Z" transform="translate(-15.8 -43.05)"/><path class="cls-41" d="M297.88,409.7c10.59,31.23,45.62,48.53,78.23,38.63,28-8.48,45.06-34.23,42.66-61.09-7.19,1.28-15.94-1-22-2.59-6.67-1.71-11.68-3.93-18.55-1.21-4.65,1.86-6.93,5.66-11.17,8-13.37,7.45-23.41,2.21-35.86-3.3-10.54-4.68-18.86-3.32-28.15,2.06a58.17,58.17,0,0,1-8.07,4A56.77,56.77,0,0,0,297.88,409.7Z" transform="translate(-15.8 -43.05)"/><path class="cls-42" d="M303.42,411.4c9.73,28.67,41.89,44.56,71.83,35.47,22.19-6.73,36.93-25.31,39.1-46.15a9,9,0,0,0-8-9.82,88.93,88.93,0,0,1-12.2-2.5c-6.12-1.57-10.72-3.61-17-1.11-4.27,1.71-6.36,5.2-10.25,7.38-12.28,6.84-21.5,2-32.93-3-9.68-4.3-17.32-3.05-25.85,1.89-.64.38-1.28.74-1.92,1.09a9.11,9.11,0,0,0-4.64,9.69A52.62,52.62,0,0,0,303.42,411.4Z" transform="translate(-15.8 -43.05)"/><g class="cls-43"><path class="cls-44" d="M323.13,401.89a4.15,4.15,0,0,0-1.6-1.3,4.28,4.28,0,0,0-2-.55,4.06,4.06,0,0,0-2.1.17l-1.29.58a5.15,5.15,0,0,0-1.81,2l-.45,1.25a5.16,5.16,0,0,0,.17,2.75l.09.27a4.09,4.09,0,0,0,1.1,1.81,4,4,0,0,0,1.59,1.29,4.17,4.17,0,0,0,2,.55,4.06,4.06,0,0,0,2.1-.16l1.29-.59a5.19,5.19,0,0,0,1.81-2l.45-1.26a5.12,5.12,0,0,0-.17-2.74l-.09-.28A4.07,4.07,0,0,0,323.13,401.89Z" transform="translate(-15.8 -43.05)"/><path class="cls-45" d="M345.38,426c-6.53,2-3.14,12,3.4,10S351.93,424.05,345.38,426Z" transform="translate(-15.8 -43.05)"/><path class="cls-46" d="M394.65,416.92c-6.54,2-3.15,12,3.4,10S401.19,414.93,394.65,416.92Z" transform="translate(-15.8 -43.05)"/><path class="cls-47" d="M347.14,405.6c-6.54,2-3.15,12,3.4,10S353.69,403.61,347.14,405.6Z" transform="translate(-15.8 -43.05)"/><path class="cls-48" d="M370.68,426.63c-6.54,2-3.15,12,3.4,10.05S377.23,424.65,370.68,426.63Z" transform="translate(-15.8 -43.05)"/><path class="cls-49" d="M323.85,419.15c-6.54,2-3.15,12,3.4,10S330.4,417.17,323.85,419.15Z" transform="translate(-15.8 -43.05)"/><path class="cls-50" d="M402.31,403.88c-6.54,2-3.15,12,3.4,10S408.86,401.9,402.31,403.88Z" transform="translate(-15.8 -43.05)"/><path class="cls-51" d="M379.74,396.68c-6.54,2-3.15,12,3.4,10S386.29,394.69,379.74,396.68Z" transform="translate(-15.8 -43.05)"/></g><path class="cls-52" d="M381.72,349.22c-4-7.23-8.77-12.31-13.87-15.27l.22-28.2H343.73l-.24,29.9a40.45,40.45,0,0,0-10.38,12c-13.68,23-14.09,60.9-.91,84.74s34.93,24.56,48.61,1.59S394.9,373.06,381.72,349.22Z" transform="translate(-15.8 -43.05)"/><path class="cls-53" d="M182.89,112l6.39-39.68c.12-.76,1.44-1.35,3-1.35h115c1.57,0,2.89.59,3,1.35L316.65,112a5,5,0,0,0-3.32-1H186.51a5,5,0,0,0-3.32,1Z" transform="translate(-15.8 -43.05)"/><path class="cls-54" d="M190.73,105.76l7.14-29.62c.18-1.22,2.32-2.17,4.87-2.17h94.07c2.56,0,4.68,1,4.88,2.17,0,0,5.3,21.86,6.25,29.12.17,1.26-1.88,2.32-4.49,2.34l-4.15,0-99.8.56-4.2,0C192.57,108.23,190.42,107.08,190.73,105.76Z" transform="translate(-15.8 -43.05)"/><path class="cls-55" d="M199.5,108.18l5.7-23.65c.17-1,2-1.87,4.19-1.87H290c2.2,0,4,.82,4.19,1.87,0,0,3.79,15.64,5.07,23.09Z" transform="translate(-15.8 -43.05)"/><path class="cls-56" d="M183.19,112a5,5,0,0,1,3.32-1H313.33a5,5,0,0,1,3.32,1,.82.82,0,0,1-.12,1.36l-5,4.12a5.33,5.33,0,0,1-3.19.84H191.52a5.38,5.38,0,0,1-3.19-.84l-5-4.12A.82.82,0,0,1,183.19,112Z" transform="translate(-15.8 -43.05)"/><path class="cls-57" d="M189.46,113.25a4.56,4.56,0,0,1,3.06-.89H309.23a4.67,4.67,0,0,1,3,.87.77.77,0,0,1-.12,1.26l-3.22,2.65a3.74,3.74,0,0,1-2.27.63H195.08a3.74,3.74,0,0,1-2.27-.63l-3.22-2.65A.76.76,0,0,1,189.46,113.25Z" transform="translate(-15.8 -43.05)"/><path class="cls-58" d="M326,383.13l-7.26,70.92c-.14,1.35-1.63,2.4-3.42,2.4H184.82c-1.79,0-3.28-1.05-3.42-2.4l-7.24-70.9a4.43,4.43,0,0,0,3.77,1.69h144a4.4,4.4,0,0,0,3.78-1.71Z" transform="translate(-15.8 -43.05)"/><path class="cls-59" d="M317.12,394.34,309,447.26c-.21,2.19-2.63,3.89-5.53,3.89H196.69c-2.91,0-5.32-1.7-5.55-3.89,0,0-6-39.06-7.09-52-.19-2.24,2.13-4.14,5.09-4.17l4.72,0,113.31-1,4.76-.05C315,389.91,317.48,392,317.12,394.34Z" transform="translate(-15.8 -43.05)"/><path class="cls-60" d="M307.17,390l-6.48,42.27c-.19,1.88-2.26,3.34-4.75,3.34H204.37c-2.49,0-4.56-1.46-4.75-3.34,0,0-4.31-27.94-5.76-41.26Z" transform="translate(-15.8 -43.05)"/><path class="cls-61" d="M325.69,383.13a4.4,4.4,0,0,1-3.78,1.71h-144a4.43,4.43,0,0,1-3.77-1.69,2,2,0,0,1,.14-2.44l5.69-7.36a4.6,4.6,0,0,1,3.63-1.5h132.6a4.6,4.6,0,0,1,3.63,1.5l5.69,7.36A2,2,0,0,1,325.69,383.13Z" transform="translate(-15.8 -43.05)"/><path class="cls-62" d="M325.7,383.12a4.43,4.43,0,0,1-3.79,1.72h-144a4.42,4.42,0,0,1-3.76-1.69,2,2,0,0,1,.15-2.43l5.68-7.38a4.65,4.65,0,0,1,3.62-1.49H316.23a4.69,4.69,0,0,1,3.63,1.49l5.67,7.38A2,2,0,0,1,325.7,383.12Z" transform="translate(-15.8 -43.05)"/><path class="cls-63" d="M318.57,381a4.09,4.09,0,0,1-3.48,1.58H182.59a4.1,4.1,0,0,1-3.47-1.56,1.89,1.89,0,0,1,.13-2.24l3.66-4.74a3.29,3.29,0,0,1,2.58-1.12h126.7a3.29,3.29,0,0,1,2.58,1.12l3.65,4.74A1.86,1.86,0,0,1,318.57,381Z" transform="translate(-15.8 -43.05)"/><path class="cls-64" d="M250.09,110.1c-32,0-57.94,2.58-57.94,5.76v258h0c0,3.18,26,5.76,57.93,5.76S308,377.06,308,373.88h0v-258C308,112.68,282.09,110.1,250.09,110.1Z" transform="translate(-15.8 -43.05)"/><path class="cls-65" d="M285.85,160a4.49,4.49,0,0,1-1.42.23l-64.12.21a4.59,4.59,0,0,1,0-9.18l64.12-.21a4.59,4.59,0,0,1,1.45,9Z" transform="translate(-15.8 -43.05)"/><path class="cls-66" d="M285.85,157.44a4.49,4.49,0,0,1-1.42.23l-64.12.21a4.58,4.58,0,0,1-4.4-3.3,4.72,4.72,0,0,0-.2,1.31,4.59,4.59,0,0,0,4.6,4.57l64.12-.21a4.49,4.49,0,0,0,1.42-.23,4.57,4.57,0,0,0,3.15-4.37,4.37,4.37,0,0,0-.2-1.26A4.59,4.59,0,0,1,285.85,157.44Z" transform="translate(-15.8 -43.05)"/><path class="cls-67" d="M212.36,361.25a4.53,4.53,0,0,1-2.8.07,4.59,4.59,0,0,1-3.12-5.69c5.32-18.14,21.48-37.21,46.75-55.14,23.31-16.53,34.45-33.95,33.11-51.76-2.22-29.65-39-55.76-58.12-65.42a32.26,32.26,0,0,1-10-7.83c-4.84-5.67-10.83-15.73-11.82-31.5a4.59,4.59,0,1,1,9.16-.57c.83,13.23,5.7,21.5,9.64,26.11a23.34,23.34,0,0,0,7.16,5.6c2.45,1.23,60,30.75,63.14,72.92,1.59,21.25-10.85,41.41-37,59.94-23.57,16.72-38.52,34.09-43.25,50.23A4.56,4.56,0,0,1,212.36,361.25Z" transform="translate(-15.8 -43.05)"/><path class="cls-68" d="M256,309.78c-2.35-1.16-6-3.21-8.84-4.85q-3.53,2.69-6.77,5.39l5.09,7.7Q250.39,313.9,256,309.78Z" transform="translate(-15.8 -43.05)"/><path class="cls-69" d="M243.8,192.61a157.74,157.74,0,0,1,13,9.81c1.34-2.7,2.93-6.21,4-8.56-2.44-2-4.84-3.8-7.17-5.48Z" transform="translate(-15.8 -43.05)"/><path class="cls-70" d="M287.48,361.59a5.53,5.53,0,0,1-.7.18,4.6,4.6,0,0,1-5.34-3.7c-2.71-14.92-14.34-31.21-34.56-48.43-27.89-23.73-40.34-47.5-37-70.65,5.44-37.77,51.18-60,60.3-64,6.63-2.95,12-9.08,14.73-16.8a57.11,57.11,0,0,0,3-14,4.59,4.59,0,1,1,9.14.83,66.54,66.54,0,0,1-3.48,16.19c-3.57,10.09-10.73,18.15-19.66,22.13-8.34,3.72-50.2,23.93-55,56.93-2.85,19.82,8.54,40.8,33.87,62.35,21.88,18.63,34.54,36.72,37.64,53.78A4.6,4.6,0,0,1,287.48,361.59Z" transform="translate(-15.8 -43.05)"/><path class="cls-71" d="M280.88,231.49a4.4,4.4,0,0,1-1.45.22L223,231.14a4.59,4.59,0,0,1,.1-9.18l56.46.57a4.59,4.59,0,0,1,1.36,9Z" transform="translate(-15.8 -43.05)"/><path class="cls-72" d="M280.88,228.91a4.68,4.68,0,0,1-1.45.22L223,228.56a4.56,4.56,0,0,1-4.33-3.3,4.67,4.67,0,0,0-.21,1.25,4.59,4.59,0,0,0,4.54,4.63l56.47.57a4.4,4.4,0,0,0,1.45-.22,4.61,4.61,0,0,0,3.19-4.32,4.45,4.45,0,0,0-.21-1.32A4.59,4.59,0,0,1,280.88,228.91Z" transform="translate(-15.8 -43.05)"/><path class="cls-73" d="M288.59,255.26a5,5,0,0,1-1.35.18l-70.71-1.36a4.59,4.59,0,0,1,.18-9.18l70.7,1.36a4.59,4.59,0,0,1,1.18,9Z" transform="translate(-15.8 -43.05)"/><path class="cls-74" d="M288.59,252.28a4.63,4.63,0,0,1-1.35.17l-70.71-1.35A4.57,4.57,0,0,1,212.3,248a4.52,4.52,0,0,0,4.23,6.07l70.71,1.36a5,5,0,0,0,1.35-.18,4.59,4.59,0,0,0,3.32-4.33,4.47,4.47,0,0,0-.26-1.55A4.58,4.58,0,0,1,288.59,252.28Z" transform="translate(-15.8 -43.05)"/><path class="cls-75" d="M276.89,346.84a4.74,4.74,0,0,1-1.42.22L221.66,347a4.59,4.59,0,0,1,0-9.18l53.81.05a4.59,4.59,0,0,1,1.41,9Z" transform="translate(-15.8 -43.05)"/><path class="cls-76" d="M276.89,344.09a4.45,4.45,0,0,1-1.42.23l-53.81-.06a4.57,4.57,0,0,1-4.35-3.21,4.36,4.36,0,0,0-.23,1.36,4.58,4.58,0,0,0,4.58,4.6l53.81.05a4.74,4.74,0,0,0,1.42-.22,4.52,4.52,0,0,0,2.95-5.71A4.58,4.58,0,0,1,276.89,344.09Z" transform="translate(-15.8 -43.05)"/><circle class="cls-77" cx="199.23" cy="207.12" r="8.65"/><circle class="cls-78" cx="199.23" cy="207.12" r="7.01"/><circle class="cls-79" cx="218.66" cy="343.02" r="8.65" transform="translate(-170.68 461.02) rotate(-80.81)"/><path class="cls-80" d="M225.67,343a7,7,0,1,1-7-7A7,7,0,0,1,225.67,343Z" transform="translate(-15.8 -43.05)"/><circle class="cls-81" cx="217.08" cy="225.67" r="8.65" transform="translate(-110.84 207.84) rotate(-50.73)"/><path class="cls-82" d="M224.08,225.67a7,7,0,1,1-7-7A7,7,0,0,1,224.08,225.67Z" transform="translate(-15.8 -43.05)"/><circle class="cls-83" cx="215.03" cy="157.43" r="8.65" transform="translate(-64.14 155.11) rotate(-45)"/><path class="cls-84" d="M222,157.43a7,7,0,1,1-7-7A7,7,0,0,1,222,157.43Z" transform="translate(-15.8 -43.05)"/><circle class="cls-85" cx="276.12" cy="209.25" r="8.65"/><path class="cls-86" d="M298.92,252.3a7,7,0,1,1-7-7A7,7,0,0,1,298.92,252.3Z" transform="translate(-15.8 -43.05)"/><circle class="cls-87" cx="285.64" cy="228.04" r="8.65" transform="translate(-17.53 410.84) rotate(-76.77)"/><circle class="cls-88" cx="269.84" cy="184.99" r="7"/><circle class="cls-89" cx="290.21" cy="155.77" r="8.65" transform="translate(-40.94 207.78) rotate(-45)"/><path class="cls-90" d="M297.22,155.77a7,7,0,1,1-7-7A7,7,0,0,1,297.22,155.77Z" transform="translate(-15.8 -43.05)"/><circle class="cls-91" cx="281.56" cy="343.02" r="8.65" transform="translate(-117.83 523.12) rotate(-80.81)"/><path class="cls-92" d="M288.57,343a7,7,0,1,1-7-7A7,7,0,0,1,288.57,343Z" transform="translate(-15.8 -43.05)"/><path class="cls-93" d="M216.43,375.3c7.11.85,16.44,1.43,26.87,1.61-12-.16-22.75-.74-30.88-1.61-9.65-1-15.61-2.43-15.62-4V118.42c0-2.87,20.27-5.23,46.5-5.58-23.09.39-40.84,2.74-40.84,5.58v252.9C202.47,372.87,207.81,374.28,216.43,375.3Z" transform="translate(-15.8 -43.05)"/><path class="cls-94" d="M303.4,118.42v252.9h0c0,2.87-20.29,5.24-46.51,5.59,23.07-.4,40.82-2.75,40.84-5.59V118.42c0-2.84-17.75-5.19-40.84-5.58C283.11,113.19,303.4,115.55,303.4,118.42Z" transform="translate(-15.8 -43.05)"/><path class="cls-95" d="M305.93,131V302.41a3.16,3.16,0,0,1-2.46,3.11c-6.6,1.49-17.32,2.64-30.14,3.17A3.19,3.19,0,0,1,270,305.5V133.91a3.19,3.19,0,0,1,3.06-3.19c12.08-.49,22.31-1.53,29-2.89A3.2,3.2,0,0,1,305.93,131Z" transform="translate(-15.8 -43.05)"/><path class="cls-96" d="M200.83,307.16v54.9a3.17,3.17,0,0,0,2.47,3.11c6.6,1.49,17.32,2.64,30.13,3.17a3.19,3.19,0,0,0,3.33-3.19v-55a3.19,3.19,0,0,0-3.06-3.19c-12.07-.49-22.31-1.53-29-2.89A3.2,3.2,0,0,0,200.83,307.16Z" transform="translate(-15.8 -43.05)"/><path class="cls-97" d="M308,115.86c0,3.18-25.94,5.76-57.94,5.76s-57.94-2.58-57.94-5.76,25.94-5.76,57.94-5.76S308,112.68,308,115.86Z" transform="translate(-15.8 -43.05)"/><path class="cls-98" d="M459.68,246.39l-16.12,20.49-5.27,6.69a7.27,7.27,0,0,1-11,.52l-26.44-27.62s-3.68,1-8.61-2.52l-6.91-.95s-2.3-1.92,3.76-.92l.41-1.06-6.21-1.75s-1.86-2.83,6.88.59l.57-1.25-6.28-4.48s-.54-3.28,7.1,3.13l.76-1.09-5.68-5.08s-.29-3.69,7.82,4.21l3.9,1.7,1.3-1.72s-2.36-4.49.12-5.39a11.62,11.62,0,0,0,2.24,5.5,6.79,6.79,0,0,1,1.33,3.82l.07,3s23.32,16.67,27.58,19.62l4.19-5.45h0l16.31-21.25a1.14,1.14,0,0,1,1.9.14Z" transform="translate(-15.8 -43.05)"/><path class="cls-99" d="M459.68,246.39l-16.12,20.49-5.27,6.68a7.27,7.27,0,0,1-11,.54l-23.59-24.65a30.69,30.69,0,0,0,1.7-2.56c.46-.77.89-1.56,1.29-2.35l.46.32c6.76,4.83,20.65,14.74,23.85,16.94l4.19-5.44h0l16.32-21.25a1.13,1.13,0,0,1,1.89.14l3.57,6.37,1.27,2.24Z" transform="translate(-15.8 -43.05)"/><path class="cls-100" d="M458.26,243.85l-14.7,18.68-5.27,6.68a7.27,7.27,0,0,1-11,.53l-21.89-22.85c.46-.77.89-1.56,1.29-2.35l.46.32c6.76,4.83,20.65,14.74,23.85,16.94l4.19-5.44h0l16.32-21.25a1.13,1.13,0,0,1,1.89.14l3.57,6.37Z" transform="translate(-15.8 -43.05)"/><path class="cls-101" d="M457,241.61l-13.43,17.08-5.27,6.68a7.27,7.27,0,0,1-11,.53l-20.14-21c6.76,4.83,20.65,14.74,23.85,16.94l4.19-5.44h0l16.32-21.25a1.13,1.13,0,0,1,1.89.14Z" transform="translate(-15.8 -43.05)"/><polygon class="cls-102" points="296.33 237.92 287.17 259.13 290.61 260.84 302.14 240.81 296.33 237.92"/><path class="cls-103" d="M313.55,288a14.78,14.78,0,0,1,1.23,1.37l3.16-5.49L312.13,281l-2,4.69A11.15,11.15,0,0,1,313.55,288Z" transform="translate(-15.8 -43.05)"/><polygon class="cls-104" points="306.76 243.09 297.6 264.3 301.03 266.01 312.57 245.98 306.76 243.09"/><path class="cls-105" d="M324,293.15a13.47,13.47,0,0,1,1.23,1.37l3.17-5.49-5.82-2.89-2,4.69A11.22,11.22,0,0,1,324,293.15Z" transform="translate(-15.8 -43.05)"/><polygon class="cls-106" points="325.15 252.5 315.99 273.7 319.42 275.42 330.96 255.39 325.15 252.5"/><path class="cls-107" d="M342.36,302.56a13.56,13.56,0,0,1,1.24,1.37l3.16-5.49L341,295.55l-2,4.69A10.82,10.82,0,0,1,342.36,302.56Z" transform="translate(-15.8 -43.05)"/><polygon class="cls-108" points="294.17 230.72 294.97 237.24 314.26 246.84 319.28 243.41 294.17 230.72"/><polygon class="cls-109" points="340.27 254.01 333.15 256.88 330.33 255.41 324.98 252.64 322.98 251.59 322.34 244.95 340.27 254.01"/><path class="cls-110" d="M365.1,295h0a6.91,6.91,0,0,1-8.92,2.44l-47.05-23.79a6.9,6.9,0,0,1-2.76-9.79l.3-.48a6.89,6.89,0,0,1,9-2.49l46.76,24.26A6.9,6.9,0,0,1,365.1,295Z" transform="translate(-15.8 -43.05)"/><path class="cls-111" d="M339.1,376.22v1.41l-8-.78-6.54-.63c-1.52-5.86-16.16-6-16.16-6v-8.12C324.18,360.75,339.1,376.22,339.1,376.22Z" transform="translate(-15.8 -43.05)"/><path class="cls-112" d="M331.1,376.85l-6.54-.63c-1.52-5.86-16.16-6-16.16-6v-5l1.71-1.16S330.13,366.69,331.1,376.85Z" transform="translate(-15.8 -43.05)"/><path class="cls-113" d="M414.73,339.56C398,403,338.25,392.82,338.25,392.82V376.11c53.82,6.8,63.45-47.88,63.45-47.88,7.94-58.18-31.43-50.26-39-48.23-.8.21-1.24.36-1.24.36l.16-.21,13.28-18.88,3-4.25C432.29,275.61,414.73,339.56,414.73,339.56Z" transform="translate(-15.8 -43.05)"/><path class="cls-114" d="M405.17,336.28c-13,49.29-54,50.62-66.92,49.76v-9.93c53.82,6.8,63.45-47.88,63.45-47.88,7.94-58.18-31.43-50.26-39-48.23-.37,0-.74.1-1.08.15l13.28-18.88C420.59,280.13,405.17,336.28,405.17,336.28Z" transform="translate(-15.8 -43.05)"/><path class="cls-115" d="M391.5,283.74a41.57,41.57,0,0,1,12-7.62c.47-.22.95-.4,1.42-.6-6-7.66-14.63-14.26-27-18.49l-16.43,23.33S379.27,274.4,391.5,283.74Z" transform="translate(-15.8 -43.05)"/><path class="cls-116" d="M362,382.21A61.92,61.92,0,0,0,348,379c-2.47-.26-4.95-.35-7.43-.39-.66,0-1.46-.06-2.29-.07v14.24a75.15,75.15,0,0,0,36.24-4.34A58.51,58.51,0,0,0,362,382.21Z" transform="translate(-15.8 -43.05)"/><path class="cls-117" d="M399.72,235.32l-34.73,53a6.25,6.25,0,0,1-5.61,2.84,17.26,17.26,0,0,1-15-9.53,6.17,6.17,0,0,1-.23-5.43,5.56,5.56,0,0,1,.57-1l35.14-52.32,2.3,1.44,15,9.44.65.41Z" transform="translate(-15.8 -43.05)"/><path class="cls-118" d="M350,275a16.31,16.31,0,0,0,6,.2c9.51-1.49,15.41-10.22,20.81-17.31a131.59,131.59,0,0,0,10-14.78c1.46-2.58,2.85-5.14,4.54-7.59a17.8,17.8,0,0,0,2-3.55c.07-.18.15-.35.22-.53l-11.32-7.12-2.3-1.43L346,273.25A8.55,8.55,0,0,0,350,275Z" transform="translate(-15.8 -43.05)"/><polygon class="cls-119" points="384.19 185.88 381.41 190.69 366.38 181.24 368.82 177.01 384.19 185.88"/><path class="cls-120" d="M404.37,228.47l-.32.55a3.33,3.33,0,0,1-4.66,1.16l-14.5-9.11a3.33,3.33,0,0,1-1.11-4.49h0a3.33,3.33,0,0,1,4.56-1.22l14.81,8.55A3.33,3.33,0,0,1,404.37,228.47Z" transform="translate(-15.8 -43.05)"/><circle class="cls-121" cx="391.57" cy="255.5" r="16.78" transform="translate(-91.32 233.34) rotate(-35.69)"/><circle class="cls-122" cx="391.57" cy="255.5" r="13.55" transform="translate(-91.31 233.51) rotate(-35.71)"/><circle class="cls-123" cx="391.57" cy="255.5" r="11.46" transform="translate(-44.01 6.56) rotate(-7)"/><path class="cls-124" d="M382.22,274.21a7.44,7.44,0,1,1-7.43-7.44A7.43,7.43,0,0,1,382.22,274.21Z" transform="translate(-15.8 -43.05)"/><path class="cls-122" d="M381.14,274.21a6.36,6.36,0,1,1-6.35-6.36A6.35,6.35,0,0,1,381.14,274.21Z" transform="translate(-15.8 -43.05)"/><path class="cls-125" d="M379.86,274.21a5.08,5.08,0,1,1-5.07-5.08A5.07,5.07,0,0,1,379.86,274.21Z" transform="translate(-15.8 -43.05)"/><path class="cls-126" d="M379.32,426.63H279.77a12.71,12.71,0,0,0-12.16,9l-1.23,4H386.49Z" transform="translate(-15.8 -43.05)"/><path class="cls-127" d="M376.78,428.23H284.11c-5.6,0-10.53,3-12.16,7.29l-1.23,3.26H382.15Z" transform="translate(-15.8 -43.05)"/><path class="cls-128" d="M377.56,429.76H298.34c-4.78,0-9,2.53-10.39,6.24l-1,2.78h95.25Z" transform="translate(-15.8 -43.05)"/><rect class="cls-129" x="250.59" y="396.61" width="120.11" height="13.98"/><rect class="cls-130" x="254.86" y="397.18" width="111.56" height="13.41"/><rect class="cls-131" x="256.87" y="399.67" width="107.55" height="10.91"/><path class="cls-132" d="M261.07,364.93v8.78c0,4.15,13,7.51,29.11,7.51s29.11-3.36,29.11-7.51v-8.78Z" transform="translate(-15.8 -43.05)"/><ellipse class="cls-133" cx="274.38" cy="321.88" rx="29.11" ry="7.51"/><path class="cls-134" d="M314.43,364.93c0,3.46-10.85,6.26-24.25,6.26s-24.25-2.8-24.25-6.26,10.85-6.26,24.25-6.26S314.43,361.48,314.43,364.93Z" transform="translate(-15.8 -43.05)"/><path class="cls-135" d="M266.38,357.42v7.18c0,3.39,10.66,6.14,23.8,6.14S314,368,314,364.6v-7.18Z" transform="translate(-15.8 -43.05)"/><ellipse class="cls-136" cx="274.38" cy="314.37" rx="23.8" ry="6.14"/><ellipse class="cls-137" cx="274.38" cy="314.37" rx="19.83" ry="5.11"/><path class="cls-138" d="M299.77,358c-1.32-1.36-3.33-1.84-5.07-2.45a42.22,42.22,0,0,0-6.19-2,6.55,6.55,0,0,0-5,.79c-1,.7-2.44,2.5-1.38,3.74.63.73,1.74.56,2.6.56l3.8,0a7.56,7.56,0,0,0,1.15.54,10.18,10.18,0,0,0,3,.59,24.18,24.18,0,0,0,6.81-.94A.48.48,0,0,0,299.77,358Z" transform="translate(-15.8 -43.05)"/><path class="cls-139" d="M338.25,377.54v15.28c-18.19,7.23-35.62,8-51.21-6.81a6.41,6.41,0,0,1-2-4.65,6.33,6.33,0,0,1,.07-1,6.4,6.4,0,0,1,8.13-5.15c.92.28,1.81.54,2.68.78,18.51,5.25,28.37,5.5,28.66.2l5.87.57Z" transform="translate(-15.8 -43.05)"/><path class="cls-140" d="M331.13,377.18c-6.58,15-29,2.68-35.23-1.16,18.51,5.25,28.37,5.5,28.66.2l5.87.57Z" transform="translate(-15.8 -43.05)"/><path class="cls-141" d="M295.76,381.22a4.71,4.71,0,1,1-4.71-4.71A4.71,4.71,0,0,1,295.76,381.22Z" transform="translate(-15.8 -43.05)"/><path class="cls-142" d="M295.07,381.22a4,4,0,1,1-4-4A4,4,0,0,1,295.07,381.22Z" transform="translate(-15.8 -43.05)"/><path class="cls-143" d="M294.26,381.22a3.22,3.22,0,1,1-3.21-3.22A3.21,3.21,0,0,1,294.26,381.22Z" transform="translate(-15.8 -43.05)"/><path class="cls-144" d="M379.32,426.63H298.87c2-17.35,8.69-30.43,22.09-37.32a40.58,40.58,0,0,1,35.56-.58l.67.32C370.62,395.57,377.7,408.39,379.32,426.63Z" transform="translate(-15.8 -43.05)"/><path class="cls-145" d="M379.32,426.63H298.87c2-17.35,8.69-30.43,22.09-37.32a40.58,40.58,0,0,1,35.56-.58l.67.32C370.62,395.57,377.7,408.39,379.32,426.63Z" transform="translate(-15.8 -43.05)"/><path class="cls-146" d="M373.75,426.63H304.44c1.73-14.95,7.48-26.21,19-32.15a34.94,34.94,0,0,1,30.63-.5l.58.27C366.25,399.87,372.36,410.91,373.75,426.63Z" transform="translate(-15.8 -43.05)"/><path class="cls-147" d="M362,426.63H316.21c1.14-9.87,4.94-17.31,12.57-21.23a23.1,23.1,0,0,1,20.23-.34l.38.19C357,409,361.06,416.25,362,426.63Z" transform="translate(-15.8 -43.05)"/><path class="cls-148" d="M470.43,199.41c-1.86-1.32-3.93-1.81-5.81-3-5.68-3.67-8-12.47-12.3-18.62-3.28-4.7-7.9-7.9-12.52-8.66a13.26,13.26,0,0,0-4.95.12,19.64,19.64,0,0,0-6.2-1c-5.22-.15-10.55.63-14.61,4.1s-6.53,10.19-4.86,16.79c.9,3.58,2.94,7.09,2.65,10.62-.24,2.9-2,4.9-3.46,7A17.59,17.59,0,0,0,405,216.87c.06,3.94,2,8.36,5,9.91,2.69,1.39,6.12.68,7.94,3.67,1.46,2.41.76,5.61,1.48,8.41a8,8,0,0,0,6.85,6c2.8.15,5.29-1.45,7.44-3.36s4.08-4.21,6.44-5.71,5.33-2.13,8-.6c1.6.91,3,2.5,4.61,3.27a8.57,8.57,0,0,0,4.94.4c2.82-.39,6-1.46,6.71-4.89.23-1.18.12-2.5.35-3.68.6-3.08,3.21-4.37,5.28-6A15.69,15.69,0,0,0,476,212.76C476.28,207.77,474.12,202,470.43,199.41Z" transform="translate(-15.8 -43.05)"/><rect class="cls-98" x="439.78" y="200.9" width="11.36" height="15.26" transform="translate(-61.96 150.47) rotate(-23.34)"/><path class="cls-98" d="M435.45,207.37c3.86-2.73,7.58-5.65,11.53-8.25a1.3,1.3,0,0,1,.63-.2c1.77-2,7.16-9.34,0-19.34,0,0-11.52-15.11-26.63,2.09,0,0-4.39,4.83.4,13.93a3.9,3.9,0,0,1,0,2.34l-.13.44c-.13.4-.92,1.56-1.25,2.15a1.49,1.49,0,0,0,.41,1.95,5.15,5.15,0,0,0,1,.57l1.21.37,2.72,3.38c.13.25.25.48.35.72.41.88,2,3.79,5.13,2.59l2.58-1.47.81-.45.16-.09.29-.18.46-.27A2.06,2.06,0,0,1,435.45,207.37Z" transform="translate(-15.8 -43.05)"/><path class="cls-149" d="M431.87,197.08a2.8,2.8,0,1,1-2.8-2.8A2.8,2.8,0,0,1,431.87,197.08Z" transform="translate(-15.8 -43.05)"/><g class="cls-150"><path class="cls-98" d="M425,203.58a4.4,4.4,0,0,0,3-2.88.36.36,0,0,1,.41-.27.35.35,0,0,1,.26.41,5.1,5.1,0,0,1-3.42,3.39C424.84,204.36,424.62,203.71,425,203.58Z" transform="translate(-15.8 -43.05)"/></g><path class="cls-148" d="M456,193.15a22.11,22.11,0,0,0-3.05-10.25,26.08,26.08,0,0,0-11.65-10.21,15.14,15.14,0,0,0-4.77-1.4,19.29,19.29,0,0,0-6.13.72,26.86,26.86,0,0,0-8.47,3.49,13,13,0,0,0-4.92,5.15,6.58,6.58,0,0,0,0,5.88,3.65,3.65,0,0,0,2.46,1.9,12.74,12.74,0,0,0,3.11-.39,4.79,4.79,0,0,1,4.84,3.09c.41,1.15.36,2.46,1,3.51,1.35,2.33,4.68,1.71,5.73-.48a10.79,10.79,0,0,1,1.16-2.27,3.28,3.28,0,0,1,2.56-1.17,3.45,3.45,0,0,1,3.21,2.89,4.32,4.32,0,0,1-.62,2.95,2.7,2.7,0,0,0-.06,2.49,2.21,2.21,0,0,0,.5.71,6.46,6.46,0,0,0,9.43-.35C452.4,197,454.74,194.34,456,193.15Z" transform="translate(-15.8 -43.05)"/><g class="cls-151"><path class="cls-98" d="M436.78,200.1l.07,0c2-1.25,3.22-2.68,3.57-4.26a4.23,4.23,0,0,0-.43-3,.35.35,0,0,0-.47-.1.36.36,0,0,0-.11.48h0a3.51,3.51,0,0,1,.34,2.51c-.32,1.39-1.41,2.67-3.26,3.82a.35.35,0,0,0,.29.62Z" transform="translate(-15.8 -43.05)"/><path class="cls-98" d="M435.41,199.11h0a.34.34,0,0,0,.18-.45c-.67-1.58,1.15-2.58,1.23-2.62a.34.34,0,0,0,.14-.46.34.34,0,0,0-.46-.15c-.85.46-2.27,1.78-1.54,3.5A.34.34,0,0,0,435.41,199.11Z" transform="translate(-15.8 -43.05)"/></g><path class="cls-148" d="M425.29,192.47h0l.08-.05a3.37,3.37,0,0,0-3.25-1.1,1.07,1.07,0,0,0-.52.23.51.51,0,0,0-.15.55.61.61,0,0,0,.54.27,5.23,5.23,0,0,0,1.3-.14,3.58,3.58,0,0,1,1.3-.07A1.5,1.5,0,0,1,425.29,192.47Z" transform="translate(-15.8 -43.05)"/><path class="cls-148" d="M424.4,195.36c.18.73-.06,1.46-.54,1.63s-1-.31-1.22-1.05.05-1.47.54-1.63S424.21,194.62,424.4,195.36Z" transform="translate(-15.8 -43.05)"/><path class="cls-152" d="M460.76,273.31h-.07C460.58,273.08,460.59,273.07,460.76,273.31Z" transform="translate(-15.8 -43.05)"/><path class="cls-148" d="M477.05,427.71a7.61,7.61,0,0,0-4.22-1.25,5.19,5.19,0,0,0-4,1.83c-1.88,2.32-.75,5-.42,7.68a12.61,12.61,0,0,1-1.92,8.37c-.21.31-.42.62-.65.93a8.78,8.78,0,0,0-1.71,5.11c0-.35,0-.73,0-1.12V449c0-.17,0-.34,0-.51s0-.53,0-.81c0-.93,0-1.93,0-3,0-.26,0-.53,0-.79-.06-3.87-.1-8.22-.07-11.61,0-.88,0-1.68.05-2.42,0-.21,0-.41,0-.6l0-.93c0-.92,0-1.84,0-2.76,0-.56-.06-1.14-.1-1.7,0-.18,0-.37,0-.55-.07-.94-.18-1.88-.32-2.81a14.51,14.51,0,0,1,8.11-1.75l.12,1.51h0l.07.05a7.74,7.74,0,0,1,.94.76l.18.17h0l.17.17,0,0,.23.23c.24.25.5.53.76.85a6.17,6.17,0,0,1,.43.55c.14.19.3.39.44.61a16.07,16.07,0,0,1,1.65,3.11C476.85,427.11,477,427.41,477.05,427.71Z" transform="translate(-15.8 -43.05)"/><path class="cls-148" d="M478.12,444.23c0,.8-.06,1.58-.1,2.34,0,.33,0,.67-.06,1,0,.76-.11,1.51-.18,2.21l-.12,1a3.58,3.58,0,0,1-.62,1.61,4.87,4.87,0,0,1-.35.42,3.36,3.36,0,0,1-.88.58l-.37.12-.39.08-.27,0h-8a2.58,2.58,0,0,1-2.18-1.31,3.55,3.55,0,0,1-.41-1.07,4.07,4.07,0,0,1-.06-.61v-.27a8.78,8.78,0,0,1,1.71-5.11c.23-.31.44-.62.65-.93a12.61,12.61,0,0,0,1.92-8.37c-.33-2.63-1.46-5.36.42-7.68a5.19,5.19,0,0,1,4-1.83,7.61,7.61,0,0,1,4.22,1.25,16.76,16.76,0,0,1,.64,2.6,2.88,2.88,0,0,1,.05.33c0,.18.05.36.07.56s.05.43.07.64,0,.44,0,.67,0,.25,0,.38,0,.29,0,.44c0,.35,0,.7,0,1.05s0,.68,0,1v.07c0,.08,0,.17,0,.25,0,.25,0,.48,0,.72s0,.64,0,1v.1c0,.64,0,1.27,0,1.89C478.16,441.08,478.16,442.69,478.12,444.23Z" transform="translate(-15.8 -43.05)"/><path class="cls-153" d="M478.12,444.23c0,.8-.06,1.58-.1,2.34,0,.33,0,.67-.06,1,0,.76-.11,1.51-.18,2.21l-.12,1a3.58,3.58,0,0,1-.62,1.61,4.87,4.87,0,0,1-.35.42,3.36,3.36,0,0,1-.88.58l-.37.12-.39.08-.27,0h-8a2.58,2.58,0,0,1-2.18-1.31,3.55,3.55,0,0,1-.41-1.07,4.07,4.07,0,0,1-.06-.61v-.27a8.78,8.78,0,0,1,1.71-5.11c.23-.31.44-.62.65-.93a12.61,12.61,0,0,0,1.92-8.37c-.33-2.63-1.46-5.36.42-7.68a5.19,5.19,0,0,1,4-1.83,7.61,7.61,0,0,1,4.22,1.25,16.76,16.76,0,0,1,.64,2.6,2.88,2.88,0,0,1,.05.33c0,.18.05.36.07.56s.05.43.07.64,0,.44,0,.67,0,.25,0,.38,0,.29,0,.44c0,.35,0,.7,0,1.05s0,.68,0,1v.07c0,.08,0,.17,0,.25,0,.25,0,.48,0,.72s0,.64,0,1v.1c0,.64,0,1.27,0,1.89C478.16,441.08,478.16,442.69,478.12,444.23Z" transform="translate(-15.8 -43.05)"/><path class="cls-152" d="M464,423.9a41.45,41.45,0,0,1,.12,4.46A44.28,44.28,0,0,0,464,423.9Z" transform="translate(-15.8 -43.05)"/><path class="cls-152" d="M464.14,449.26c0,.39,0,.77,0,1.12,0-.14,0-.26,0-.4Z" transform="translate(-15.8 -43.05)"/><path class="cls-154" d="M471.7,418.78h0a14.51,14.51,0,0,0-8.11,1.75l-.15-.84c0-.19-.06-.39-.11-.58a41.59,41.59,0,0,0-2.05-7.32l-15.91-40.25c-.08-.21-.17-.4-.23-.6h0c-.41-1.08-.78-2.19-1.11-3.31a48.09,48.09,0,0,1-2-15l1.48-58.08.52-20.33,0-.81v-.11h16.61c.05.09.11.22.19.39a65.65,65.65,0,0,1,2.7,6.06c.2.53.4,1.08.6,1.66s.4,1.18.6,1.8a52.64,52.64,0,0,1,1.88,8c1,6.88.6,14.76-3.71,21.83a7.76,7.76,0,0,0-1.4,3.25l-4.33,42,2.29,5.62,2.36,5.81a127.73,127.73,0,0,1,8.95,37.94Z" transform="translate(-15.8 -43.05)"/><path class="cls-155" d="M467.71,418.78h0a18.88,18.88,0,0,0-3.61.2c-.26,0-.51.08-.77.13a41.59,41.59,0,0,0-2.05-7.32l-15.91-40.25c-.08-.21-.17-.4-.23-.6h0c-.41-1.08-.78-2.19-1.11-3.31a48.09,48.09,0,0,1-2-15l1.48-58.08.52-20.33h-4l0-.81v-.11h16.62l.18.39a62.94,62.94,0,0,1,2.7,6.06c.2.53.41,1.08.6,1.66s.4,1.18.61,1.8a53.85,53.85,0,0,1,1.88,8c1,6.88.6,14.76-3.71,21.83a7.64,7.64,0,0,0-1.4,3.25l-4.33,42,2.28,5.62,2.36,5.81a127.74,127.74,0,0,1,9,37.94Z" transform="translate(-15.8 -43.05)"/><path class="cls-155" d="M464.16,419.7h-.72a17.44,17.44,0,0,0-2.51.16,10.79,10.79,0,0,1,2.4-.74,41.59,41.59,0,0,0-2.05-7.32l-15.91-40.25c-.08-.21-.17-.4-.23-.6h0c-.41-1.08-.78-2.19-1.11-3.31a48.09,48.09,0,0,1-2-15l1.48-58.08.52-20.33h9.09l.19.39a63.69,63.69,0,0,1,2.69,6.06c.21.53.41,1.08.61,1.66s.4,1.18.6,1.8a52.64,52.64,0,0,1,1.88,8.05c1,6.88.6,14.76-3.71,21.83a7.76,7.76,0,0,0-1.4,3.25l-4.33,42,2.29,5.62,2.36,5.81a127.73,127.73,0,0,1,8.95,37.94L464.1,419Z" transform="translate(-15.8 -43.05)"/><path class="cls-152" d="M471.91,420.36l-.09-.06,0,0Z" transform="translate(-15.8 -43.05)"/><path class="cls-152" d="M473.21,421.46l-.17-.17.09.08Z" transform="translate(-15.8 -43.05)"/><g class="cls-12"><path class="cls-152" d="M460.76,273.31h-.07C460.58,273.08,460.59,273.07,460.76,273.31Z" transform="translate(-15.8 -43.05)"/></g><path class="cls-152" d="M464,432.31c0-.88,0-1.69.05-2.42C464,430.63,464,431.43,464,432.31Z" transform="translate(-15.8 -43.05)"/><path class="cls-152" d="M464.12,448.49c0,.17,0,.34,0,.51v.26C464.13,449,464.12,448.75,464.12,448.49Z" transform="translate(-15.8 -43.05)"/><path class="cls-152" d="M436.41,442.31l.7-.11Z" transform="translate(-15.8 -43.05)"/><path class="cls-154" d="M454.65,293.54a.68.68,0,0,1,0,.2q0,1.18-.09,2.31a26.09,26.09,0,0,1-5.61,14.26c-.43.55-.87,1-1.26,1.47-.16.14-.28.28-.41.41s-.49.48-.73.7a14.94,14.94,0,0,1-1.49,1.22l.09,53.37v3.46h0l2,67.9.34,2.45,1.16,8.47-1.17-8.47-3.64.12-5.17.15h-.51l0-.11,0-.17-10.25-73.26-.19-1.31c-6.09-28-7.87-47.9-7.61-61.9,0-.41,0-.82,0-1.22,0-.81.05-1.59.08-2.35s.06-1.43.11-2.11.1-1.51.17-2.25c0-.34.05-.68.08-1l.06-.59c0-.46.09-.93.14-1.37l0-.19c0-.46.11-.93.18-1.37l0-.23a.09.09,0,0,1,0,0c0-.21.05-.43.09-.64s.06-.46.1-.68.1-.7.15-1c0-.07,0-.14,0-.21.05-.25.09-.48.13-.72.08-.4.15-.77.22-1.15l.09-.47c.05-.17.08-.34.12-.5s0-.15.05-.23c.05-.24.1-.48.15-.7s.14-.62.22-.9.15-.59.22-.87.15-.55.24-.82.11-.4.17-.59l.08-.27c0-.11.06-.21.1-.32s.14-.45.21-.65h0l.06-.17c.09-.28.18-.53.27-.8s.2-.5.28-.73.08-.21.12-.3l.16-.4.13-.31.15-.34.16-.32.24-.56c0-.08.09-.17.13-.24s0,0,0,0h0l.17-.33a3.24,3.24,0,0,1,.17-.32c.07-.12.15-.27.21-.39l.19-.32c.1-.17.2-.33.31-.49l.06-.12.12-.17a.33.33,0,0,0,.06-.1l.1-.15.07-.08.11-.16.05-.06,0,0h0l.13-.16a.76.76,0,0,1,.11-.14.67.67,0,0,0,.11-.14s.05-.07.08-.09l.07-.08.13-.15a.15.15,0,0,1,.06-.05.12.12,0,0,1,.06-.06h0a.22.22,0,0,1,.06-.07l.13-.12h21.5a58.45,58.45,0,0,1,3.52,8.41,8.46,8.46,0,0,1,.27.91,38.73,38.73,0,0,1,1,4.12c.05.26.1.53.14.77A33.66,33.66,0,0,1,454.65,293.54Z" transform="translate(-15.8 -43.05)"/><path class="cls-155" d="M451,293.54a1.34,1.34,0,0,1,0,.2c0,.79,0,1.56-.1,2.31a26.09,26.09,0,0,1-5.6,14.26c-.43.55-.87,1-1.27,1.47l-.41.41c-.26.25-.49.48-.73.7a13.65,13.65,0,0,1-1.49,1.22l.09,53.37v3.46h0l2,67.9.33,2.45v.12l0-.12-5.17.17h-.51l0-.17-10.25-73.26-.19-1.31c-6.09-28-7.87-47.9-7.61-61.9,0-.41,0-.82,0-1.22,0-.81.05-1.59.08-2.35s.06-1.43.11-2.11.1-1.51.17-2.25c0-.34.05-.68.08-1l.06-.59c0-.46.09-.93.14-1.37l0-.19c0-.46.11-.93.18-1.37l0-.23a.09.09,0,0,1,0,0c0-.21.05-.43.09-.64s.06-.46.1-.68.1-.7.15-1c0-.07,0-.14,0-.21.05-.25.09-.48.13-.72.08-.4.15-.77.22-1.15l.09-.47c.05-.17.08-.34.12-.5s0-.15.05-.23c.05-.24.1-.48.15-.7s.14-.62.22-.9.15-.59.22-.87.15-.55.24-.82.11-.4.17-.59l.08-.27c0-.11.06-.21.1-.32s.14-.45.21-.65h0l.06-.17c.09-.28.18-.53.27-.8s.2-.5.28-.73.08-.21.12-.3l.16-.4.13-.31.15-.34.16-.32.24-.56c0-.08.09-.17.13-.24s0,0,0,0h0l.17-.33a3.24,3.24,0,0,1,.17-.32c.07-.12.15-.27.21-.39l.19-.32c.1-.17.2-.33.31-.49l.06-.12.12-.17a.33.33,0,0,0,.06-.1l.1-.15.07-.08.11-.16.05-.06,0,0h0l.13-.16a.76.76,0,0,1,.11-.14.67.67,0,0,0,.11-.14s.05-.07.08-.09l.07-.08.13-.15a.15.15,0,0,1,.06-.05.12.12,0,0,1,.06-.06h0a.22.22,0,0,1,.06-.07l.13-.12h17.84a57.33,57.33,0,0,1,3.52,8.41,8.46,8.46,0,0,1,.27.91,38.73,38.73,0,0,1,1,4.12c.05.26.1.53.15.77A34.55,34.55,0,0,1,451,293.54Z" transform="translate(-15.8 -43.05)"/><path class="cls-155" d="M445.79,293.54a1.34,1.34,0,0,1,0,.2c0,.79,0,1.56-.1,2.31a26.09,26.09,0,0,1-5.61,14.26c-.42.55-.86,1-1.26,1.47-.16.14-.28.28-.41.41s-.49.48-.73.7a14.94,14.94,0,0,1-1.49,1.22l.09,53.37v3.46h0l2,67.9.33,2.45,0,.17,0,.1h0l0-.11,0-.17h-.5l-10.25-73.26-.19-1.31c-6.09-28-7.87-47.9-7.61-61.9,0-.41,0-.82,0-1.22,0-.81.05-1.59.08-2.35s.06-1.43.11-2.11.1-1.51.17-2.25c0-.34.05-.68.08-1l.06-.59c0-.46.09-.93.14-1.37l0-.19c0-.46.11-.93.18-1.37l0-.23a.09.09,0,0,1,0,0c0-.21.05-.43.09-.64s.06-.46.1-.68.1-.7.15-1c0-.07,0-.14,0-.21.05-.25.09-.48.13-.72.08-.4.15-.77.22-1.15l.09-.47c.05-.17.08-.34.12-.5s0-.15.05-.23c.05-.24.1-.48.15-.7s.14-.62.22-.9.15-.59.22-.87.15-.55.24-.82.11-.4.17-.59l.08-.27c0-.11.06-.21.1-.32s.14-.45.21-.65h0l.06-.17c.09-.28.18-.53.27-.8s.2-.5.28-.73.08-.21.12-.3l.16-.4.13-.31.15-.34.16-.32.24-.56c0-.08.09-.17.13-.24s0,0,0,0h0l.17-.33a3.24,3.24,0,0,1,.17-.32c.07-.12.15-.27.21-.39l.19-.32c.1-.17.2-.33.31-.49l.06-.12.12-.17a.33.33,0,0,0,.06-.1l.1-.15.07-.08.11-.16.05-.06,0,0h0l.13-.16a.76.76,0,0,1,.11-.14.67.67,0,0,0,.11-.14s.05-.07.08-.09l.07-.08.13-.15a.15.15,0,0,1,.06-.05.12.12,0,0,1,.06-.06h0a.22.22,0,0,1,.06-.07l.13-.12h12.64a57.33,57.33,0,0,1,3.52,8.41,8.46,8.46,0,0,1,.27.91,38.73,38.73,0,0,1,1,4.12c0,.26.1.53.14.77A33.66,33.66,0,0,1,445.79,293.54Z" transform="translate(-15.8 -43.05)"/><path class="cls-148" d="M445.72,453.64H421a1.9,1.9,0,0,1-.35,0,2,2,0,0,1-.23-.06c-1-.26-1.48-1.24-1.65-2.45a7.73,7.73,0,0,1-.06-1.37,2.41,2.41,0,0,1,.12-.64,3.14,3.14,0,0,1,.77-1.15l.21-.21.24-.2a4.15,4.15,0,0,1,.52-.39h0a7.85,7.85,0,0,1,.91-.56,20.23,20.23,0,0,1,2.23-1.05l.8-.3.43-.16.43-.14.44-.15c1.61-.52,3.33-1,5-1.35l1.72-.38c.53-.1,1.05-.2,1.53-.31l.5-.09.94-.16.1,0,.85-.15.7-.11,1.07-.16h0l-.07-.45,9.32-.29,1.17,8.47A3.24,3.24,0,0,1,445.72,453.64Z" transform="translate(-15.8 -43.05)"/><path class="cls-152" d="M418.82,449.09a2.41,2.41,0,0,0-.12.64,7.73,7.73,0,0,0,.06,1.37,6.88,6.88,0,0,1-.07-1.37A2,2,0,0,1,418.82,449.09Z" transform="translate(-15.8 -43.05)"/><path class="cls-152" d="M438.19,442h0l-.06-.45Z" transform="translate(-15.8 -43.05)"/><path class="cls-156" d="M471.68,358.67q-27.48,17.06-55.59,1.73c-.19-.11-.25-.84-.24-1.81,0-.65,0-1.41.09-2.15.09-1.47.21-2.84.22-3.12q.13-9.26.51-18.51c.46-11.67,1.17-23.71,2.81-35.43a157.59,157.59,0,0,1,3.28-17.76c1.38-5.37,4.09-10.7,3.67-16.34-.13-1.84.46-5.7-1-7.14,0,0-8.24-8-1.51-21l4.34-7.45.79-11.5,11.38-5.28a7.63,7.63,0,0,1,3.22-.71h7.91a7.45,7.45,0,0,1,2.34.38,8.07,8.07,0,0,1,2.59,1.4l1.8,1.46,1.58,1.28c7,5.66,10.12,15.32,8,24.51A122.38,122.38,0,0,1,464,255.58c-1.55,4.35-2.9,8-2.36,12.72.48,4.21,1.89,8.28,3.13,12.35.27.88.53,1.77.78,2.65C472.38,307.56,471.68,333.72,471.68,358.67Z" transform="translate(-15.8 -43.05)"/><g class="cls-26"><path class="cls-157" d="M467.48,354.86q-25.55,15.86-51.63,3.73c0-.65,0-1.41.09-2.15.09-1.47.21-2.84.22-3.12q.13-9.26.51-18.51c.46-11.67,1.17-23.71,2.81-35.43a157.59,157.59,0,0,1,3.28-17.76c1.38-5.37,4.09-10.7,3.67-16.34-.13-1.84.46-5.7-1-7.14,0,0-8.24-8-1.51-21l4.34-7.45.79-11.5,11.38-5.28a7.63,7.63,0,0,1,3.22-.71h7.91a7.45,7.45,0,0,1,2.34.38,8.07,8.07,0,0,1,2.59,1.4l1.8,1.46a25,25,0,0,1,5.41,22,127,127,0,0,1-3.83,14.32c-1.55,4.34-2.91,8-2.37,12.71.48,4.22,1.89,8.28,3.14,12.35.27.89.52,1.77.77,2.66C468.19,303.76,467.48,329.92,467.48,354.86Z" transform="translate(-15.8 -43.05)"/></g><g class="cls-26"><path class="cls-158" d="M461.77,350.36q-22.69,14.08-45.83,6.08c.09-1.47.21-2.84.22-3.12q.13-9.26.51-18.51c.46-11.67,1.17-23.71,2.81-35.43a157.59,157.59,0,0,1,3.28-17.76c1.38-5.37,4.09-10.7,3.67-16.34-.13-1.84.46-5.7-1-7.14,0,0-8.24-8-1.51-21l4.34-7.45.79-11.5,11.38-5.28a7.63,7.63,0,0,1,3.22-.71h7.91a7.45,7.45,0,0,1,2.34.38A25.06,25.06,0,0,1,458,233a124.93,124.93,0,0,1-3.83,14.32c-1.55,4.34-2.91,8-2.37,12.71.49,4.22,1.89,8.28,3.14,12.36.27.88.52,1.76.77,2.65C462.48,299.26,461.77,325.42,461.77,350.36Z" transform="translate(-15.8 -43.05)"/></g><g class="cls-12"><path class="cls-159" d="M441.62,219.44a34.14,34.14,0,0,1,11.47-1.83c2.33,0,5.16.51,7.48-.22-.24-.21-.47-.43-.72-.63L456.47,214a7.85,7.85,0,0,0-4.93-1.78h-7.91a7.64,7.64,0,0,0-3.22.72L429,218.22l-.58,8.43A46.17,46.17,0,0,1,441.62,219.44Z" transform="translate(-15.8 -43.05)"/></g><path class="cls-160" d="M440.9,215.33l-.49-2.38,3.36,1.45s3.27-1.79,12.7-.39c0,0,.72-4.7-6.11-8.47,0,0-5,5.77-10.28,4.86l-10.26,7.69S438.28,217.53,440.9,215.33Z" transform="translate(-15.8 -43.05)"/><g class="cls-161"><path class="cls-162" d="M442.22,259.48c-.08-.06-.17-.11-.25-.18-4.82-4-6.92-10.79-7.61-16.74a82,82,0,0,1-.2-12.14,23.76,23.76,0,0,1,.83-5.87,18.15,18.15,0,0,0,1.05-5.63,1.35,1.35,0,0,1,.2-.83,7.74,7.74,0,0,0-6.39,3.86,1.32,1.32,0,0,1-1.13.74l-.48,7-4.34,7.45c-6.73,13,1.51,21,1.51,21,1.48,1.44.89,5.31,1,7.14.42,5.65-2.29,11-3.67,16.34a160.29,160.29,0,0,0-3.28,17.76c-1.64,11.73-2.35,23.76-2.81,35.44q-.36,9.26-.51,18.51c0,.62-.65,6.76-.07,7.07a57.42,57.42,0,0,0,20.53,6.88c-.11-.43-.22-.87-.33-1.28a83,83,0,0,1-2.1-10c-4.65-31.38,2.74-62.45,7.51-93.34C441.87,261.6,442.05,260.54,442.22,259.48Z" transform="translate(-15.8 -43.05)"/></g><path class="cls-163" d="M420.62,320.21a9.59,9.59,0,0,0,2.23.56,24,24,0,0,0,2.53.35,24.86,24.86,0,0,0,5.1-.08c.22,0,.35-.19.39-.49q1-7,2-13.91c.24-1.7.86-4.08-.12-5.48a2.05,2.05,0,0,0-2.31-.84,34.1,34.1,0,0,1-8.54-.83c-.15,0-.34.16-.37.35q-.63,4-1.1,8.11c-.28,2.42-.51,4.84-.71,7.27C419.57,317,419.07,319.51,420.62,320.21Z" transform="translate(-15.8 -43.05)"/><path class="cls-98" d="M367,268.35a1.52,1.52,0,0,1,.13.55v1.32a1.25,1.25,0,0,0,.83,1.16,1.22,1.22,0,0,1,.82,1.16v.17a1.18,1.18,0,0,0,.62,1.06,18.55,18.55,0,0,0,5.41,1.18h.12a1.12,1.12,0,0,0,.21-2.21l-1.91-.39,2.31-1.75,4.64,3.59a2.45,2.45,0,0,0,3.26-.24l.61-.64a249.39,249.39,0,0,0,49.3,2.93,6,6,0,0,0,5.29-3.67c2.15-5,3.13-14,3.52-23.13.41-9.43.19-19.05,0-24.63a7.9,7.9,0,0,0-5.8-7.42l-.22-.06a9.3,9.3,0,0,0-11.38,9.13l.06,13,.11,25.17a271.5,271.5,0,0,1-40.39,2.61l-9.85-4.7a2.42,2.42,0,0,0-1.85-.08C366.49,264.77,366.66,267.66,367,268.35Z" transform="translate(-15.8 -43.05)"/><path class="cls-164" d="M442.13,249.44c-.39,9.16-1.37,18.14-3.52,23.13a6.05,6.05,0,0,1-5.29,3.67,248.77,248.77,0,0,1-46.52-2.52c.05-.59.09-1.17.11-1.77s0-1.46,0-2.19-.05-1.7-.12-2.54a271.16,271.16,0,0,0,38.07-2.6l-.1-25.18-.06-13A9.3,9.3,0,0,1,435,217.14a10.36,10.36,0,0,1,1.06.2l.22,0a6.84,6.84,0,0,1,1.2.43h0a8,8,0,0,1,4.59,7C442.32,230.4,442.55,240,442.13,249.44Z" transform="translate(-15.8 -43.05)"/><g class="cls-165"><path class="cls-166" d="M439.34,247.28c-.39,9.14-1.37,18.13-3.52,23.12a6.06,6.06,0,0,1-5.29,3.68A247.65,247.65,0,0,1,386.91,272c0-.72,0-1.46,0-2.19s-.05-1.7-.12-2.54a271.16,271.16,0,0,0,38.07-2.6l-.1-25.18-.06-13A9.3,9.3,0,0,1,435,217.14a10.36,10.36,0,0,1,1.06.2l.22,0a6.84,6.84,0,0,1,1.2.43h0a8.09,8.09,0,0,1,1.8,4.82C439.53,228.22,439.76,237.83,439.34,247.28Z" transform="translate(-15.8 -43.05)"/></g><g class="cls-165"><path class="cls-167" d="M435.67,244.6c-.4,9.15-1.38,18.14-3.52,23.12a6,6,0,0,1-5.29,3.68,246.87,246.87,0,0,1-39.92-1.64c0-.85-.05-1.7-.12-2.54a271.16,271.16,0,0,0,38.07-2.6l-.1-25.18-.06-13A9.3,9.3,0,0,1,435,217.14a8.14,8.14,0,0,1,.61,2.83C435.85,225.55,436.08,235.17,435.67,244.6Z" transform="translate(-15.8 -43.05)"/></g><g class="cls-168"><path class="cls-98" d="M368.37,271.77q2.4-2.17,4.65-4.53c.38-.41,1,.21.61.61-1.49,1.57-3,3.09-4.65,4.54C368.57,272.76,368,272.15,368.37,271.77Z" transform="translate(-15.8 -43.05)"/></g><g class="cls-168"><path class="cls-98" d="M366.81,269.32a23.1,23.1,0,0,0,4.1-4.34.46.46,0,0,1,.6-.16.44.44,0,0,1,.16.6,24.56,24.56,0,0,1-4.24,4.52.44.44,0,0,1-.62-.62Z" transform="translate(-15.8 -43.05)"/></g><path class="cls-169" d="M477,456H22.87a1.79,1.79,0,0,1-1.79-1.79h0a1.79,1.79,0,0,1,1.79-1.79H477a1.79,1.79,0,0,1,1.79,1.79h0A1.79,1.79,0,0,1,477,456Z" transform="translate(-15.8 -43.05)"/></g></g></svg>