<svg xmlns="http://www.w3.org/2000/svg" viewBox="0 0 500 500"><defs><style>.cls-1{fill:#fff;}.cls-2{fill:#00a89a;}.cls-3{fill:#007e7b;}.cls-4{fill:#86d0c8;}.cls-10,.cls-17,.cls-23,.cls-24,.cls-30,.cls-5,.cls-6,.cls-7,.cls-8,.cls-9{fill:none;}.cls-10,.cls-5,.cls-6,.cls-7,.cls-8,.cls-9{stroke:#007e7b;}.cls-10,.cls-23,.cls-24,.cls-30,.cls-31,.cls-5,.cls-6,.cls-7,.cls-8,.cls-9{stroke-miterlimit:10;}.cls-5{stroke-width:1.01px;}.cls-6{stroke-width:0.37px;}.cls-7{stroke-width:0.24px;}.cls-8{stroke-width:1.36px;}.cls-9{stroke-width:0.5px;}.cls-10{stroke-width:0.3px;}.cls-11{fill:#007269;}.cls-12{fill:#b2d2d3;}.cls-13,.cls-31{fill:#34b3aa;}.cls-14{fill:#f4c6ba;}.cls-15{fill:#e49574;}.cls-16{fill:#6c341e;}.cls-17{stroke:#6c341e;stroke-linecap:round;stroke-linejoin:round;stroke-width:2.79px;}.cls-18{fill:#ff738f;}.cls-19{fill:#bfd3eb;}.cls-20{fill:#411700;}.cls-21{fill:#6ccacd;}.cls-22{fill:#e1e1e2;}.cls-23{stroke:#75cfe7;stroke-width:5.04px;}.cls-24{stroke:#00a89a;stroke-width:2px;}.cls-25{fill:#ec6863;}.cls-26{fill:#f8f8f9;}.cls-27{fill:#faec00;}.cls-28{fill:#fdd2af;}.cls-29{fill:#f9ef67;}.cls-30,.cls-31{stroke:#fff;}.cls-30{stroke-width:2.67px;}.cls-31{stroke-width:2.71px;}.cls-32{fill:#bdd9db;}</style></defs><title>scientist_working</title><g id="Background"><rect class="cls-1" width="500" height="500"/></g><g id="Objects"><path class="cls-2" d="M89.38,374.92C20.85,314.67,65.21,162.79,91.2,180.08c21.48,14.29,37.82,37.14,86.7,39.23,74.24,3.18,87-50.16,186.13-46.58,98.43,3.54,93.59,132.37,50.83,202.19Z"/><rect class="cls-3" x="285.13" y="210.73" width="55.02" height="77.23" transform="translate(98.03 -88.08) rotate(18.97)"/><rect class="cls-4" x="283.7" y="207.8" width="55.02" height="77.23" transform="translate(96.99 -87.78) rotate(18.97)"/><path class="cls-3" d="M304.62,214.77l-1.05,3.06,5.36,1.85-.74,2.15L302.83,220l-1.45,4.22-2.67-.92,4-11.58,8.75,3-.74,2.15Z"/><path class="cls-3" d="M319.77,224.83,318,229.92l-2.58-.89,1.62-4.69c.49-1.44.06-2.33-1.08-2.72s-2.4,0-3,1.66l-1.51,4.4-2.58-.89L312,217.9l2.46.84-.36,1a4.11,4.11,0,0,1,3.35-.17C319.54,220.34,320.71,222.11,319.77,224.83Z"/><line class="cls-5" x1="296.57" y1="229.86" x2="333.42" y2="242.52"/><line class="cls-5" x1="295.48" y1="233.03" x2="332.33" y2="245.7"/><line class="cls-5" x1="294.39" y1="236.2" x2="331.24" y2="248.87"/><line class="cls-5" x1="309.09" y1="244.8" x2="330.15" y2="252.04"/><line class="cls-5" x1="293.3" y1="239.37" x2="304.79" y2="243.32"/><line class="cls-5" x1="292.21" y1="242.54" x2="329.06" y2="255.21"/><line class="cls-5" x1="319.51" y1="255.47" x2="327.97" y2="258.38"/><line class="cls-5" x1="291.12" y1="245.71" x2="316.48" y2="254.43"/><line class="cls-5" x1="290.03" y1="248.89" x2="326.88" y2="261.55"/><line class="cls-5" x1="288.94" y1="252.06" x2="325.79" y2="264.72"/><line class="cls-5" x1="287.85" y1="255.23" x2="324.7" y2="267.89"/><rect class="cls-3" x="284.31" y="260.93" width="1.69" height="9.46" transform="matrix(0.95, 0.33, -0.33, 0.95, 101.83, -78.26)"/><rect class="cls-3" x="286.27" y="268.14" width="1.69" height="3.1" transform="translate(103.24 -78.68) rotate(18.97)"/><rect class="cls-3" x="289.76" y="266.22" width="1.69" height="6.14" transform="translate(103.33 -79.84) rotate(18.97)"/><rect class="cls-3" x="293.02" y="265.59" width="1.69" height="7.84" transform="translate(103.57 -80.89) rotate(18.97)"/><polygon class="cls-6" points="319.12 279.07 320.73 274.42 317.49 270.7 312.66 271.64 311.06 276.3 314.29 280.01 319.12 279.07"/><path class="cls-3" d="M318,270.87a.53.53,0,1,1-.33-.67A.52.52,0,0,1,318,270.87Z"/><path class="cls-3" d="M313.13,271.9a.53.53,0,0,1-.68.33.54.54,0,0,1-.33-.67.53.53,0,0,1,.68-.33A.52.52,0,0,1,313.13,271.9Z"/><path class="cls-3" d="M321.2,274.68a.55.55,0,0,1-.68.33.54.54,0,0,1-.33-.68.53.53,0,0,1,1,.35Z"/><path class="cls-3" d="M311.54,276.52a.53.53,0,0,1-1-.34.53.53,0,1,1,1,.34Z"/><path class="cls-3" d="M319.61,279.29a.53.53,0,1,1-.33-.67A.52.52,0,0,1,319.61,279.29Z"/><path class="cls-3" d="M314.82,280.12a.53.53,0,0,1-.68.33.52.52,0,0,1-.33-.67.53.53,0,0,1,.68-.33A.54.54,0,0,1,314.82,280.12Z"/><polygon class="cls-7" points="308.48 274.46 309.5 271.49 307.43 269.11 304.35 269.71 303.32 272.69 305.39 275.06 308.48 274.46"/><path class="cls-3" d="M307.76,269.22a.35.35,0,0,1-.44.21.34.34,0,0,1-.21-.43.34.34,0,0,1,.65.22Z"/><path class="cls-3" d="M304.65,269.88a.34.34,0,0,1-.43.21.34.34,0,1,1,.43-.21Z"/><path class="cls-3" d="M309.8,271.65a.34.34,0,1,1-.21-.43A.33.33,0,0,1,309.8,271.65Z"/><path class="cls-3" d="M303.64,272.83a.35.35,0,0,1-.44.21.34.34,0,0,1-.21-.43.34.34,0,0,1,.65.22Z"/><path class="cls-3" d="M308.79,274.6a.34.34,0,0,1-.43.21.33.33,0,0,1-.21-.43.33.33,0,0,1,.43-.21A.34.34,0,0,1,308.79,274.6Z"/><path class="cls-3" d="M305.73,275.13a.35.35,0,0,1-.44.21.34.34,0,0,1-.21-.43.34.34,0,0,1,.65.22Z"/><rect class="cls-3" x="136.09" y="227.22" width="74.02" height="103.89" transform="translate(-89.24 81.49) rotate(-21.2)"/><rect class="cls-4" x="136.09" y="219.68" width="74.02" height="103.89" transform="translate(-86.51 80.98) rotate(-21.2)"/><path class="cls-3" d="M148.26,238l6,15.36-2.92,1.13L140,248.09l3.62,9.32-3.51,1.36-6-15.36,2.94-1.14,11.25,6.37-3.62-9.33Z"/><line class="cls-8" x1="143.68" y1="267.31" x2="192.54" y2="248.36"/><line class="cls-8" x1="145.31" y1="271.51" x2="194.18" y2="252.56"/><line class="cls-8" x1="146.94" y1="275.72" x2="195.81" y2="256.77"/><line class="cls-8" x1="169.52" y1="271.8" x2="197.44" y2="260.97"/><line class="cls-8" x1="148.57" y1="279.92" x2="163.8" y2="274.02"/><line class="cls-8" x1="150.21" y1="284.13" x2="199.07" y2="265.18"/><line class="cls-8" x1="189.49" y1="273.73" x2="200.7" y2="269.38"/><line class="cls-8" x1="151.84" y1="288.33" x2="185.47" y2="275.29"/><line class="cls-8" x1="153.47" y1="292.54" x2="202.33" y2="273.59"/><line class="cls-8" x1="155.1" y1="296.74" x2="203.96" y2="277.79"/><line class="cls-8" x1="156.73" y1="300.95" x2="205.59" y2="282"/><rect class="cls-3" x="163.58" y="316.75" width="2.27" height="3.3" transform="translate(-103.99 81.11) rotate(-21.2)"/><rect class="cls-3" x="166.11" y="307.53" width="2.27" height="11.25" transform="translate(-101.92 81.67) rotate(-21.2)"/><rect class="cls-3" x="171.07" y="311.28" width="2.27" height="5.78" transform="translate(-101.95 83.53) rotate(-21.2)"/><rect class="cls-3" x="174.72" y="308.1" width="2.27" height="7.48" transform="translate(-100.86 84.69) rotate(-21.2)"/><path class="cls-9" d="M210.26,293.81a7.49,7.49,0,1,1-9.7-4.28A7.5,7.5,0,0,1,210.26,293.81Z"/><path class="cls-3" d="M201.22,289.28a.7.7,0,1,1-.91-.4A.71.71,0,0,1,201.22,289.28Z"/><path class="cls-3" d="M197.05,292.29a.71.71,0,1,1-1,.28A.72.72,0,0,1,197.05,292.29Z"/><path class="cls-3" d="M195.79,297.29a.69.69,0,0,1,.82.55.7.7,0,0,1-.55.83.72.72,0,0,1-.83-.56A.7.7,0,0,1,195.79,297.29Z"/><path class="cls-3" d="M198,301.92a.7.7,0,1,1,.11,1A.7.7,0,0,1,198,301.92Z"/><path class="cls-3" d="M202.73,304a.71.71,0,1,1,.72.69A.7.7,0,0,1,202.73,304Z"/><path class="cls-3" d="M207.68,302.62a.71.71,0,0,1,.07-1,.7.7,0,0,1,.92,1.06A.7.7,0,0,1,207.68,302.62Z"/><path class="cls-3" d="M210.57,298.36a.7.7,0,0,1-.58-.8.69.69,0,0,1,.8-.59.7.7,0,1,1-.22,1.39Z"/><path class="cls-3" d="M210.05,293.24a.7.7,0,1,1,.24-1A.7.7,0,0,1,210.05,293.24Z"/><path class="cls-3" d="M206.36,289.65a.71.71,0,1,1-.44-.89A.71.71,0,0,1,206.36,289.65Z"/><path class="cls-10" d="M193,300.39a4.52,4.52,0,1,1-5.85-2.58A4.51,4.51,0,0,1,193,300.39Z"/><path class="cls-3" d="M187.59,297.66a.42.42,0,1,1-.79.3.42.42,0,0,1,.24-.55A.43.43,0,0,1,187.59,297.66Z"/><path class="cls-3" d="M185.07,299.48a.42.42,0,0,1,.17.57.43.43,0,1,1-.17-.57Z"/><path class="cls-3" d="M184.31,302.49a.42.42,0,0,1,.5.33.43.43,0,0,1-.34.5A.41.41,0,0,1,184,303,.42.42,0,0,1,184.31,302.49Z"/><path class="cls-3" d="M185.66,305.29a.42.42,0,0,1,.6-.07.44.44,0,0,1,.07.6.43.43,0,0,1-.67-.53Z"/><path class="cls-3" d="M188.5,306.56a.43.43,0,0,1,.41-.44.44.44,0,0,1,.44.42.42.42,0,0,1-.42.43A.42.42,0,0,1,188.5,306.56Z"/><path class="cls-3" d="M191.49,305.71a.42.42,0,0,1,0-.6.43.43,0,0,1,.6,0,.44.44,0,0,1,0,.6A.43.43,0,0,1,191.49,305.71Z"/><path class="cls-3" d="M193.23,303.14a.42.42,0,0,1-.35-.49.41.41,0,0,1,.48-.35.43.43,0,1,1-.13.84Z"/><path class="cls-3" d="M192.92,300.05a.43.43,0,1,1-.44-.73.42.42,0,0,1,.58.14A.43.43,0,0,1,192.92,300.05Z"/><path class="cls-3" d="M190.69,297.88a.43.43,0,0,1-.54.27.43.43,0,1,1,.54-.27Z"/><rect class="cls-11" x="87.8" y="370.31" width="44.18" height="5.15"/><path class="cls-1" d="M130.21,370.31a21,21,0,0,0-40.64,0Z"/><path class="cls-12" d="M115.19,355.24a21,21,0,0,0-25.62,15.07h10.6A21,21,0,0,1,115.19,355.24Z"/><path class="cls-11" d="M88,354.86a39.86,39.86,0,0,1,17.55-75.69v8a31.83,31.83,0,1,0,23.71,53l6,5.34A40,40,0,0,1,88,354.86Z"/><path class="cls-1" d="M115.44,354.56a5.55,5.55,0,1,1-5.55-5.55A5.54,5.54,0,0,1,115.44,354.56Z"/><path class="cls-11" d="M112.23,354.56a2.34,2.34,0,1,1-2.34-2.34A2.35,2.35,0,0,1,112.23,354.56Z"/><rect class="cls-1" x="101.61" y="266.22" width="22.86" height="40.52" transform="translate(-117.24 81.97) rotate(-26.86)"/><rect class="cls-11" x="109.63" y="304.29" width="27.37" height="4.96" transform="translate(-125.29 88.8) rotate(-26.86)"/><rect class="cls-11" x="113.66" y="308.82" width="22.86" height="2.91" transform="translate(-126.69 89.99) rotate(-26.86)"/><path class="cls-1" d="M133.45,312.89c1,1.94-.73,4.79-3.82,6.36s-6.4,1.26-7.38-.69.72-4.79,3.81-6.36S132.46,310.94,133.45,312.89Z"/><rect class="cls-11" x="117.22" y="311.42" width="18.38" height="2.91" transform="translate(-127.72 90.86) rotate(-26.86)"/><rect class="cls-11" x="120.17" y="314.02" width="15.1" height="2.91" transform="translate(-128.75 91.73) rotate(-26.86)"/><rect class="cls-11" x="89.08" y="263.72" width="27.37" height="4.96" transform="translate(-109.18 75.14) rotate(-26.86)"/><rect class="cls-11" x="92.2" y="259.3" width="16.65" height="4.96" transform="translate(-107.42 73.66) rotate(-26.86)"/><path class="cls-11" d="M96.65,244.68,89,248.53a1.23,1.23,0,0,1-1.66-.54h0a1.24,1.24,0,0,1,.54-1.67l7.61-3.85a1.23,1.23,0,0,1,1.66.54h0A1.24,1.24,0,0,1,96.65,244.68Z"/><polygon class="cls-1" points="104.32 257.08 94.5 262.05 89.45 248.33 96.24 244.89 104.32 257.08"/><path class="cls-12" d="M98.64,255.16c-1.64-2.82-3.12-6.07-4.92-9l-4.27,2.17,5,13.72,6.29-3.19Z"/><polygon class="cls-12" points="93.69 273.57 104.99 267.85 122.99 304.15 112 309.72 93.69 273.57"/><rect class="cls-11" x="122.53" y="335.42" width="22.4" height="2.61" transform="translate(267.45 673.45) rotate(180)"/><path class="cls-1" d="M123.42,338A10.64,10.64,0,0,0,144,338Z"/><path class="cls-12" d="M129.7,338h-6.28a10.63,10.63,0,0,0,13.45,7.5A10.64,10.64,0,0,1,129.7,338Z"/><path class="cls-13" d="M327.49,400.08c-3.91-34-10.23-81.62-16.23-95.47-9.88-22.8-13.47-50.32-13.33-61.52-12.14-4.63-39.55-3.39-39.55-3.39l-15.74,1s-14.46.41-20.62,2.64c-19.43,47.07-26.63,114.51-29.3,156.7Z"/><polygon class="cls-14" points="269.01 253.94 244.76 253.31 244.61 218.22 268.86 218.84 269.01 253.94"/><path class="cls-15" d="M262.05,233.45c2.26.75,4.56,1.6,6.88,2.47l-.07-17.08-24.25-.62,0,9.16C250.44,229.42,256.19,231.52,262.05,233.45Z"/><path class="cls-14" d="M304.13,184.76c-1,6.56-6.72,11.12-12.69,10.17s-5.27-6.28-4.23-12.85,2-11.87,8-10.92S305.17,178.19,304.13,184.76Z"/><path class="cls-15" d="M292.54,187.18c1,.83,1.72-1,1.86-1.9a6.67,6.67,0,0,1,.59-2.4,2.42,2.42,0,0,1,2.42-1.18c.37.09.92.46,1.2,0s-.15-1-.39-1.32a4.2,4.2,0,0,0-2.73-1.81c-2.35-.37-2.73,1.71-3.14,4.28-.15,1-.75,3.27,0,4.11Z"/><path class="cls-14" d="M209.93,188.25c1.61,6.45,7.68,10.48,13.54,9s4.69-6.73,3.07-13.18-3-11.64-8.91-10.17S208.31,181.8,209.93,188.25Z"/><path class="cls-15" d="M221.69,189.64c-.93.91-1.81-.88-2-1.73a7,7,0,0,0-.8-2.34,2.4,2.4,0,0,0-2.52-.95c-.36.11-.87.53-1.19.14s.07-1,.28-1.35a4.17,4.17,0,0,1,2.56-2c2.3-.58,2.86,1.46,3.5,4,.23.93,1,3.19.35,4.1C221.8,189.52,221.74,189.58,221.69,189.64Z"/><ellipse class="cls-16" cx="263.94" cy="163.57" rx="34.57" ry="36.16" transform="translate(-5 8.36) rotate(-1.8)"/><ellipse class="cls-16" cx="239.3" cy="164.34" rx="23.65" ry="36.16" transform="translate(-5.03 7.58) rotate(-1.8)"/><path class="cls-14" d="M292.37,181.79c.77,24.48-14.2,43.19-33.36,43.79S223.75,208.45,223,184s14-49.36,33.16-50S291.6,157.31,292.37,181.79Z"/><path class="cls-15" d="M291.37,148.5v8.13a10,10,0,0,1-10,10H266.81c-3.87-3.87-5.19-7.67-8-7.67s-3.63,3.34-8,7.67h-16.1a10,10,0,0,1-10-10V148.5Z"/><path class="cls-16" d="M245.29,183c0,2.4-.9,4.35-2,4.35s-2-2-2-4.35.9-4.36,2-4.36S245.29,180.57,245.29,183Z"/><path class="cls-16" d="M278.94,182.25c0,2.4-.9,4.35-2,4.35s-2-1.95-2-4.35.9-4.36,2-4.36S278.94,179.84,278.94,182.25Z"/><path class="cls-15" d="M290.34,168.08a38.67,38.67,0,0,1-9.09-1.18,45.28,45.28,0,0,1-5.93-2,58.51,58.51,0,0,1-26.82-21.45c-4.6,7.6-11.16,14-18,20a24.36,24.36,0,0,1-5.28,3.84l-.54.25c3.63-14.95,12.58-27.78,23.93-32.08,2.15-.21,4.32-.29,6.49-.31a67.63,67.63,0,0,1,10.56.53h0C277.07,140.29,286.38,153.14,290.34,168.08Z"/><path class="cls-16" d="M281.2,165a39.07,39.07,0,0,0,12.15,1.09,38.33,38.33,0,0,0-1-11.44,22.35,22.35,0,0,0-4.39-9.36,24,24,0,0,0-3.49-3.25,39.77,39.77,0,0,0-15.53-7.59,58,58,0,0,0-13.88-1.15,55.73,55.73,0,0,0-12.44,1.29,24.27,24.27,0,0,0-10.9,5.5,33.3,33.3,0,0,0-4.86,6.2,70.85,70.85,0,0,0-4.52,7.51,36.65,36.65,0,0,0-3.65,12.59,9.66,9.66,0,0,0,6.49-.94,24.74,24.74,0,0,0,5.28-3.85c6.82-6,13.38-12.42,18-20a58.57,58.57,0,0,0,26.82,21.45A48.62,48.62,0,0,0,281.2,165Z"/><path class="cls-17" d="M256.25,181.61a21.7,21.7,0,0,0,.8,3.77s7.35-2.33,8.75,2.72c1.61,5.81-4.7,8.65-4.7,8.65"/><path class="cls-17" d="M280.84,172.56a6.16,6.16,0,0,0-7.36-3.51"/><path class="cls-17" d="M231.69,173.53a6.17,6.17,0,0,1,7.12-4"/><path class="cls-18" d="M272.38,192.74c0,1.24,3.27,2.15,7.21,2s7.1-1.23,7.07-2.47-3.27-2.15-7.21-2S272.34,191.5,272.38,192.74Z"/><path class="cls-18" d="M228.32,194.13c0,1.24,3.27,2.14,7.21,2s7.1-1.23,7.07-2.47-3.27-2.15-7.21-2S228.28,192.89,228.32,194.13Z"/><polygon class="cls-13" points="292.13 144.08 299.19 163.66 298.79 168.08 290.04 156.34 290.04 144.08 292.13 144.08"/><polygon class="cls-13" points="223.53 144.08 214.85 163.34 215.34 167.7 226.1 156.14 226.1 144.08 223.53 144.08"/><path class="cls-1" d="M291.37,146.19v8.13a10,10,0,0,1-10,10H266.81c-3.87-3.87-5.19-7.67-8-7.67s-3.63,3.34-8,7.67h-16.1a10,10,0,0,1-10-10v-8.13Z"/><rect class="cls-13" x="223.54" y="142.8" width="69.05" height="3.77"/><rect class="cls-19" x="222.78" y="146.58" width="66.56" height="1.58"/><path class="cls-16" d="M254,366.41l-8.48-8.48a3.92,3.92,0,0,1-1.13-3.18l9.37-94.19a3,3,0,0,1,6.06,0l9.37,94.19a4,4,0,0,1-1.13,3.18l-8.49,8.48A3.94,3.94,0,0,1,254,366.41Z"/><polygon class="cls-20" points="259.77 260.56 260.67 269.59 252.47 272.95 253.71 260.56 259.77 260.56"/><path class="cls-16" d="M246.83,253.61s9,23.62,18.81,1.16l-8.73-3.61Z"/><path class="cls-21" d="M244,239.41s-.22-1.1-4.5.9-.73,14.36,1.33,17.92c0,0,13.39-3.4,15.94-7.54C256.75,250.69,250.4,244.52,244,239.41Z"/><path class="cls-21" d="M269.86,239.41s.22-1.1,4.5.9.74,14.36-1.33,17.92c0,0-13.73-3.4-16.28-7.54C256.75,250.69,263.44,244.52,269.86,239.41Z"/><path class="cls-1" d="M258.26,400.08l-.41-85.58-19.16-73.44c-3.11.18-4.75-.25-8.73.64-3.37.75-11,3.14-13.52,4.1,0,0-8.06,31.91-15,75.89-2.5,15.81-6,46.09-9.5,78.39Z"/><path class="cls-12" d="M208.56,354.19c-.41-21.33-1.62-42.7-.93-64-2.24,9.55-4.41,20.18-6.21,31.53-2.5,15.81-6,46.09-9.5,78.39H209C209,384.78,208.86,369.47,208.56,354.19Z"/><path class="cls-1" d="M328.29,400.08c-3-26.56-6-51.29-8.32-65.85-7-44-23.59-91.29-23.59-91.29a71.34,71.34,0,0,0-11.15-2.83c-4-.67-7.52-.38-10.63-.56L253.94,314.5v85.58Z"/><path class="cls-22" d="M277.14,239.53l-19.29,70.35.06,21.9,30-47.95-9.59-19.33,11.06-16.21S287.06,237.41,277.14,239.53Z"/><path class="cls-22" d="M239.17,240.37l18.68,74.13-.06,23.33-32.13-51.09,10.27-20.59-11.85-17.27S229.32,240.16,239.17,240.37Z"/><ellipse class="cls-23" cx="384.82" cy="194.57" rx="14.11" ry="53.2"/><ellipse class="cls-23" cx="384.82" cy="194.57" rx="53.2" ry="14.11" transform="translate(-24.87 329.1) rotate(-45)"/><ellipse class="cls-23" cx="384.82" cy="194.57" rx="53.2" ry="14.11"/><path class="cls-23" d="M374.84,204.55c20.78,20.78,42.09,33.15,47.6,27.64s-6.86-26.82-27.64-47.6S352.72,151.44,347.21,157,354.07,183.78,374.84,204.55Z"/><ellipse class="cls-24" cx="343.29" cy="119.38" rx="6.67" ry="25.15"/><ellipse class="cls-24" cx="343.29" cy="119.38" rx="25.15" ry="6.67" transform="translate(16.13 277.71) rotate(-45)"/><ellipse class="cls-24" cx="343.29" cy="119.38" rx="25.15" ry="6.67"/><ellipse class="cls-24" cx="343.29" cy="119.38" rx="6.67" ry="25.15" transform="translate(16.13 277.71) rotate(-45)"/><path class="cls-25" d="M249.36,202.76a10.67,10.67,0,0,0,21.33,0Z"/><path class="cls-26" d="M388.07,367.62h0a3.41,3.41,0,0,0,3.41-3.41V331.77h-6.82v32.44A3.41,3.41,0,0,0,388.07,367.62Z"/><path class="cls-27" d="M386.07,350.14v14.07a2,2,0,0,0,4,0V350.14Z"/><path class="cls-26" d="M384.38,331.77h7.38a1.33,1.33,0,0,0,1.32-1.32h0a1.32,1.32,0,0,0-1.32-1.31h-7.38a1.32,1.32,0,0,0-1.32,1.31h0A1.32,1.32,0,0,0,384.38,331.77Z"/><path class="cls-26" d="M401.35,367.62h0a3.41,3.41,0,0,0,3.41-3.41V331.77h-6.82v32.44A3.41,3.41,0,0,0,401.35,367.62Z"/><path class="cls-27" d="M399.36,345.72v18.49a2,2,0,0,0,4,0V345.72Z"/><path class="cls-26" d="M397.66,331.77H405a1.32,1.32,0,0,0,1.32-1.32h0a1.32,1.32,0,0,0-1.32-1.31h-7.38a1.32,1.32,0,0,0-1.32,1.31h0A1.33,1.33,0,0,0,397.66,331.77Z"/><path class="cls-26" d="M414.64,367.62h0a3.41,3.41,0,0,0,3.41-3.41V331.77h-6.82v32.44A3.41,3.41,0,0,0,414.64,367.62Z"/><path class="cls-27" d="M412.64,350.14v14.07a2,2,0,0,0,4,0V350.14Z"/><path class="cls-26" d="M411,331.77h7.38a1.32,1.32,0,0,0,1.32-1.32h0a1.32,1.32,0,0,0-1.32-1.31H411a1.32,1.32,0,0,0-1.32,1.31h0A1.32,1.32,0,0,0,411,331.77Z"/><path class="cls-26" d="M427.93,367.62h0a3.41,3.41,0,0,0,3.41-3.41V331.77h-6.82v32.44A3.41,3.41,0,0,0,427.93,367.62Z"/><path class="cls-27" d="M425.93,343.43v20.78a2,2,0,0,0,4,0V343.43Z"/><path class="cls-26" d="M424.24,331.77h7.38a1.32,1.32,0,0,0,1.32-1.32h0a1.32,1.32,0,0,0-1.32-1.31h-7.38a1.32,1.32,0,0,0-1.32,1.31h0A1.32,1.32,0,0,0,424.24,331.77Z"/><rect class="cls-11" x="378.38" y="338.07" width="59.23" height="2.5" transform="translate(816 678.64) rotate(180)"/><rect class="cls-11" x="378.38" y="364.01" width="59.23" height="4.2" transform="translate(816 732.23) rotate(180)"/><rect class="cls-11" x="381.83" y="364.01" width="6.09" height="11.44"/><rect class="cls-11" x="428.07" y="364.01" width="6.09" height="11.44"/><path class="cls-1" d="M294.92,242.79s22.11,5,29.52,15.71,30.54,60,28.93,64.92-18.12,19-24.1,14.14-25.8-48.35-25.8-48.35Z"/><path class="cls-15" d="M370.78,248.8s4-13.41,8.28-14c4-.59.41,10.8.41,10.8Z"/><path class="cls-15" d="M390.27,243.47c.2-.75,10.5-10.22,14.78-11.1,2.57-.52,1.92,3.07-.19,5.32S390.27,243.47,390.27,243.47Z"/><path class="cls-26" d="M388.72,207v-12.4h.36a1.7,1.7,0,1,0,0-3.4h-9.51a1.7,1.7,0,1,0,0,3.4h.36V207a19,19,0,1,0,8.79,0Z"/><path class="cls-27" d="M401.48,225.47a17.16,17.16,0,1,1-34.32,0,17,17,0,0,1,.46-4,6.11,6.11,0,0,1,3.57-1.25c3,0,3,1.82,6,1.82s3-1.82,6-1.82,3,1.82,6,1.82,3-1.82,6-1.82,3,1.82,6,1.82h.1A18.25,18.25,0,0,1,401.48,225.47Z"/><path class="cls-28" d="M375.84,264.58s4.46-5.18,15.29-11.8,24.8-15.65,20.82-19.56c-2.48-2.43-12.2,6.59-21.05,8.23s-13,2.45-17.32,4.93c-6.23,3.64-9.86,16.95-9.86,16.95Z"/><path class="cls-1" d="M382.28,265.56,356.84,260s-31.21,68.5-29.49,73.21c3.17,8.65,15.15,19.15,26.85,9.87C373.84,327.44,376,294,382.28,265.56Z"/><path class="cls-12" d="M362.43,334.18c-2.09,3.93-6.14,7.18-8.23,8.85-9.53,7.56-19.23,2-24.22-5a5.35,5.35,0,0,1-.7-.47c-2.54-2.08-7.55-11.07-12.5-20.75-.67-3.23-1.36-6.44-2.09-9.61l1.61,1.95c3.61,4.33,7.44,8.47,11.2,12.66,1.39,1.57,2.77,3.19,4.18,4.79.44.49.89,1,1.35,1.48l.23.24c.32.34.64.67,1,1q1.35,1.38,2.82,2.61c.23.19.46.38.7.56.55.44,1.13.86,1.73,1.26l.55.34a13.7,13.7,0,0,0,1.76.87C347.3,337.19,356.51,335.87,362.43,334.18Z"/><path class="cls-1" d="M223.11,253.64a6.47,6.47,0,0,0-8.41-7.49c-6.83,2.36-15.17,6.21-19.32,11.85-7.73,10.51-32.35,59-30.89,64s17.53,19.58,23.65,14.86c5.65-4.35,24.1-41.17,26.91-46.81a6.68,6.68,0,0,0,.53-1.52Z"/><path class="cls-28" d="M235,357.19s6,3.34,18.41,5.86,28.65,6.23,26.25,11.27c-1.5,3.13-35.7,1.62-40.56.74C232,373.78,224,362.51,224,362.51Z"/><path class="cls-1" d="M240.07,364.27l-10.52,9.62a6.46,6.46,0,0,1-8.14.48c-13.92-10-57.16-41.43-57.89-45.57-1.58-9.08,3.54-24.16,18.31-22,13.7,2,46.56,35.55,58.57,48.23A6.46,6.46,0,0,1,240.07,364.27Z"/><path class="cls-12" d="M231.88,367.4c-4.15-1.2-7.85-3.56-11.65-5.55-8.12-4.25-16.17-8.69-24-13.5a178,178,0,0,1-20.51-14.63c-4.22-3.5-8.81-6.75-12.34-11a21.22,21.22,0,0,0,.11,6c.86,4.94,62.16,48.63,62.16,48.63l10.09-9.22A29.83,29.83,0,0,1,231.88,367.4Z"/><ellipse class="cls-2" cx="149.01" cy="147.35" rx="52.73" ry="44.88"/><polygon class="cls-2" points="159.72 187.39 206.81 210.59 184.37 174.63 159.72 187.39"/><circle class="cls-29" cx="154.59" cy="148.84" r="10.78" transform="translate(-25.66 265.29) rotate(-76.78)"/><path class="cls-29" d="M158.9,148.84a4.32,4.32,0,1,1-4.31-4.31A4.31,4.31,0,0,1,158.9,148.84Z"/><path class="cls-29" d="M165.72,136.75a1.8,1.8,0,1,1-1.79-1.8A1.79,1.79,0,0,1,165.72,136.75Z"/><path class="cls-29" d="M148.54,136.75a1.8,1.8,0,1,1-1.8-1.8A1.8,1.8,0,0,1,148.54,136.75Z"/><path class="cls-29" d="M142.37,149.56a1.8,1.8,0,1,1-1.8-1.79A1.8,1.8,0,0,1,142.37,149.56Z"/><path class="cls-29" d="M167.16,158.73a1.8,1.8,0,1,1-1.79-1.8A1.79,1.79,0,0,1,167.16,158.73Z"/><path class="cls-29" d="M172,148.54a1.8,1.8,0,1,1-1.79-1.79A1.79,1.79,0,0,1,172,148.54Z"/><path class="cls-29" d="M148.78,160a1.8,1.8,0,1,1-1.8-1.79A1.8,1.8,0,0,1,148.78,160Z"/><rect class="cls-29" x="148.12" y="136.1" width="1.44" height="7.46" transform="translate(-52.86 107.85) rotate(-34.2)"/><rect class="cls-29" x="158.12" y="139.11" width="7.46" height="1.44" transform="translate(-44.43 196.37) rotate(-56.15)"/><rect class="cls-29" x="165.01" y="144.82" width="1.44" height="7.46" transform="translate(15.61 312.85) rotate(-89.46)"/><rect class="cls-29" x="162.24" y="153.2" width="1.44" height="7.46" transform="translate(-62.75 172.3) rotate(-47.81)"/><rect class="cls-29" x="145.76" y="156.21" width="7.46" height="1.44" transform="translate(-67.18 162.29) rotate(-47.81)"/><rect class="cls-29" x="140.08" y="148.66" width="7.46" height="1.44" transform="translate(-7.11 7.19) rotate(-2.79)"/><circle class="cls-29" cx="135.88" cy="136" r="4.14"/><circle class="cls-29" cx="135.88" cy="136" r="1.65"/><circle class="cls-29" cx="139.46" cy="131.36" r="0.69"/><circle class="cls-29" cx="132.87" cy="131.36" r="0.69"/><circle class="cls-29" cx="130.5" cy="136.28" r="0.69"/><path class="cls-29" d="M140.71,139.8a.69.69,0,1,1-.69-.69A.69.69,0,0,1,140.71,139.8Z"/><circle class="cls-29" cx="141.88" cy="135.89" r="0.69"/><circle class="cls-29" cx="132.96" cy="140.28" r="0.69"/><rect class="cls-29" x="133.4" y="131.12" width="0.55" height="2.86" transform="translate(-51.39 98.07) rotate(-34.21)"/><rect class="cls-29" x="137.24" y="132.27" width="2.86" height="0.55" transform="translate(-48.65 173.91) rotate(-56.16)"/><rect class="cls-29" x="139.88" y="134.46" width="0.55" height="2.86" transform="translate(2.94 274.75) rotate(-89.46)"/><rect class="cls-29" x="138.82" y="137.68" width="0.55" height="2.86" transform="translate(-57.39 148.76) rotate(-47.82)"/><rect class="cls-29" x="132.49" y="138.83" width="2.86" height="0.55" transform="translate(-59.09 144.9) rotate(-47.81)"/><rect class="cls-29" x="130.31" y="135.94" width="2.86" height="0.55" transform="translate(-6.49 6.59) rotate(-2.8)"/><circle class="cls-29" cx="152.2" cy="129.33" r="2.25"/><path class="cls-29" d="M153.1,129.33a.9.9,0,1,1-.9-.9A.9.9,0,0,1,153.1,129.33Z"/><path class="cls-29" d="M154.53,126.8a.38.38,0,1,1-.75,0,.38.38,0,0,1,.75,0Z"/><circle class="cls-29" cx="150.56" cy="126.8" r="0.38"/><circle class="cls-29" cx="149.27" cy="129.48" r="0.38"/><circle class="cls-29" cx="154.46" cy="131.4" r="0.38"/><circle class="cls-29" cx="155.47" cy="129.27" r="0.38"/><path class="cls-29" d="M151,131.66a.38.38,0,1,1-.76,0,.38.38,0,0,1,.76,0Z"/><rect class="cls-29" x="150.85" y="126.67" width="0.3" height="1.56" transform="translate(-45.53 106.93) rotate(-34.21)"/><rect class="cls-29" x="152.94" y="127.3" width="1.56" height="0.3" transform="translate(-37.74 184.14) rotate(-56.16)"/><rect class="cls-29" x="154.38" y="128.49" width="0.3" height="1.56" transform="translate(23.8 282.57) rotate(-89.46)"/><rect class="cls-29" x="153.8" y="130.24" width="0.3" height="1.56" transform="translate(-46.52 157.1) rotate(-47.81)"/><rect class="cls-29" x="150.35" y="130.87" width="1.56" height="0.3" transform="translate(-47.44 155.03) rotate(-47.82)"/><rect class="cls-29" x="149.17" y="129.29" width="1.56" height="0.3" transform="translate(-6.15 7.48) rotate(-2.8)"/><path class="cls-1" d="M149.07,117.81a28.3,28.3,0,1,1-28.3,28.3,28.33,28.33,0,0,1,28.3-28.3m0-2.67a31,31,0,1,0,31,31,31,31,0,0,0-31-31Z"/><line class="cls-30" x1="168.88" y1="122.31" x2="129.24" y2="169.73"/><rect class="cls-31" x="149.64" y="329.99" width="35.02" height="45.6"/><path class="cls-27" d="M175.66,336.24a8.64,8.64,0,0,1-4.43,0H152.75v35.54h28.81V336.24Z"/><rect class="cls-16" x="147.45" y="323.88" width="39.41" height="5.66" rx="1.7"/><rect class="cls-31" x="192.33" y="348.18" width="35.02" height="27.41"/><polygon class="cls-27" points="195.44 355 195.44 371.78 224.19 371.78 224.25 371.72 224.25 355 195.44 355"/><rect class="cls-16" x="190.14" y="342.07" width="39.41" height="5.66" rx="1.7"/><path class="cls-26" d="M346.92,378.12l18.4-.23a2.36,2.36,0,0,0,2.12-3.36L362,362.79a35.25,35.25,0,0,1-3.29-14.46l0-1.43h.24a1.13,1.13,0,1,0,0-2.25l-6.29.08a1.12,1.12,0,0,0,0,2.24h.24l0,1.43a35.32,35.32,0,0,1-2.94,14.54l-5.19,11.87A2.37,2.37,0,0,0,346.92,378.12Z"/><path class="cls-27" d="M364.75,373.64l-3.69-7.92a6.43,6.43,0,0,1-2,.63,14.75,14.75,0,0,1-4.81-.43c-.88-.17-1.76-.39-2.63-.6a4.34,4.34,0,0,0-.52-.07l-3.76,8.6a1.81,1.81,0,0,0,1.68,2.53l14.07-.17A1.8,1.8,0,0,0,364.75,373.64Z"/><path class="cls-1" d="M409.48,262.15H407.2v-2.28a2.44,2.44,0,1,0-4.87,0v2.28h-2.28a2.43,2.43,0,0,0,0,4.86h2.28v2.28a2.44,2.44,0,0,0,4.87,0V267h2.28a2.43,2.43,0,1,0,0-4.86Z"/><path class="cls-1" d="M358.16,246.37h-2.28v-2.28a2.43,2.43,0,1,0-4.86,0v2.28h-2.28a2.44,2.44,0,0,0,0,4.87H351v2.28a2.43,2.43,0,1,0,4.86,0v-2.28h2.28a2.44,2.44,0,1,0,0-4.87Z"/><path class="cls-1" d="M341.57,213.18H340v-1.61a1.72,1.72,0,1,0-3.43,0v1.61h-1.61a1.72,1.72,0,1,0,0,3.43h1.61v1.6a1.72,1.72,0,1,0,3.43,0v-1.6h1.6a1.72,1.72,0,1,0,0-3.43Z"/><path class="cls-1" d="M423,247.45h-1.6v-1.61a1.72,1.72,0,0,0-3.43,0v1.61h-1.61a1.72,1.72,0,1,0,0,3.43h1.61v1.61a1.72,1.72,0,0,0,3.43,0v-1.61H423a1.72,1.72,0,1,0,0-3.43Z"/><path class="cls-1" d="M332.68,239.46h-.85v-.84a.9.9,0,1,0-1.8,0v.84h-.84a.9.9,0,1,0,0,1.8H330v.85a.9.9,0,0,0,1.8,0v-.85h.85a.9.9,0,0,0,0-1.8Z"/><path class="cls-1" d="M429.82,266.32H429v-.84a.9.9,0,0,0-1.8,0v.84h-.84a.9.9,0,1,0,0,1.8h.84V269a.9.9,0,0,0,1.8,0v-.85h.85a.9.9,0,1,0,0-1.8Z"/><rect class="cls-2" x="64.09" y="387.18" width="371.81" height="18.59"/><rect class="cls-11" x="64.09" y="387.18" width="371.81" height="7.34"/><rect class="cls-32" x="50.73" y="375.45" width="398.54" height="11.73"/></g></svg>